<svg width="25" height="16" viewBox="0 0 25 16" fill="none" xmlns="http://www.w3.org/2000/svg">
<g clip-path="url(#clip0)">
<path d="M15.9 13.7048H9.09998V1.90869H15.85L15.9 13.7048Z" fill="#CCCCCC"/>
<path d="M9.55 7.83091C9.55 5.45227 10.7 3.31635 12.5 1.95713C11.15 0.889165 9.45 0.306641 7.75 0.306641C3.45 0.306641 0 3.65615 0 7.83091C0 12.0057 3.45 15.3552 7.75 15.3552C9.5 15.3552 11.15 14.7727 12.5 13.7532C10.7 12.3455 9.55 10.2096 9.55 7.83091Z" fill="#F0F0F0"/>
<path d="M25.0001 7.83091C25.0001 11.9571 21.5501 15.3552 17.2501 15.3552C15.5001 15.3552 13.8501 14.7727 12.4501 13.7532C14.2501 12.394 15.4001 10.2581 15.4001 7.87946C15.4001 5.50081 14.3001 3.26781 12.5001 1.90858C13.8501 0.889165 15.5501 0.306641 17.2501 0.306641C21.5501 0.306641 25.0001 3.65615 25.0001 7.83091Z" fill="#E5E5E5"/>
</g>
<defs>
<clipPath id="clip0">
<rect width="25" height="15" fill="white" transform="translate(0 0.306641)"/>
</clipPath>
</defs>
</svg>
