<svg width="100" height="19" viewBox="0 0 100 19" fill="none" xmlns="http://www.w3.org/2000/svg">
<g clip-path="url(#clip0)">
<path d="M4.77248 9.8299L1.99778 15.6904H0L3.10766 9.41129C1.66482 8.67873 0.665927 7.42292 0.665927 5.12059C0.665927 1.87641 2.88568 0.306641 5.4384 0.306641H8.10211V15.6904H6.3263V9.8299H4.77248ZM6.3263 1.66711H5.32741C3.88457 1.66711 2.55272 2.50431 2.55272 5.12059C2.55272 7.63222 3.77359 8.36478 5.32741 8.36478H6.21532V1.66711H6.3263Z" fill="#F0F0F0"/>
<path d="M16.5371 4.80671V15.6904H14.7613V10.8765H12.0976V15.6904H10.3218V4.80671H12.0976V9.41136H14.7613V4.80671H16.5371ZM25.6381 17.7835H24.0843V15.6904H19.2008V17.7835H17.647V14.2253H18.3129C19.3118 11.923 19.4228 8.57416 19.4228 5.64392V4.80671H24.7502V14.2253H25.6381V17.7835ZM22.9744 6.16718H20.9766V6.37648C20.9766 8.67881 20.8656 12.0276 19.8667 14.33H22.9744V6.16718ZM30.5216 15.7951C28.1908 15.7951 26.637 14.016 26.637 10.6672C26.637 7.21369 27.6359 4.59741 30.0776 4.59741C31.9644 4.59741 33.2963 5.95788 33.2963 9.62067V10.5625H28.5238C28.5238 12.9695 29.3007 14.33 30.6325 14.33C31.6314 14.33 32.4083 13.9114 32.8523 13.5974L33.2963 14.8532C32.6303 15.4811 31.7424 15.7951 30.5216 15.7951ZM28.6348 9.30671H31.6314C31.6314 7.42299 31.2985 6.06253 30.2996 6.06253C29.0787 6.06253 28.7458 7.31834 28.6348 9.30671ZM36.9588 10.2486V15.6904H35.183V4.80671H36.9588V9.82997L39.7335 4.80671H41.5093L38.6237 9.93462L41.8423 15.6904H39.9555L36.9588 10.2486ZM42.1753 10.2486C42.1753 6.89974 43.6181 4.70206 46.2818 4.70206C47.2807 4.70206 47.9466 4.91137 48.3906 5.22532L48.1686 6.79509C47.7247 6.37648 47.0587 6.06253 46.2818 6.06253C44.95 6.06253 44.0621 7.42299 44.0621 10.1439C44.0621 12.8649 44.728 14.4346 46.1708 14.4346C47.0587 14.4346 47.7247 14.1207 48.0576 13.8067L48.5016 15.0625C47.8357 15.5858 47.1697 15.8997 46.0598 15.8997C43.6181 15.7951 42.1753 14.016 42.1753 10.2486Z" fill="#F0F0F0"/>
<path d="M60.5993 15.6904H53.607L53.4961 18.202H52.6082V14.7485H53.0521C53.829 14.1206 54.273 12.4462 54.4949 10.2485C54.7169 7.94617 54.8279 4.59734 54.8279 0.306641H60.4883V14.8532H61.5982V18.3066H60.7103L60.5993 15.6904ZM59.3784 1.14385H55.8268C55.7158 5.01594 55.6048 8.05083 55.4938 10.2485C55.2719 12.5508 54.9389 14.1206 54.273 14.7485H59.3784V1.14385Z" fill="#F0F0F0"/>
<path d="M66.3707 15.0624C67.9245 15.0624 68.7014 13.9112 68.7014 13.9112L69.0344 14.7484C69.0344 14.7484 68.1465 16.0042 66.3707 16.0042C63.929 16.0042 62.8191 13.9112 62.8191 10.3531C62.8191 6.79493 64.2619 4.7019 66.1487 4.7019C68.1465 4.7019 69.3674 6.69028 69.0344 10.5624H63.818C63.929 13.388 64.7059 15.0624 66.3707 15.0624ZM63.929 9.62051H68.1465C68.3685 6.69028 67.3696 5.43446 66.2597 5.43446C64.9279 5.43446 64.04 6.89958 63.929 9.62051Z" fill="#F0F0F0"/>
<path d="M76.1377 10.4578H72.1421V15.6904H71.0322V4.80664H72.1421V9.62059H76.0267V4.80664H77.1366V15.6904H76.0267V10.4578H76.1377Z" fill="#F0F0F0"/>
<path d="M79.6892 4.80664H80.7991V8.78339H81.687C83.9067 8.78339 85.2386 9.93455 85.2386 12.1322C85.2386 14.4345 83.6848 15.5857 81.576 15.5857H79.6892V4.80664ZM80.7991 9.62059V14.8532H81.465C83.1298 14.8532 84.1287 14.1206 84.1287 12.2369C84.1287 10.4578 83.1298 9.62059 81.576 9.62059H80.7991Z" fill="#F0F0F0"/>
<path d="M88.1244 5.64385V15.6904H87.1255V4.80664H92.009V5.64385H88.1244Z" fill="#F0F0F0"/>
<path d="M99.0012 8.15548C99.0012 7.63222 99.0012 7.10897 99.1122 6.69036H99.0012C98.8902 7.21362 98.6683 7.63222 98.3353 8.05083L94.5617 15.6904H93.6738V4.80664H94.6727V12.3415C94.6727 12.9694 94.6727 13.388 94.5617 13.9113H94.6727C94.7837 13.388 95.0057 12.9694 95.3386 12.4462L99.1122 4.80664H100V15.6904H99.0012V8.15548Z" fill="#F0F0F0"/>
</g>
<defs>
<clipPath id="clip0">
<rect width="100" height="18" fill="white" transform="translate(0 0.306641)"/>
</clipPath>
</defs>
</svg>
