<svg width="41" height="21" viewBox="0 0 41 21" fill="none" xmlns="http://www.w3.org/2000/svg">
<path fill-rule="evenodd" clip-rule="evenodd" d="M41 6.82154C40.6381 8.25732 40.3056 9.58124 39.9705 10.9048C39.5151 12.7054 39.0554 14.5054 38.6049 16.3074C38.5385 16.5713 38.4952 16.8427 38.4649 17.1133C38.2681 18.8836 36.8749 20.1507 35.0625 20.1592C31.9937 20.1719 28.9245 20.1712 25.8561 20.1592C23.9876 20.1518 22.6187 18.8324 22.4258 17.0114C22.2883 15.7111 22.0311 14.4239 21.8147 13.1324C21.4757 11.1081 21.1267 9.08512 20.782 7.06149C20.7655 6.96551 20.7637 6.86389 20.7327 6.77285C20.1826 5.143 19.6292 3.51421 19.0584 1.83109C18.7587 1.83109 18.4655 1.83109 18.1726 1.83109C17.1427 1.83109 16.1129 1.83603 15.0838 1.8272C14.8902 1.82579 14.6848 1.80568 14.5062 1.73828C14.1489 1.60385 13.9621 1.25734 14.0064 0.892839C14.0496 0.530455 14.3197 0.250639 14.6944 0.187125C14.7916 0.17054 14.8919 0.169129 14.9902 0.169129C16.6537 0.16807 18.3169 0.16807 19.9804 0.17054C20.0772 0.17054 20.174 0.191712 20.314 0.207238C21.0031 2.38154 21.6928 4.55938 22.4083 6.8166C23.944 6.82578 25.481 6.82013 27.017 6.82119C28.5616 6.82225 30.1066 6.82119 31.6504 6.82119C33.195 6.82119 34.7396 6.82119 36.2841 6.82119C37.8248 6.82154 39.3654 6.82154 41 6.82154ZM22.7405 8.53784C22.7777 8.81378 22.8009 9.02761 22.8359 9.23932C23.2646 11.8219 23.6979 14.4048 24.1229 16.9884C24.2701 17.8833 24.8988 18.4577 25.814 18.5011C25.9919 18.5092 26.1705 18.5043 26.3487 18.5043C28.9617 18.5043 31.5747 18.5043 34.1877 18.5043C34.4052 18.5043 34.6238 18.5057 34.841 18.5036C36.0094 18.4955 36.5999 18.0032 36.7917 16.8815C36.8217 16.7086 36.8614 16.5364 36.9039 16.3667C37.4211 14.3194 37.9401 12.2728 38.457 10.2259C38.5949 9.67898 38.7242 9.13064 38.8678 8.53784C33.4775 8.53784 28.1426 8.53784 22.7405 8.53784Z" fill="white"/>
<line y1="11.0101" x2="12" y2="11.0101" stroke="white" stroke-width="1.65"/>
<line x1="6.15825" y1="5.16846" x2="6.15825" y2="17.1685" stroke="white" stroke-width="1.65"/>
</svg>
