<svg width="6" height="4" viewBox="0 0 6 4" fill="none" xmlns="http://www.w3.org/2000/svg">
<path d="M2.99745 2.71859L0.878998 0.178442C0.793025 0.0796187 0.671713 0.0183926 0.541083 0.00789643C0.410453 -0.00259971 0.280908 0.0384696 0.180233 0.122296C0.0795579 0.206122 0.0157717 0.326029 0.00255533 0.456299C-0.010661 0.586568 0.027745 0.716825 0.109536 0.819131L2.61266 3.82025C2.65973 3.87652 2.71858 3.92178 2.78506 3.95284C2.85155 3.9839 2.92405 4 2.99745 4C3.07084 4 3.14334 3.9839 3.20983 3.95284C3.27631 3.92178 3.33517 3.87652 3.38223 3.82025L5.88536 0.819131C5.96968 0.717085 6.01012 0.585826 5.99784 0.454066C5.98555 0.322305 5.92154 0.200768 5.8198 0.11604C5.71806 0.0313125 5.58688 -0.00970977 5.45495 0.00194699C5.32301 0.0136038 5.20107 0.0769904 5.11579 0.178242L2.99745 2.71859Z" fill="black"/>
</svg>
