<svg width="26" height="20" viewBox="0 0 26 20" fill="none" xmlns="http://www.w3.org/2000/svg">
<path d="M1 0C0.447715 0 0 0.447715 0 1C0 1.55228 0.447715 2 1 2V0ZM5.58839 1L6.54285 0.701662C6.41237 0.284219 6.02575 0 5.58839 0V1ZM25 7.58037L25.9687 7.82875C26.0454 7.52944 25.9795 7.21146 25.7901 6.96734C25.6006 6.72322 25.309 6.58037 25 6.58037V7.58037ZM1 2H5.58839V0H1V2ZM4.63393 1.29834L6.69077 7.87871L8.5997 7.28204L6.54285 0.701662L4.63393 1.29834ZM6.65996 7.75136L8.35404 17.513L10.3246 17.171L8.63051 7.40938L6.65996 7.75136ZM11.3099 20H20.52V18H11.3099V20ZM23.4259 17.7451L25.9687 7.82875L24.0313 7.33199L21.4886 17.2484L23.4259 17.7451ZM25 6.58037H7.64523V8.58037H25V6.58037ZM20.52 20C21.8898 20 23.0857 19.0721 23.4259 17.7451L21.4886 17.2484C21.3752 17.6907 20.9766 18 20.52 18V20ZM8.35404 17.513C8.6035 18.9504 9.85092 20 11.3099 20V18C10.8235 18 10.4077 17.6501 10.3246 17.171L8.35404 17.513Z" fill="#111111"/>
</svg>
