<svg width="16" height="12" viewBox="0 0 16 12" fill="none" xmlns="http://www.w3.org/2000/svg">
<path d="M1.99996 0.835144C1.64634 0.835144 1.3072 0.97562 1.05715 1.22567C0.807102 1.47572 0.666626 1.81486 0.666626 2.16848V9.50181H1.99996C1.99996 10.0322 2.21067 10.541 2.58575 10.916C2.96082 11.2911 3.46953 11.5018 3.99996 11.5018C4.53039 11.5018 5.0391 11.2911 5.41417 10.916C5.78925 10.541 5.99996 10.0322 5.99996 9.50181H9.99996C9.99996 10.0322 10.2107 10.541 10.5857 10.916C10.9608 11.2911 11.4695 11.5018 12 11.5018C12.5304 11.5018 13.0391 11.2911 13.4142 10.916C13.7892 10.541 14 10.0322 14 9.50181H15.3333V6.16848L13.3333 3.50181H11.3333V0.835144H1.99996ZM11.3333 4.50181H13L14.3133 6.16848H11.3333V4.50181ZM3.99996 8.50181C4.26518 8.50181 4.51953 8.60717 4.70707 8.7947C4.8946 8.98224 4.99996 9.23659 4.99996 9.50181C4.99996 9.76703 4.8946 10.0214 4.70707 10.2089C4.51953 10.3965 4.26518 10.5018 3.99996 10.5018C3.73474 10.5018 3.48039 10.3965 3.29285 10.2089C3.10532 10.0214 2.99996 9.76703 2.99996 9.50181C2.99996 9.23659 3.10532 8.98224 3.29285 8.7947C3.48039 8.60717 3.73474 8.50181 3.99996 8.50181ZM12 8.50181C12.2652 8.50181 12.5195 8.60717 12.7071 8.7947C12.8946 8.98224 13 9.23659 13 9.50181C13 9.76703 12.8946 10.0214 12.7071 10.2089C12.5195 10.3965 12.2652 10.5018 12 10.5018C11.7347 10.5018 11.4804 10.3965 11.2929 10.2089C11.1053 10.0214 11 9.76703 11 9.50181C11 9.23659 11.1053 8.98224 11.2929 8.7947C11.4804 8.60717 11.7347 8.50181 12 8.50181Z" fill="#808080"/>
</svg>
