<svg width="15" height="15" viewBox="0 0 15 15" fill="none" xmlns="http://www.w3.org/2000/svg">
<path d="M8.10095 1.11752C7.94156 0.95817 7.72539 0.868652 7.5 0.868652C7.27461 0.868652 7.05845 0.95817 6.89905 1.11752L0.949054 7.06752C0.79422 7.22783 0.708545 7.44254 0.710481 7.66541C0.712418 7.88828 0.801812 8.10147 0.959409 8.25907C1.11701 8.41666 1.3302 8.50606 1.55306 8.50799C1.77593 8.50993 1.99064 8.42425 2.15095 8.26942L2.4 8.02037V13.6185C2.4 13.8439 2.48956 14.0601 2.64896 14.2195C2.80837 14.3789 3.02457 14.4685 3.25 14.4685H4.95C5.17544 14.4685 5.39164 14.3789 5.55104 14.2195C5.71045 14.0601 5.8 13.8439 5.8 13.6185V11.9185C5.8 11.693 5.88956 11.4768 6.04896 11.3174C6.20837 11.158 6.42457 11.0685 6.65 11.0685H8.35C8.57544 11.0685 8.79164 11.158 8.95105 11.3174C9.11045 11.4768 9.2 11.693 9.2 11.9185V13.6185C9.2 13.8439 9.28956 14.0601 9.44896 14.2195C9.60837 14.3789 9.82457 14.4685 10.05 14.4685H11.75C11.9754 14.4685 12.1916 14.3789 12.351 14.2195C12.5105 14.0601 12.6 13.8439 12.6 13.6185V8.02037L12.8491 8.26942C13.0094 8.42425 13.2241 8.50993 13.4469 8.50799C13.6698 8.50606 13.883 8.41666 14.0406 8.25907C14.1982 8.10147 14.2876 7.88828 14.2895 7.66541C14.2915 7.44254 14.2058 7.22783 14.051 7.06752L8.10095 1.11752Z" fill="#808080"/>
</svg>
