<svg width="16" height="16" viewBox="0 0 16 16" fill="none" xmlns="http://www.w3.org/2000/svg">
<path fill-rule="evenodd" clip-rule="evenodd" d="M8 14.8129C11.7627 14.8129 14.8129 11.7627 14.8129 8C14.8129 4.23734 11.7627 1.1871 8 1.1871C4.23734 1.1871 1.1871 4.23734 1.1871 8C1.1871 11.7627 4.23734 14.8129 8 14.8129ZM8 16C12.4183 16 16 12.4183 16 8C16 3.58172 12.4183 0 8 0C3.58172 0 0 3.58172 0 8C0 12.4183 3.58172 16 8 16Z" fill="#D96801"/>
<path d="M8.03396 9.39035C8.26387 9.39035 8.48437 9.29902 8.64694 9.13645C8.8095 8.97388 8.90084 8.75339 8.90084 8.52348V4.5092C8.90084 4.2793 8.8095 4.0588 8.64694 3.89623C8.48437 3.73366 8.26387 3.64233 8.03396 3.64233C7.80406 3.64233 7.58356 3.73366 7.42099 3.89623C7.25842 4.0588 7.16709 4.2793 7.16709 4.5092V8.51015C7.16533 8.6251 7.18644 8.73926 7.22921 8.84598C7.27199 8.9527 7.33556 9.04984 7.41623 9.13176C7.4969 9.21367 7.59307 9.27872 7.69912 9.32311C7.80517 9.36751 7.91899 9.39037 8.03396 9.39035Z" fill="#D96801"/>
<path d="M8.00024 12.3578C8.55265 12.3578 9.00047 11.9099 9.00047 11.3575C9.00047 10.8051 8.55265 10.3573 8.00024 10.3573C7.44782 10.3573 7 10.8051 7 11.3575C7 11.9099 7.44782 12.3578 8.00024 12.3578Z" fill="#D96801"/>
</svg>
