<svg width="140" height="38" viewBox="0 0 140 38" fill="none" xmlns="http://www.w3.org/2000/svg">
<g clip-path="url(#clip0)">
<path d="M28.7543 25.6567H33.3406V24.8448L30.2765 18.5011L32.9745 13.2524V12.4406H28.9278L26.4417 17.3683H25.2084V12.4406H20.6221V25.6567H25.2084V20.559H26.3454L28.7543 25.6567Z" fill="white"/>
<path d="M35.1401 25.6567H39.7267V21.1821H40.5167C44.467 21.1821 46.4135 19.785 46.4135 16.8397C46.4135 13.8566 44.6984 12.4406 40.7287 12.4406H35.1401V25.6567ZM39.6688 15.2915H40.4397C41.5958 15.2915 41.9619 15.8201 41.9619 16.8585C41.9619 17.8781 41.5764 18.5577 40.4397 18.5577H39.6688V15.2915Z" fill="white"/>
<path d="M48.1157 25.6567H58.1171V22.7114H52.6829V20.408H56.2865V17.576H52.6829V15.4614H57.9436V12.4406H48.1157V25.6567Z" fill="white"/>
<path d="M64.7174 25.6567V15.6124H67.6271V25.6567H72.2136V12.4406H60.1309V25.6567H64.7174Z" fill="white"/>
<path d="M73.9971 21.7674H79.1037V18.7466H73.9971V21.7674Z" fill="white"/>
<path d="M89.0385 25.6567H93.625V24.8448L90.5609 18.5011L93.2587 13.2524V12.4406H89.2119L86.7259 17.3683H85.4928V12.4406H80.9062V25.6567H85.4928V20.559H86.6298L89.0385 25.6567Z" fill="white"/>
<path d="M101.126 25.8644C105.057 25.8644 108.025 23.4666 108.025 19.0864C108.025 14.7062 104.96 12.2329 101.126 12.2329C97.3101 12.2329 94.2461 14.7062 94.2461 19.0864C94.2461 23.4666 97.1946 25.8644 101.126 25.8644ZM101.126 22.8247C99.7768 22.8247 98.8711 21.7485 98.8711 19.1053C98.8711 16.4621 99.7768 15.3859 101.126 15.3859C102.475 15.3859 103.38 16.4621 103.38 19.1053C103.38 21.7485 102.475 22.8247 101.126 22.8247Z" fill="white"/>
<path d="M109.83 25.6567H113.453V17.4627H113.511L116.016 25.6567H118.559L121.084 17.4627H121.142V25.6567H125.574V12.4406H119.774L117.75 19.0864H117.692L115.669 12.4406H109.83V25.6567Z" fill="white"/>
<path d="M132.492 25.6567V15.6124H135.402V25.6567H139.988V12.4406H127.905V25.6567H132.492Z" fill="white"/>
<path d="M21.4058 0.753215C20.3808 -0.251072 18.7188 -0.251071 17.6938 0.753215L0.932359 17.1751C-0.0926886 18.1794 -0.092687 19.8077 0.932361 20.812L17.6938 37.234C18.7188 38.2382 20.3808 38.2382 21.4058 37.234L26.4194 32.3219C27.0807 31.6738 26.6123 30.5658 25.677 30.5658H19.6335C18.2327 30.5658 16.9374 29.8365 16.2319 28.651L11.6368 20.9275C10.9226 19.7269 10.9226 18.2428 11.6368 17.0423L16.2319 9.31882C16.9374 8.13312 18.2327 7.40394 19.6335 7.40394H25.6593C26.5945 7.40394 27.0632 6.29595 26.4017 5.64792L21.4058 0.753215Z" fill="#F0F0F0"/>
</g>
<defs>
<clipPath id="clip0">
<rect width="140" height="38" fill="white"/>
</clipPath>
</defs>
</svg>
