<svg width="13" height="12" viewBox="0 0 13 12" fill="none" xmlns="http://www.w3.org/2000/svg">
<path d="M3.11882 6.07206C3.94603 6.97493 4.85358 7.80131 5.83035 8.54109C6.16799 8.7999 6.52122 9.02506 6.86925 9.27611C6.89139 9.29859 6.91832 9.31581 6.94806 9.3265C6.97779 9.33718 7.00956 9.34105 7.04101 9.33782C7.07245 9.33458 7.10276 9.32433 7.12968 9.30782C7.1566 9.29132 7.17944 9.26897 7.1965 9.24246C7.63024 8.78178 8.07957 8.33663 8.49513 7.87078C8.71775 7.61001 9.02406 7.43403 9.36208 7.37271C9.7001 7.31138 10.049 7.36848 10.3496 7.53432C11.0249 7.91995 11.6923 8.32369 12.3443 8.75072C12.6525 8.96413 12.871 9.28316 12.9582 9.64691C13.0454 10.0107 12.9951 10.3937 12.817 10.7228C12.3546 11.7141 11.4534 11.8694 10.5366 11.9781C9.71324 12.0764 8.93406 11.8305 8.19904 11.5096C6.7022 10.8354 5.31748 9.93735 4.09279 8.84648C2.88892 7.86905 1.82615 6.73077 0.934527 5.46386C0.363132 4.61238 -0.104373 3.70137 0.0202946 2.65061C0.121587 1.74995 0.30859 0.864827 1.16828 0.298036C1.48086 0.0680673 1.86955 -0.0347625 2.25544 0.0104197C2.64133 0.0556019 2.99551 0.24541 3.24608 0.541316C3.73956 1.12105 4.21745 1.71631 4.67717 2.32968C4.90558 2.62218 5.0169 2.98875 4.98955 3.35837C4.96219 3.72799 4.79812 4.07433 4.52912 4.33027C4.42228 4.4346 4.32085 4.54431 4.22525 4.65896C3.86423 5.1274 3.50321 5.59067 3.11882 6.07206Z" fill="#552FEC"/>
</svg>
