<svg width="11" height="10" viewBox="0 0 11 10" fill="none" xmlns="http://www.w3.org/2000/svg">
<path d="M2.639 5.06005C3.33895 5.81244 4.10687 6.50109 4.93337 7.11757C5.21907 7.33325 5.51795 7.52088 5.81244 7.73009C5.83117 7.74882 5.85397 7.76318 5.87913 7.77208C5.90429 7.78098 5.93117 7.78421 5.95778 7.78151C5.98438 7.77882 6.01003 7.77028 6.0328 7.75652C6.05558 7.74276 6.07491 7.72414 6.08935 7.70205C6.45636 7.31815 6.83656 6.94719 7.18819 6.55898C7.37656 6.34167 7.63575 6.19503 7.92176 6.14392C8.20777 6.09282 8.503 6.1404 8.75733 6.2786C9.32872 6.59996 9.89352 6.93641 10.4451 7.29227C10.7059 7.47011 10.8909 7.73596 10.9646 8.03909C11.0384 8.34222 10.9959 8.6614 10.8451 8.9357C10.4539 9.76173 9.69134 9.89114 8.91556 9.98172C8.2189 10.0637 7.55959 9.85879 6.93765 9.59135C5.67109 9.02952 4.49941 8.28112 3.46313 7.37207C2.44447 6.55754 1.5452 5.60898 0.790754 4.55321C0.307265 3.84365 -0.088316 3.08447 0.0171724 2.20884C0.102882 1.45829 0.261114 0.720689 0.988545 0.248363C1.25304 0.0567227 1.58192 -0.0289688 1.90845 0.00868308C2.23497 0.0463349 2.53466 0.204509 2.74668 0.451097C3.16424 0.934206 3.56861 1.43026 3.9576 1.9414C4.15088 2.18515 4.24507 2.49063 4.22192 2.79864C4.19878 3.10666 4.05995 3.39527 3.83234 3.60856C3.74193 3.6955 3.65611 3.78692 3.57521 3.88247C3.26973 4.27284 2.96425 4.65889 2.639 5.06005Z" fill="#552FEC"/>
</svg>
