<svg width="14" height="13" viewBox="0 0 14 13" fill="none" xmlns="http://www.w3.org/2000/svg">
<path d="M3.35873 6.57806C4.24957 7.55617 5.22693 8.45142 6.27884 9.25285C6.64245 9.53322 7.02285 9.77715 7.39765 10.0491C7.42149 10.0735 7.4505 10.0921 7.48253 10.1037C7.51455 10.1153 7.54876 10.1195 7.58262 10.116C7.61648 10.1125 7.64912 10.1014 7.67811 10.0835C7.7071 10.0656 7.7317 10.0414 7.75008 10.0127C8.21719 9.5136 8.70107 9.03135 9.1486 8.52667C9.38835 8.24418 9.71822 8.05353 10.0822 7.9871C10.4463 7.92066 10.822 7.98252 11.1457 8.16218C11.8729 8.57994 12.5918 9.01733 13.2938 9.47995C13.6257 9.71114 13.8611 10.0568 13.955 10.4508C14.0489 10.8449 13.9947 11.2598 13.8029 11.6164C13.305 12.6903 12.3344 12.8585 11.3471 12.9762C10.4604 13.0828 9.6213 12.8164 8.82974 12.4688C7.21775 11.7384 5.72652 10.7655 4.40762 9.58369C3.11114 8.5248 1.96662 7.29167 1.00641 5.91918C0.391065 4.99674 -0.112402 4.00982 0.0218557 2.87149C0.13094 1.89578 0.332327 0.936895 1.25815 0.322872C1.59477 0.0737396 2.01336 -0.0376594 2.42893 0.011288C2.84451 0.0602354 3.22593 0.265861 3.49578 0.586425C4.02722 1.21447 4.54187 1.85933 5.03695 2.52382C5.28293 2.84069 5.40281 3.23782 5.37336 3.63823C5.3439 4.03865 5.16721 4.41385 4.87752 4.69113C4.76245 4.80415 4.65322 4.923 4.55026 5.04721C4.16148 5.55469 3.77269 6.05656 3.35873 6.57806Z" fill="white"/>
</svg>
