<svg width="83" height="83" viewBox="0 0 83 83" fill="none" xmlns="http://www.w3.org/2000/svg">
<g filter="url(#filter0_d)">
<path d="M74.6406 8.35944C74.6406 8.35944 49.8 8.3 30.4334 27.6667C29.5392 28.5608 28.7607 29.5342 28.0558 30.5414C24.6221 30.2669 19.3661 30.3566 16.6757 33.0487C10.3954 39.329 8.30005 49.8 8.30005 49.8L22.1334 47.8223V52.5667L30.4334 60.8667H35.1778L33.2 74.7C33.2 74.7 43.671 72.6047 49.9513 66.3243C52.6435 63.634 52.7332 58.3779 52.4586 54.9443C53.4658 54.2394 54.4392 53.4608 55.3334 52.5667C74.7 33.2 74.6406 8.35944 74.6406 8.35944ZM52.5667 24.9C55.6239 24.9 58.1 27.3762 58.1 30.4333C58.1 33.4905 55.6239 35.9667 52.5667 35.9667C49.5095 35.9667 47.0334 33.4905 47.0334 30.4333C47.0334 27.3762 49.5095 24.9 52.5667 24.9ZM19.9179 55.3225C18.8666 55.5992 17.8703 56.1273 17.0486 56.949C13.2693 60.7283 13.8712 69.1234 13.8712 69.1234C13.8712 69.1234 22.2112 69.7752 26.0402 65.9461C26.8619 65.1244 27.39 64.1227 27.6667 63.0714L26.4023 61.8069C26.2778 61.984 26.2007 62.1896 26.0402 62.3473C23.3427 65.0448 19.2965 63.6982 19.2965 63.6982C19.2965 63.6982 17.9471 59.6519 20.6474 56.9544C20.8078 56.794 21.0053 56.7196 21.1823 56.5924L19.9179 55.3225Z" fill="#4F36E3"/>
</g>
<defs>
<filter id="filter0_d" x="4.30005" y="8.35944" width="74.3406" height="74.3406" filterUnits="userSpaceOnUse" color-interpolation-filters="sRGB">
<feFlood flood-opacity="0" result="BackgroundImageFix"/>
<feColorMatrix in="SourceAlpha" type="matrix" values="0 0 0 0 0 0 0 0 0 0 0 0 0 0 0 0 0 0 127 0"/>
<feOffset dy="4"/>
<feGaussianBlur stdDeviation="2"/>
<feColorMatrix type="matrix" values="0 0 0 0 0 0 0 0 0 0 0 0 0 0 0 0 0 0 0.25 0"/>
<feBlend mode="normal" in2="BackgroundImageFix" result="effect1_dropShadow"/>
<feBlend mode="normal" in="SourceGraphic" in2="effect1_dropShadow" result="shape"/>
</filter>
</defs>
</svg>
