<?xml version="1.0" encoding="UTF-8"?>
<!DOCTYPE svg PUBLIC "-//W3C//DTD SVG 1.1//EN" "http://www.w3.org/Graphics/SVG/1.1/DTD/svg11.dtd">
<!-- Creator: CorelDRAW 2020 (64-Bit) -->
<svg xmlns="http://www.w3.org/2000/svg" xml:space="preserve" width="100mm" height="100mm" version="1.1" style="shape-rendering:geometricPrecision; text-rendering:geometricPrecision; image-rendering:optimizeQuality; fill-rule:evenodd; clip-rule:evenodd"
viewBox="0 0 10000 10000"
 xmlns:xlink="http://www.w3.org/1999/xlink"
 xmlns:xodm="http://www.corel.com/coreldraw/odm/2003">
 <defs>
  <style type="text/css">
   <![CDATA[
    .fil0 {fill:white;fill-rule:nonzero}
   ]]>
  </style>
 </defs>
 <g id="Слой_x0020_1">
  <metadata id="CorelCorpID_0Corel-Layer"/>
  <g id="_1102718432">
  </g>
  <g id="_907960704">
  </g>
  <g id="_907960848">
  </g>
  <g id="_907977984">
  </g>
  <g id="_1097398880">
  </g>
  <g id="_1097377376">
  </g>
  <g id="_1097373440">
  </g>
  <g id="_1097378480">
  </g>
  <g id="_1097395760">
  </g>
  <g id="_1097387792">
  </g>
  <g id="_1097383232">
  </g>
  <g id="_1097352752">
  </g>
  <g id="_1097379920">
  </g>
  <g id="_1097376752">
  </g>
  <g id="_1097381264">
  </g>
  <path class="fil0" d="M5913.61 5140.23l0 137.1c0,71.2 57.71,128.91 128.92,128.91 71.21,0 128.91,-57.71 128.91,-128.91l0 -137.1c0,-71.19 -57.7,-128.92 -128.91,-128.92 -71.19,0 -128.92,57.71 -128.92,128.92zm-4388.06 -65.14c9.73,0 19.61,-1.12 29.5,-3.43 69.32,-16.22 112.36,-85.57 96.13,-154.91 -12.12,-51.74 -37.31,-159.43 -1.9,-205.75 25.23,-33 92.27,-53.02 188.73,-56.41 383.05,-13.44 500.53,-190.45 614.1,-361.64 60.88,-91.72 123.81,-186.54 238.4,-275.36 112.85,-87.44 161.22,-89.08 169.05,-88.63 7.12,7.55 57.52,72.16 38.9,356.28 -9.78,149.02 18.99,258.53 87.95,334.73 96.48,106.62 237.02,111.42 349.93,115.29 50.81,1.72 98.81,3.38 133.6,13.08 109.64,30.53 205.85,20.88 283.14,13.13 47.62,-4.78 96.87,-9.71 107.32,1.72 51.5,56.17 110.3,83.43 174.83,81.99 121.64,-3.35 204.06,-103.84 328.84,-255.95 11.41,-13.9 23.25,-28.33 35.56,-43.24 6.75,-8.19 11.64,-12.51 14.39,-14.65 17.8,3.99 57.35,28.01 84.1,44.29 95.31,57.93 239.37,145.49 418.76,68.63 197.45,-84.6 248.51,-147.33 345.22,-281.14 35,-48.43 78.55,-108.7 144.87,-187.75 116.77,-139.22 285.73,-179.71 355.47,-147.47 11.03,5.11 44.62,20.65 28.73,113.66 -22.7,132.94 2.92,233 76.16,297.35 126.88,111.5 324.71,50.76 469.16,6.4 33.04,-10.15 70.5,-21.65 86.86,-24.1 12.51,-1.12 50.1,8.03 75.05,14.2 124.97,30.86 385.04,94.99 514.09,-273.78 87.1,-248.84 150.85,-258.2 340.15,-286 20.09,-2.96 40.91,-6.02 62.49,-9.47 419.83,-67.18 498.26,-342.06 561.28,-562.95 17.9,-62.73 34.79,-121.96 58.3,-176.19 38.37,-88.58 109.27,-134.05 199.02,-191.58 115.26,-73.94 258.74,-165.94 319.17,-371.48 29,-98.55 112.02,-155.05 156.64,-169.59 -1.3,25.14 -9.64,69.97 -37.2,137.62 -96.98,238.03 -116.93,369.43 -71.16,468.74 41.93,90.92 125.83,118.74 175.97,135.33 19.34,6.42 37.61,12.47 46.45,18.55 0,0.02 0.79,0.69 2.23,2.29 47.3,53.21 128.8,57.94 182.01,10.61 53.19,-47.32 57.93,-128.81 10.59,-182 -14.66,-16.48 -30.53,-30.68 -47.24,-42.26 -40.15,-27.8 -80.53,-41.18 -112.94,-51.92 -7.03,-2.31 -15.52,-5.13 -22.54,-7.71 0.4,-25.43 10.04,-93.94 75.37,-254.33 75.34,-184.88 75.12,-324.79 -0.6,-415.8 -56.04,-67.36 -144.5,-94.32 -242.65,-74.03 -136.98,28.31 -305.39,158.26 -362.29,351.77 -33.31,113.21 -107.83,161.02 -211.01,227.18 -106.3,68.17 -226.78,145.44 -296.41,306.12 -30.24,69.75 -50.28,140.02 -69.66,207.96 -58.06,203.47 -96.38,337.89 -354.07,379.11 -20.45,3.27 -40.18,6.16 -59.23,8.95 -209.5,30.77 -407.41,59.83 -546.06,455.94 -51.6,147.48 -88.09,138.47 -208.97,108.62 -55.88,-13.79 -113.66,-28.04 -174.74,-18.91 -35.72,5.35 -76.93,17.99 -124.62,32.64 -48.54,14.9 -172.14,52.78 -219.09,45.43 -1.19,-9.56 -1.73,-28.04 3.62,-59.33 30.75,-180.02 -34.53,-326.2 -174.59,-391.04 -194,-89.81 -484.52,4.97 -661.31,215.77 -72.26,86.16 -118.85,150.61 -156.25,202.41 -78.93,109.17 -97.66,135.1 -237.83,195.17 -52.17,22.37 -93.79,2.45 -183.26,-51.94 -88.46,-53.78 -272.5,-165.68 -431.19,26.43 -12.51,15.14 -24.55,29.8 -36.13,43.94 -43.8,53.38 -96.06,117.12 -129.43,147.85 -95.29,-89.97 -212.67,-78.19 -307.97,-68.64 -64.43,6.46 -125.26,12.56 -188.22,-4.97 -64.42,-17.94 -130.28,-20.2 -193.96,-22.38 -67.65,-2.31 -144.34,-4.92 -167.58,-30.61 -8.78,-9.71 -28.52,-43.27 -21.85,-144.85 13.83,-210.76 10.68,-502.38 -175.42,-601.29 -179.08,-95.13 -381.3,61.49 -447.74,112.98 -148.09,114.77 -229.7,237.77 -295.3,336.6 -101.72,153.29 -157.73,237.73 -408.31,246.51 -180.06,6.32 -309.4,59.29 -384.5,157.47 -109.43,143.08 -65.46,330.88 -44.33,421.16 13.91,59.46 66.88,99.58 125.4,99.58l0.02 0zm3811.65 123.59c-30.44,34.96 -74.38,54.99 -120.55,54.99 -46.17,0 -90.1,-20.02 -120.54,-54.96 -46.79,-53.69 -128.22,-59.27 -181.88,-12.5 -53.68,46.77 -59.27,128.2 -12.5,181.89 79.43,91.16 194.2,143.42 314.92,143.42 120.7,0 235.49,-52.26 314.92,-143.4 46.79,-53.68 41.19,-135.11 -12.5,-181.89 -53.65,-46.81 -135.08,-41.22 -181.87,12.45zm4023.43 -930.77c-36.28,-44.92 -71.87,-85.44 -106.27,-124.64 -156.15,-177.88 -202.82,-244.72 -157.59,-355.73 10.28,-25.19 19.36,-52.22 26.97,-80.28 18.66,-68.71 -21.91,-139.54 -90.62,-158.2 -68.65,-18.62 -139.54,21.9 -158.19,90.62 -4.88,17.96 -10.56,34.95 -16.92,50.52 -109.19,267.99 49.3,448.56 202.58,623.16 32.66,37.24 66.48,75.74 99.43,116.54 113.42,140.4 188.84,369.99 198.81,479.4 -266.68,-69.32 -415.57,-192.99 -442.86,-368.05l-7.12 -46.49c-31.42,-206.58 -63.93,-420.18 -245.02,-465.44 -113.77,-28.42 -260.51,9.35 -356.93,91.88 -84.71,72.56 -125.79,173.84 -115.65,285.14 3.13,34.68 7.8,71.07 12.73,109.59 17.24,134.45 43.28,337.62 -31.71,388.91 -185.49,126.92 -205.39,324.31 -226.48,533.28 -4.56,45.22 -9.27,91.97 -15.73,140.36 -18.38,137.95 31.15,211.15 75.94,248.27 112.85,93.51 274.65,40.04 404.63,-2.97 28.93,-9.55 56.23,-18.6 76.35,-23.63 46.71,-11.68 112.61,70.78 207.1,259.73 27.61,55.27 58.31,102.67 85.38,144.52 89.42,138.14 160.03,247.24 80.66,619.74 -34.62,162.42 -84.9,215.55 -101.02,224.22 -12.28,-7.98 -34.59,-44.69 -21.05,-88.71 57.24,-185.99 55.87,-330.29 -4.1,-428.9 -39.08,-64.23 -99.82,-105.45 -175.69,-119.22 -76.59,-13.88 -124.84,-3.3 -177.99,39.12 -13.45,10.71 -49.16,39.2 -229.21,69.94 -202.11,34.52 -241.2,2.44 -335.74,-75.04 -42.94,-35.19 -96.38,-79 -170.51,-121.75 -125.6,-72.43 -216.7,-52.81 -271.05,-23.56 -159.14,85.64 -181.58,329.35 -205,719.88 -3.3,54.96 -15.09,93.3 -33.2,107.94 -41.02,33.18 -171.66,13.28 -276.65,-2.7 -124.6,-18.99 -265.82,-40.47 -394.77,-10.99 -175.41,40.1 -302.11,-5.54 -403.93,-42.22 -60.51,-21.79 -112.75,-40.59 -168.58,-40.59 -134.7,0 -171.93,130.8 -187.83,186.66 -5.53,19.45 -15.59,54.8 -24.03,66.08 -6.36,0.97 -29.95,2.49 -81.37,-15.6 -260.86,-91.65 -416.69,6.11 -519.81,70.76 -55.55,34.86 -88.73,54.58 -124.15,54.58 -116.1,0 -394.13,-29.48 -467.93,-302.58 -74.02,-273.86 -287.37,-294.69 -401.98,-305.89 -12.56,-1.22 -27.72,-2.7 -40.38,-4.44 -46.03,-268.33 -325.15,-281.35 -675.2,-297.63 -231.18,-10.76 -337.69,51.52 -367.7,214.97 -1.04,5.63 -2.33,12.73 -3.51,17.66 -4.46,2.27 -13.25,5.97 -28.56,9.78 -162.63,40.64 -329.85,-164.9 -350.04,-227.25 -34.34,-106.16 -154.03,-273.21 -569.68,-198.97 -231.42,41.32 -246.41,267.49 -254.45,388.99 -1.2,17.88 -2.72,41.02 -4.89,60.17 -156.67,13.63 -229.09,177.46 -278.06,294.71 -34.59,-118.4 -103.91,-277.28 -314.78,-393.84 -54.42,-30.08 -119.96,-79.66 -123.11,-145.14 -1.68,-35.46 14.5,-65.84 26.92,-80.78 95.02,2.4 376.07,-6.26 493.15,-183.64 49.13,-74.43 85.67,-203.12 -19.26,-393.63 -52.43,-95.18 -70.09,-193.14 -54.03,-299.48 10.64,-70.41 -37.82,-136.1 -108.2,-146.74 -70.36,-10.57 -136.09,37.82 -146.73,108.21 -24.5,162.18 3.46,317.77 83.13,462.41 32.43,58.89 43.62,106.43 29.95,127.18 -36.32,54.99 -207.19,75.25 -284.37,67.57 -120.93,-12.05 -224.92,105.55 -261.37,222.39 -22.15,71.06 -70.38,316.22 239.23,487.34 153.43,84.78 180.32,191.32 206.33,294.35 20.66,81.84 51.88,205.51 184.39,232.03 165.11,33.02 235.86,-136.87 282.69,-249.28 18.33,-43.99 51.51,-123.59 75.08,-145.97 69.11,4.21 116.02,-22.11 143.45,-45.44 75.07,-63.84 81.8,-165.58 87.76,-255.36 8.35,-126.03 19.37,-148.1 42.5,-152.23 186.74,-33.35 270.28,-2.63 279.07,24.55 57.15,176.61 341.24,477.13 657.87,397.99 189.41,-47.33 212.18,-171.42 223.12,-231.05 0.06,-0.26 0.08,-0.52 0.14,-0.78 16.21,-2.84 47.18,-5.72 101.98,-3.18 163.3,7.6 304.67,15.88 381.05,40.4 49.7,15.95 50.88,27.62 53.7,55.84 18.04,180.5 186.7,196.98 267.76,204.88 107.14,10.45 151.68,18.62 178.15,116.54 123.68,457.59 579.93,493.16 716.82,493.16 111.33,0 194.41,-52.11 261.17,-93.99 92.52,-58.04 153.64,-96.39 297.32,-45.91 115.82,40.68 209.5,41.12 286.38,1.31 95.31,-49.34 128.77,-143.29 147.68,-207.76 8.93,3.13 17.8,6.33 25.87,9.23 119.31,42.96 299.65,107.88 548.72,50.99 81.22,-18.55 191.67,-1.74 298.54,14.54 171.15,26.03 348.08,52.95 477.53,-51.69 77.33,-62.51 120.55,-161.11 128.47,-293 9.08,-151.39 25.48,-425 66.85,-499.96 5.66,2.31 13.26,5.93 22.97,11.53 55.87,32.23 96.57,65.58 135.95,97.86 135.68,111.18 246.67,180.24 542.55,129.76 191.82,-32.74 272.22,-69.93 322.04,-104.22 7.93,21.24 14.28,86.02 -24.88,213.32 -37.17,120.85 -6.08,254.87 79.27,341.44 70.47,71.48 166.82,98.3 257.92,71.71 94.46,-27.58 220.27,-122.69 283.43,-419.09 101.61,-476.79 -9.19,-648 -116.37,-813.57 -25.69,-39.72 -49.97,-77.24 -71.23,-119.73 -86.35,-172.74 -230.98,-461.8 -500.22,-394.55 -29.43,7.35 -61.18,17.85 -94.81,28.97 -36.16,11.96 -102.7,33.96 -144.82,40.21 0.21,-2.09 0.48,-4.31 0.79,-6.67 7,-52.48 11.92,-101.32 16.69,-148.58 19.56,-193.89 32.63,-289.62 115.55,-346.33 205.16,-140.39 168.59,-425.97 141.86,-634.49 -4.64,-36.12 -8.99,-70.23 -11.74,-100.19 -2.54,-28.07 5.42,-47.8 26.63,-65.97 36.97,-31.65 94.04,-41.43 120.05,-38.68 25.73,34.89 45.79,166.72 59.25,255.19l7.26 47.41c32.51,208.61 180.57,481.03 701.41,594.23 89.99,19.61 170.88,-12.74 216.36,-86.45 119.53,-193.57 -73.42,-641.44 -218.27,-820.78l0.01 -0.04zm-4969.83 743.4c-71.2,0 -128.92,57.73 -128.92,128.92l0 137.1c0,71.2 57.72,128.91 128.92,128.91 71.2,0 128.91,-57.71 128.91,-128.91l0 -137.1c0,-71.21 -57.71,-128.92 -128.91,-128.92z"/>
 </g>
</svg>
