<?xml version="1.0" encoding="UTF-8"?>
<!DOCTYPE svg PUBLIC "-//W3C//DTD SVG 1.1//EN" "http://www.w3.org/Graphics/SVG/1.1/DTD/svg11.dtd">
<!-- Creator: CorelDRAW 2020 (64-Bit) -->
<svg xmlns="http://www.w3.org/2000/svg" xml:space="preserve" width="101.6mm" height="101.6mm" version="1.1" style="shape-rendering:geometricPrecision; text-rendering:geometricPrecision; image-rendering:optimizeQuality; fill-rule:evenodd; clip-rule:evenodd"
viewBox="0 0 10160 10160"
 xmlns:xlink="http://www.w3.org/1999/xlink"
 xmlns:xodm="http://www.corel.com/coreldraw/odm/2003">
 <defs>
  <style type="text/css">
   <![CDATA[
    .fil0 {fill:black;fill-rule:nonzero}
   ]]>
  </style>
 </defs>
 <g id="Слой_x0020_1">
  <metadata id="CorelCorpID_0Corel-Layer"/>
  <g id="_1096385392">
  </g>
  <g id="_1096379104">
  </g>
  <g id="_1096357744">
  </g>
  <g id="_1096356976">
  </g>
  <g id="_1096340032">
  </g>
  <g id="_1096374352">
  </g>
  <g id="_1096342528">
  </g>
  <g id="_1096334944">
  </g>
  <g id="_1096356256">
  </g>
  <g id="_1096340992">
  </g>
  <g id="_1096338448">
  </g>
  <g id="_1096343728">
  </g>
  <g id="_1096369600">
  </g>
  <g id="_1096341136">
  </g>
  <g id="_1096330288">
  </g>
  <g id="_1024486256">
   <path class="fil0" d="M5059.73 1542.57l-3663.96 1733.87 0 1118.91 498.43 0 0 4339.16 305.36 -0.01 0 -4339.15 5720.85 0 0 4339.16 305.36 -0.01 0 -4339.15 498.51 0 0 -1133.45 -3664.55 -1719.33zm3359.2 2547.42l-6717.8 0 0 -620.17 3359.19 -1589.69 3358.61 1575.75 0.01 634.11 -0.01 0z"/>
   <path class="fil0" d="M4890.12 5627.21l-1397.05 0 0 1378.05 1397.05 0 0 -1378.05zm-305.35 1072.71l-786.35 0 0 -767.35 786.35 0 0 767.35z"/>
   <path class="fil0" d="M6626.91 5627.21l-1397.05 0 0 1378.05 1397.05 0 0 -1378.05zm-305.36 1072.71l-786.35 0 0 -767.35 786.35 0 0 767.35z"/>
   <path class="fil0" d="M2640.75 8650.78l1397.13 0 0 -1378.12 -1397.13 0 0 1378.12zm305.35 -1072.76l786.42 0 0 767.42 -786.42 0 0 -767.42z"/>
   <path class="fil0" d="M4361.43 8650.78l1397.12 0 0 -1378.12 -1397.12 0 0 1378.12zm305.34 -1072.76l786.43 0 0 767.42 -786.43 0 0 -767.42z"/>
   <path class="fil0" d="M6082.18 8650.78l1397.05 0 0 -1378.12 -1397.05 0 0 1378.12zm305.34 -1072.76l786.35 0 0 767.42 -786.35 0 0 -767.42z"/>
   <rect class="fil0" x="2747.04" y="3440.24" width="727.68" height="305.36"/>
   <rect class="fil0" x="4696.14" y="3440.24" width="727.68" height="305.36"/>
   <rect class="fil0" x="6645.24" y="3440.24" width="727.68" height="305.36"/>
  </g>
  <g id="_1024476944">
  </g>
  <g id="_1024449248">
  </g>
  <g id="_1024452032">
  </g>
  <g id="_1024472384">
  </g>
  <g id="_1024496288">
  </g>
  <g id="_1024489808">
  </g>
  <g id="_1024440896">
  </g>
  <g id="_1024475984">
  </g>
  <g id="_1024475072">
  </g>
  <g id="_1024455536">
  </g>
  <g id="_1024502480">
  </g>
  <g id="_1024481696">
  </g>
  <g id="_1024485872">
  </g>
  <g id="_1024488368">
  </g>
  <g id="_1024447136">
  </g>
 </g>
</svg>
