<?xml version="1.0" encoding="utf-8"?>
<!-- Generator: Adobe Illustrator 24.3.0, SVG Export Plug-In . SVG Version: 6.00 Build 0)  -->
<svg version="1.1" id="Capa_1" xmlns="http://www.w3.org/2000/svg" xmlns:xlink="http://www.w3.org/1999/xlink" x="0px" y="0px"
	 viewBox="0 0 406.6 406.6" style="enable-background:new 0 0 406.6 406.6;" xml:space="preserve">
<style type="text/css">
	.st0{fill:#FFFFFF;}
</style>
<g>
	<path class="st0" d="M394.4,273.5c0-4.5-3.6-8.1-8.1-8.1H94.4l22.4-17.9c2.3-1.8,3.4-4.7,3-7.6L91,50.7c-0.6-4-4-6.9-8-6.9H52.6
		c0.8,2.6,1.4,5.3,1.4,8.1c0,2.8-0.6,5.5-1.4,8.1H76l26.9,177.8l-36.8,29.4c-2.7,2.2-3.7,5.8-2.6,9c1.1,3.3,4.2,5.4,7.7,5.4h315.1
		C390.8,281.7,394.4,278,394.4,273.5z"/>
	<path class="st0" d="M404.6,72.1c-1.5-1.8-3.8-2.8-6.1-2.8H119.4c-4.5,0-8.1,3.6-8.1,8.1c0,4.5,3.6,8.1,8.1,8.1h269.7l-17.9,123.8
		H140.6c-4.5,0-8.1,3.6-8.1,8.1c0,4.5,3.6,8.1,8.1,8.1h237.6c4,0,7.5-3,8-7l20.3-140.1C406.9,76.3,406.2,73.9,404.6,72.1z"/>
	<path class="st0" d="M191.5,182.7v-73.8c0-4.5-3.6-8.1-8.1-8.1s-8.1,3.6-8.1,8.1v73.8c0,4.5,3.6,8.1,8.1,8.1
		S191.5,187.2,191.5,182.7z"/>
	<path class="st0" d="M139.5,190.8c4.5,0,8.1-3.6,8.1-8.1v-73.8c0-4.5-3.6-8.1-8.1-8.1c-4.5,0-8.1,3.6-8.1,8.1v73.8
		C131.4,187.2,135,190.8,139.5,190.8z"/>
	<path class="st0" d="M353.5,182.7v-73.8c0-4.5-3.6-8.1-8.1-8.1c-4.5,0-8.1,3.6-8.1,8.1v73.8c0,4.5,3.6,8.1,8.1,8.1
		S353.5,187.2,353.5,182.7z"/>
	<path class="st0" d="M309.6,182.7v-73.8c0-4.5-3.6-8.1-8.1-8.1c-4.5,0-8.1,3.6-8.1,8.1v73.8c0,4.5,3.6,8.1,8.1,8.1
		S309.6,187.2,309.6,182.7z"/>
	<path class="st0" d="M272.7,182.7v-73.8c0-4.5-3.6-8.1-8.1-8.1c-4.5,0-8.1,3.6-8.1,8.1v73.8c0,4.5,3.6,8.1,8.1,8.1
		C269.1,190.8,272.7,187.2,272.7,182.7z"/>
	<path class="st0" d="M228.9,182.7v-73.8c0-4.5-3.6-8.1-8.1-8.1c-4.5,0-8.1,3.6-8.1,8.1v73.8c0,4.5,3.6,8.1,8.1,8.1
		C225.2,190.8,228.9,187.2,228.9,182.7z"/>
	<path class="st0" d="M183.4,303.1c-21.7,0-39.3,17.6-39.3,39.3s17.6,39.3,39.3,39.3s39.3-17.6,39.3-39.3S205.1,303.1,183.4,303.1z
		 M183.4,365.5c-12.7,0-23.1-10.4-23.1-23.1c0-12.7,10.3-23.1,23.1-23.1c12.7,0,23.1,10.4,23.1,23.1
		C206.5,355.1,196.1,365.5,183.4,365.5z"/>
	<path class="st0" d="M345,342.4c0-21.7-17.6-39.3-39.3-39.3c-21.7,0-39.3,17.6-39.3,39.3s17.6,39.3,39.3,39.3
		C327.4,381.7,345,364.1,345,342.4z M305.7,365.5c-12.7,0-23.1-10.4-23.1-23.1c0-12.7,10.4-23.1,23.1-23.1
		c12.7,0,23.1,10.4,23.1,23.1C328.8,355.1,318.4,365.5,305.7,365.5z"/>
	<path class="st0" d="M37.7,51.9c0-4.5,3.6-8.1,8.1-8.1h6.7C49.1,32.8,39,24.9,27,24.9c-14.9,0-27,12.1-27,27c0,14.9,12.1,27,27,27
		c12,0,22.1-8,25.6-18.9h-6.7C41.4,60,37.7,56.4,37.7,51.9z M27,62.6c-5.9,0-10.7-4.8-10.7-10.7c0-5.9,4.8-10.7,10.7-10.7
		c5.9,0,10.7,4.8,10.7,10.7C37.7,57.8,32.9,62.6,27,62.6z"/>
	<path class="st0" d="M52.6,43.7h-6.7c-4.5,0-8.1,3.6-8.1,8.1s3.6,8.1,8.1,8.1h6.7c0.8-2.6,1.4-5.3,1.4-8.1
		C54,49,53.4,46.3,52.6,43.7z"/>
</g>
</svg>
