<?xml version="1.0" encoding="UTF-8"?>
<!DOCTYPE svg PUBLIC "-//W3C//DTD SVG 1.1//EN" "http://www.w3.org/Graphics/SVG/1.1/DTD/svg11.dtd">
<!-- Creator: CorelDRAW 2020 (64-Bit) -->
<svg xmlns="http://www.w3.org/2000/svg" xml:space="preserve" width="100mm" height="100mm" version="1.1" style="shape-rendering:geometricPrecision; text-rendering:geometricPrecision; image-rendering:optimizeQuality; fill-rule:evenodd; clip-rule:evenodd"
viewBox="0 0 10000 10000"
 xmlns:xlink="http://www.w3.org/1999/xlink"
 xmlns:xodm="http://www.corel.com/coreldraw/odm/2003">
 <defs>
  <style type="text/css">
   <![CDATA[
    .fil0 {fill:white;fill-rule:nonzero}
   ]]>
  </style>
 </defs>
 <g id="Слой_x0020_1">
  <metadata id="CorelCorpID_0Corel-Layer"/>
  <path class="fil0" d="M1151.27 6843.58c0,670.38 473.8,1231.86 1104.04,1367.74 -311.43,149.67 -526.9,468.13 -526.9,836.1 0,511.27 415.77,927.18 926.95,927.18 511.07,0 926.98,-415.91 926.98,-927.18 0,-343.92 -188.54,-644.52 -467.49,-804.48l3698.19 0c-278.96,159.96 -467.42,460.56 -467.42,804.48 0,511.27 415.84,927.18 926.91,927.18 511.14,0 927.05,-415.91 927.05,-927.18 0,-343.92 -188.53,-644.52 -467.49,-804.48l694.73 0c193.18,0 349.81,-156.72 349.81,-349.88 0,-193.05 -156.63,-349.83 -349.81,-349.83l-5876.4 0c-385.87,0 -699.61,-313.85 -699.61,-699.65l0 -520.47c205.96,119.45 444.84,188.23 699.61,188.23l4722.12 0c736.5,0 1471.74,-554.76 1673.95,-1262.87l866.04 -3031.5c30.24,-105.4 9.03,-219 -57.11,-306.65 -66.1,-87.71 -169.46,-139.25 -279.15,-139.25l-7625.46 -0.01 0 -332.24c0,-771.53 -627.59,-1399.39 -1399.19,-1399.39 -193.08,0 -349.8,156.72 -349.8,349.84 0,193.28 156.72,349.8 349.8,349.8 385.8,0 699.65,313.98 699.65,699.78l0 5404.73zm6121.3 2431.34c-125.28,0 -227.34,-102.03 -227.34,-227.5 0,-125.32 102.06,-227.38 227.34,-227.38 125.34,0 227.37,102.06 227.37,227.38 -0.04,125.47 -102.03,227.5 -227.37,227.5zm-4617.21 0c-125.35,0 -227.38,-102.03 -227.38,-227.5 0,-125.32 102.03,-227.38 227.38,-227.38 125.31,0 227.37,102.06 227.37,227.38 0,125.47 -102.06,227.5 -227.37,227.5zm5618.48 -4218.73c-114.94,402.49 -582.89,755.41 -1001.3,755.41l-4722.12 0c-385.87,0 -699.61,-313.84 -699.61,-699.65l0 -2641.15 7161.65 0 -738.62 2585.39z"/>
  <g id="_1989584515040">
  </g>
  <g id="_1989584512640">
  </g>
  <g id="_1989584510864">
  </g>
  <g id="_1989584511872">
  </g>
  <g id="_1989584509376">
  </g>
  <g id="_1989584509040">
  </g>
  <g id="_1989584509232">
  </g>
  <g id="_1989584508608">
  </g>
  <g id="_1989584536352">
  </g>
  <g id="_1989584536016">
  </g>
  <g id="_1989584535488">
  </g>
  <g id="_1989584535680">
  </g>
  <g id="_1989584531984">
  </g>
  <g id="_1989584532656">
  </g>
  <g id="_1989584531936">
  </g>
 </g>
</svg>
