<svg width="21" height="21" viewBox="0 0 21 21" fill="none" xmlns="http://www.w3.org/2000/svg">
<path d="M10.5 2.625C9.57174 2.625 8.6815 2.99375 8.02513 3.65013C7.36875 4.3065 7 5.19674 7 6.125C7 7.05326 7.36875 7.9435 8.02513 8.59987C8.6815 9.25625 9.57174 9.625 10.5 9.625C11.4283 9.625 12.3185 9.25625 12.9749 8.59987C13.6313 7.9435 14 7.05326 14 6.125C14 5.19674 13.6313 4.3065 12.9749 3.65013C12.3185 2.99375 11.4283 2.625 10.5 2.625ZM10.5 12.25C7.8715 12.25 2.625 13.5695 2.625 16.1875V18.375H9.1499L9.73438 14.875L9.29688 14L10.5 13.125L11.7031 14L11.2656 14.875L11.8501 18.375H14V16.625H16.625V18.375H18.375V16.1875C18.375 13.5695 13.1285 12.25 10.5 12.25Z" fill="black"/>
</svg>
