<svg width="17" height="17" viewBox="0 0 17 17" fill="none" xmlns="http://www.w3.org/2000/svg">
<path d="M2.83341 2.83334C2.36166 2.83334 1.94571 3.06502 1.68929 3.42132C1.51646 3.66073 1.59281 4.0001 1.84285 4.15593L8.06291 8.0324C8.33066 8.19956 8.66951 8.19956 8.93726 8.0324L15.131 4.12273C15.391 3.9584 15.4558 3.60124 15.2638 3.36183C15.0053 3.04024 14.6109 2.83334 14.1667 2.83334H2.83341ZM15.2403 5.72755C15.1811 5.7282 15.1209 5.74453 15.0646 5.78012L8.93726 9.64413C8.66951 9.81059 8.33066 9.80992 8.06291 9.64275L1.93416 5.82439C1.70891 5.68414 1.41675 5.84653 1.41675 6.11215V12.75C1.41675 13.5327 2.05071 14.1667 2.83341 14.1667H14.1667C14.9495 14.1667 15.5834 13.5327 15.5834 12.75V6.0665C15.5834 5.86675 15.418 5.72559 15.2403 5.72755Z" fill="#111111"/>
</svg>
