<svg width="30" height="30" viewBox="0 0 30 30" fill="none" xmlns="http://www.w3.org/2000/svg">
<path d="M24.3751 26.7188C27.5392 22.7109 27.3283 15.8438 27.0001 12.4219C26.9064 11.4844 25.8283 11.0391 25.1017 11.625L21.5861 14.4375C21.1642 14.7891 20.5548 14.7891 20.1329 14.4375L15.7267 10.9219C15.3048 10.5703 14.6954 10.5703 14.2736 10.9219L9.86732 14.4375C9.44545 14.7891 8.83607 14.7891 8.4142 14.4375L4.78138 11.5078C4.07826 10.9453 3.04701 11.3438 2.88295 12.2344C2.32045 15.5391 1.75795 22.4297 5.62513 26.7188H24.3751Z" fill="#C0C0C0"/>
<path d="M5.48495 20.2735C5.13339 20.2735 4.85214 20.0156 4.78183 19.6641C4.59433 18.3985 4.54745 16.9922 4.61777 15.5156C4.6412 15.1172 4.96933 14.836 5.36777 14.8594C5.7662 14.8828 6.04745 15.211 6.02402 15.6094C5.9537 16.9922 6.00058 18.3047 6.16464 19.4766C6.21152 19.8516 5.9537 20.2266 5.5787 20.2735C5.55527 20.2735 5.53183 20.2735 5.48495 20.2735Z" fill="white"/>
<path d="M7.00827 24.6093C6.7739 24.6093 6.56296 24.4922 6.42234 24.2812C6.2114 23.9531 6.00046 23.5781 5.81296 23.2031C5.6489 22.8515 5.78952 22.4297 6.14109 22.2656C6.49265 22.1015 6.91452 22.2422 7.07859 22.5937C7.24265 22.9218 7.40671 23.2265 7.59421 23.5078C7.80515 23.8359 7.7114 24.2578 7.38327 24.4687C7.26609 24.5625 7.12546 24.6093 7.00827 24.6093Z" fill="white"/>
<path d="M10.5629 17.4V23H9.26694V18.44H8.14694V17.4H10.5629ZM14.0558 23.096C13.5918 23.096 13.1784 22.9813 12.8158 22.752C12.4531 22.5227 12.1678 22.192 11.9598 21.76C11.7571 21.3227 11.6558 20.8027 11.6558 20.2C11.6558 19.5973 11.7571 19.08 11.9598 18.648C12.1678 18.2107 12.4531 17.8773 12.8158 17.648C13.1784 17.4187 13.5918 17.304 14.0558 17.304C14.5198 17.304 14.9331 17.4187 15.2958 17.648C15.6584 17.8773 15.9411 18.2107 16.1438 18.648C16.3518 19.08 16.4558 19.5973 16.4558 20.2C16.4558 20.8027 16.3518 21.3227 16.1438 21.76C15.9411 22.192 15.6584 22.5227 15.2958 22.752C14.9331 22.9813 14.5198 23.096 14.0558 23.096ZM14.0558 22C14.3971 22 14.6638 21.8533 14.8558 21.56C15.0531 21.2667 15.1518 20.8133 15.1518 20.2C15.1518 19.5867 15.0531 19.1333 14.8558 18.84C14.6638 18.5467 14.3971 18.4 14.0558 18.4C13.7198 18.4 13.4531 18.5467 13.2558 18.84C13.0638 19.1333 12.9678 19.5867 12.9678 20.2C12.9678 20.8133 13.0638 21.2667 13.2558 21.56C13.4531 21.8533 13.7198 22 14.0558 22ZM18.5014 20.424C18.0908 20.424 17.7548 20.2853 17.4934 20.008C17.2374 19.7253 17.1094 19.3493 17.1094 18.88C17.1094 18.4107 17.2374 18.0373 17.4934 17.76C17.7548 17.4773 18.0908 17.336 18.5014 17.336C18.9121 17.336 19.2454 17.4773 19.5014 17.76C19.7574 18.0373 19.8854 18.4107 19.8854 18.88C19.8854 19.3493 19.7574 19.7253 19.5014 20.008C19.2454 20.2853 18.9121 20.424 18.5014 20.424ZM21.8374 17.4H22.7894L18.9654 23H18.0134L21.8374 17.4ZM18.5014 19.768C18.6828 19.768 18.8241 19.6933 18.9254 19.544C19.0321 19.3947 19.0854 19.1733 19.0854 18.88C19.0854 18.5867 19.0321 18.3653 18.9254 18.216C18.8241 18.0667 18.6828 17.992 18.5014 17.992C18.3254 17.992 18.1841 18.0693 18.0774 18.224C17.9708 18.3733 17.9174 18.592 17.9174 18.88C17.9174 19.168 17.9708 19.3893 18.0774 19.544C18.1841 19.6933 18.3254 19.768 18.5014 19.768ZM22.3014 23.064C22.0348 23.064 21.7948 23.0027 21.5814 22.88C21.3734 22.752 21.2108 22.5707 21.0934 22.336C20.9761 22.1013 20.9174 21.8293 20.9174 21.52C20.9174 21.2107 20.9761 20.9387 21.0934 20.704C21.2108 20.4693 21.3734 20.2907 21.5814 20.168C21.7948 20.04 22.0348 19.976 22.3014 19.976C22.7121 19.976 23.0454 20.1173 23.3014 20.4C23.5628 20.6773 23.6934 21.0507 23.6934 21.52C23.6934 21.9893 23.5628 22.3653 23.3014 22.648C23.0454 22.9253 22.7121 23.064 22.3014 23.064ZM22.3014 22.408C22.4828 22.408 22.6241 22.3333 22.7254 22.184C22.8321 22.0293 22.8854 21.808 22.8854 21.52C22.8854 21.232 22.8321 21.0133 22.7254 20.864C22.6241 20.7093 22.4828 20.632 22.3014 20.632C22.1254 20.632 21.9841 20.7067 21.8774 20.856C21.7708 21.0053 21.7174 21.2267 21.7174 21.52C21.7174 21.8133 21.7708 22.0347 21.8774 22.184C21.9841 22.3333 22.1254 22.408 22.3014 22.408Z" fill="white"/>
</svg>
