<svg width="34" height="34" viewBox="0 0 34 34" fill="none" xmlns="http://www.w3.org/2000/svg">
<path d="M27.6248 30.2812C31.2107 25.7391 30.9717 17.9562 30.5998 14.0781C30.4935 13.0156 29.2717 12.5109 28.4482 13.175L24.4638 16.3625C23.9857 16.7609 23.2951 16.7609 22.817 16.3625L17.8232 12.3781C17.3451 11.9797 16.6545 11.9797 16.1763 12.3781L11.1826 16.3625C10.7045 16.7609 10.0138 16.7609 9.53572 16.3625L5.41853 13.0422C4.62165 12.4047 3.4529 12.8562 3.26697 13.8656C2.62947 17.6109 1.99197 25.4203 6.37478 30.2812H27.6248Z" fill="#CD7F32"/>
<path d="M6.21604 22.9765C5.81761 22.9765 5.49886 22.6843 5.41917 22.2859C5.20667 20.8515 5.15354 19.2578 5.23323 17.5843C5.25979 17.1328 5.63167 16.814 6.08323 16.8406C6.53479 16.8672 6.85354 17.239 6.82698 17.6906C6.74729 19.2578 6.80042 20.7453 6.98636 22.0734C7.03948 22.4984 6.74729 22.9234 6.32229 22.9765C6.29573 22.9765 6.26917 22.9765 6.21604 22.9765Z" fill="white"/>
<path d="M7.94225 27.8907C7.67662 27.8907 7.43756 27.7578 7.27818 27.5188C7.03912 27.1469 6.80006 26.7219 6.58756 26.2969C6.40162 25.8985 6.561 25.4203 6.95943 25.2344C7.35787 25.0485 7.836 25.2078 8.02193 25.6063C8.20787 25.9782 8.39381 26.3235 8.60631 26.6422C8.84537 27.0141 8.73912 27.4922 8.36725 27.7313C8.23443 27.8375 8.07506 27.8907 7.94225 27.8907Z" fill="white"/>
<path d="M13.3373 21.1727C14.2253 21.1727 14.8793 21.3497 15.2993 21.7037C15.7253 22.0577 15.9383 22.5317 15.9383 23.1257C15.9383 23.5097 15.8423 23.8607 15.6503 24.1787C15.4583 24.4907 15.1643 24.7427 14.7683 24.9347C14.3783 25.1207 13.8953 25.2137 13.3193 25.2137C12.8753 25.2137 12.4373 25.1567 12.0053 25.0427C11.5793 24.9227 11.2163 24.7547 10.9163 24.5387L11.4923 23.4227C11.7323 23.6027 12.0083 23.7437 12.3203 23.8457C12.6323 23.9417 12.9533 23.9897 13.2833 23.9897C13.6493 23.9897 13.9373 23.9177 14.1473 23.7737C14.3573 23.6297 14.4623 23.4287 14.4623 23.1707C14.4623 22.9007 14.3513 22.6967 14.1293 22.5587C13.9133 22.4207 13.5353 22.3517 12.9953 22.3517H11.3843L11.7083 18.8057H15.5513V19.9757H12.9233L12.8243 21.1727H13.3373ZM18.0349 22.2077C17.5729 22.2077 17.1949 22.0517 16.9009 21.7397C16.6129 21.4217 16.4689 20.9987 16.4689 20.4707C16.4689 19.9427 16.6129 19.5227 16.9009 19.2107C17.1949 18.8927 17.5729 18.7337 18.0349 18.7337C18.4969 18.7337 18.8719 18.8927 19.1599 19.2107C19.4479 19.5227 19.5919 19.9427 19.5919 20.4707C19.5919 20.9987 19.4479 21.4217 19.1599 21.7397C18.8719 22.0517 18.4969 22.2077 18.0349 22.2077ZM21.7879 18.8057H22.8589L18.5569 25.1057H17.4859L21.7879 18.8057ZM18.0349 21.4697C18.2389 21.4697 18.3979 21.3857 18.5119 21.2177C18.6319 21.0497 18.6919 20.8007 18.6919 20.4707C18.6919 20.1407 18.6319 19.8917 18.5119 19.7237C18.3979 19.5557 18.2389 19.4717 18.0349 19.4717C17.8369 19.4717 17.6779 19.5587 17.5579 19.7327C17.4379 19.9007 17.3779 20.1467 17.3779 20.4707C17.3779 20.7947 17.4379 21.0437 17.5579 21.2177C17.6779 21.3857 17.8369 21.4697 18.0349 21.4697ZM22.3099 25.1777C22.0099 25.1777 21.7399 25.1087 21.4999 24.9707C21.2659 24.8267 21.0829 24.6227 20.9509 24.3587C20.8189 24.0947 20.7529 23.7887 20.7529 23.4407C20.7529 23.0927 20.8189 22.7867 20.9509 22.5227C21.0829 22.2587 21.2659 22.0577 21.4999 21.9197C21.7399 21.7757 22.0099 21.7037 22.3099 21.7037C22.7719 21.7037 23.1469 21.8627 23.4349 22.1807C23.7289 22.4927 23.8759 22.9127 23.8759 23.4407C23.8759 23.9687 23.7289 24.3917 23.4349 24.7097C23.1469 25.0217 22.7719 25.1777 22.3099 25.1777ZM22.3099 24.4397C22.5139 24.4397 22.6729 24.3557 22.7869 24.1877C22.9069 24.0137 22.9669 23.7647 22.9669 23.4407C22.9669 23.1167 22.9069 22.8707 22.7869 22.7027C22.6729 22.5287 22.5139 22.4417 22.3099 22.4417C22.1119 22.4417 21.9529 22.5257 21.8329 22.6937C21.7129 22.8617 21.6529 23.1107 21.6529 23.4407C21.6529 23.7707 21.7129 24.0197 21.8329 24.1877C21.9529 24.3557 22.1119 24.4397 22.3099 24.4397Z" fill="white"/>
</svg>
