<svg width="32" height="30" viewBox="0 0 32 30" fill="none" xmlns="http://www.w3.org/2000/svg">
<path d="M26.0001 26.7188C29.3751 22.7109 29.1501 15.8438 28.8001 12.4219C28.7001 11.4844 27.5501 11.0391 26.7751 11.625L23.0251 14.4375C22.5751 14.7891 21.9251 14.7891 21.4751 14.4375L16.7751 10.9219C16.3251 10.5703 15.6751 10.5703 15.2251 10.9219L10.5251 14.4375C10.0751 14.7891 9.42511 14.7891 8.97511 14.4375L5.10011 11.5078C4.35011 10.9453 3.25011 11.3438 3.07511 12.2344C2.47511 15.5391 1.87511 22.4297 6.00011 26.7188H26.0001Z" fill="#FFD700"/>
<path d="M5.85065 20.2735C5.47565 20.2735 5.17565 20.0156 5.10065 19.6641C4.90065 18.3985 4.85065 16.9922 4.92565 15.5156C4.95065 15.1172 5.30065 14.836 5.72565 14.8594C6.15065 14.8828 6.45065 15.211 6.42565 15.6094C6.35065 16.9922 6.40065 18.3047 6.57565 19.4766C6.62565 19.8516 6.35065 20.2266 5.95065 20.2735C5.92565 20.2735 5.90065 20.2735 5.85065 20.2735Z" fill="white"/>
<path d="M7.47547 24.6094C7.22547 24.6094 7.00047 24.4922 6.85047 24.2813C6.62547 23.9532 6.40047 23.5782 6.20047 23.2032C6.02547 22.8516 6.17547 22.4297 6.55047 22.2657C6.92547 22.1016 7.37547 22.2422 7.55047 22.5938C7.72547 22.9219 7.90047 23.2266 8.10047 23.5078C8.32547 23.836 8.22547 24.2578 7.87547 24.4688C7.75047 24.5625 7.60047 24.6094 7.47547 24.6094Z" fill="white"/>
<path d="M11.6803 17.0169V22.6169H10.3843V18.0569H9.26426V17.0169H11.6803ZM14.6931 19.1209C15.4824 19.1209 16.0637 19.2782 16.4371 19.5929C16.8157 19.9075 17.0051 20.3289 17.0051 20.8569C17.0051 21.1982 16.9197 21.5102 16.7491 21.7929C16.5784 22.0702 16.3171 22.2942 15.9651 22.4649C15.6184 22.6302 15.1891 22.7129 14.6771 22.7129C14.2824 22.7129 13.8931 22.6622 13.5091 22.5609C13.1304 22.4542 12.8077 22.3049 12.5411 22.1129L13.0531 21.1209C13.2664 21.2809 13.5117 21.4062 13.7891 21.4969C14.0664 21.5822 14.3517 21.6249 14.6451 21.6249C14.9704 21.6249 15.2264 21.5609 15.4131 21.4329C15.5997 21.3049 15.6931 21.1262 15.6931 20.8969C15.6931 20.6569 15.5944 20.4755 15.3971 20.3529C15.2051 20.2302 14.8691 20.1689 14.3891 20.1689H12.9571L13.2451 17.0169H16.6611V18.0569H14.3251L14.2371 19.1209H14.6931ZM18.8688 20.0409C18.4581 20.0409 18.1221 19.9022 17.8608 19.6249C17.6048 19.3422 17.4768 18.9662 17.4768 18.4969C17.4768 18.0275 17.6048 17.6542 17.8608 17.3769C18.1221 17.0942 18.4581 16.9529 18.8688 16.9529C19.2794 16.9529 19.6128 17.0942 19.8688 17.3769C20.1248 17.6542 20.2528 18.0275 20.2528 18.4969C20.2528 18.9662 20.1248 19.3422 19.8688 19.6249C19.6128 19.9022 19.2794 20.0409 18.8688 20.0409ZM22.2048 17.0169H23.1568L19.3328 22.6169H18.3808L22.2048 17.0169ZM18.8688 19.3849C19.0501 19.3849 19.1914 19.3102 19.2928 19.1609C19.3994 19.0115 19.4528 18.7902 19.4528 18.4969C19.4528 18.2035 19.3994 17.9822 19.2928 17.8329C19.1914 17.6835 19.0501 17.6089 18.8688 17.6089C18.6928 17.6089 18.5514 17.6862 18.4448 17.8409C18.3381 17.9902 18.2848 18.2089 18.2848 18.4969C18.2848 18.7849 18.3381 19.0062 18.4448 19.1609C18.5514 19.3102 18.6928 19.3849 18.8688 19.3849ZM22.6688 22.6809C22.4021 22.6809 22.1621 22.6195 21.9488 22.4969C21.7408 22.3689 21.5781 22.1875 21.4608 21.9529C21.3434 21.7182 21.2848 21.4462 21.2848 21.1369C21.2848 20.8275 21.3434 20.5555 21.4608 20.3209C21.5781 20.0862 21.7408 19.9075 21.9488 19.7849C22.1621 19.6569 22.4021 19.5929 22.6688 19.5929C23.0794 19.5929 23.4128 19.7342 23.6688 20.0169C23.9301 20.2942 24.0608 20.6675 24.0608 21.1369C24.0608 21.6062 23.9301 21.9822 23.6688 22.2649C23.4128 22.5422 23.0794 22.6809 22.6688 22.6809ZM22.6688 22.0249C22.8501 22.0249 22.9914 21.9502 23.0928 21.8009C23.1994 21.6462 23.2528 21.4249 23.2528 21.1369C23.2528 20.8489 23.1994 20.6302 23.0928 20.4809C22.9914 20.3262 22.8501 20.2489 22.6688 20.2489C22.4928 20.2489 22.3514 20.3235 22.2448 20.4729C22.1381 20.6222 22.0848 20.8435 22.0848 21.1369C22.0848 21.4302 22.1381 21.6515 22.2448 21.8009C22.3514 21.9502 22.4928 22.0249 22.6688 22.0249Z" fill="white"/>
</svg>
