<svg width="44" height="15" viewBox="0 0 44 15" fill="none" xmlns="http://www.w3.org/2000/svg">
<g clip-path="url(#clip0)">
<path d="M16.5656 0.537855L10.8446 14.5261H7.08746L4.26963 3.3531C4.09885 2.64929 3.92807 2.38536 3.41574 2.12143C2.56185 1.68155 1.19563 1.24167 -0.0852051 0.889761L0.000183828 0.449879H5.97741C6.8313 0.537855 7.51441 1.06571 7.68519 1.94548L9.1368 10.0393L12.8085 0.537855H16.5656ZM21.6036 0.537855L18.7004 14.5261H15.1994L18.1026 0.537855H21.6036ZM31.0817 9.95133C31.0817 6.25632 26.1292 6.08037 26.1292 4.40882C26.1292 3.88096 26.6415 3.3531 27.5808 3.26512C28.0931 3.17715 29.4594 3.17715 31.0817 3.88096L31.6795 0.889761C30.8256 0.537855 29.7155 0.273926 28.3493 0.273926C24.8484 0.273926 22.4575 2.20941 22.3721 4.93668C22.3721 6.96013 24.0799 8.10383 25.4461 8.71966C26.8123 9.42347 27.2392 9.86336 27.2392 10.4792C27.2392 11.4469 26.1292 11.7988 25.1045 11.8868C23.3114 11.8868 22.2867 11.359 21.5182 11.007L20.9205 14.0862C21.7744 14.4381 23.226 14.79 24.8484 14.79C28.6909 14.79 31.0817 12.8546 31.0817 9.95133ZM40.3037 14.5261H43.5485L40.7307 0.537855H37.7421C37.059 0.537855 36.4612 0.977737 36.2051 1.59357L30.911 14.6141H34.5827L35.3512 12.5026H39.8768L40.3037 14.5261ZM36.3759 9.59943L38.2544 4.32084L39.2791 9.59943H36.3759Z" fill="#F0F0F0"/>
</g>
<defs>
<clipPath id="clip0">
<rect width="43.5483" height="14.5161" fill="white" transform="translate(0 0.273926)"/>
</clipPath>
</defs>
</svg>
