<svg width="48" height="15" viewBox="0 0 48 15" fill="none" xmlns="http://www.w3.org/2000/svg">
<g clip-path="url(#clip0)">
<path d="M26.6881 1.796L23.6161 8.54778H23.3281V0.306641H19.0081V14.3066H22.6561C23.6161 14.3066 24.4801 13.7109 24.8641 12.8173L27.9361 6.06551H28.2241V14.3066H32.6401V0.306641H28.9921C28.0321 0.306641 27.1681 0.902385 26.6881 1.796Z" fill="#F0F0F0"/>
<path d="M10.56 2.19317L8.736 8.54778H8.448L6.624 2.19317C6.336 1.10097 5.376 0.306641 4.32 0.306641H0V14.3066H4.32V6.06551H4.608L7.104 14.3066H10.176L12.672 6.06551H12.96V14.3066H17.28V0.306641H12.96C11.808 0.306641 10.848 1.10097 10.56 2.19317Z" fill="#F0F0F0"/>
<path d="M34.464 6.66138V14.3068H38.784V9.83868H43.392C45.408 9.83868 47.136 8.5479 47.712 6.66138H34.464Z" fill="#F0F0F0"/>
<path d="M43.3919 0.306641H33.8879C34.4639 3.58324 37.2479 6.06551 40.5119 6.06551H47.9039C47.9999 5.76763 47.9999 5.37047 47.9999 5.0726C47.9999 2.49104 45.8879 0.306641 43.3919 0.306641Z" fill="#F0F0F0"/>
</g>
<defs>
<clipPath id="clip0">
<rect width="48" height="14" fill="white" transform="translate(0 0.306641)"/>
</clipPath>
</defs>
</svg>
