<svg width="72" height="78" viewBox="0 0 72 78" fill="none" xmlns="http://www.w3.org/2000/svg">
<path fill-rule="evenodd" clip-rule="evenodd" d="M35.7985 9.08968C42.145 9.08808 48.324 11.1268 53.4233 14.9051L45.3056 16.0563C43.6613 16.1713 42.4217 17.5976 42.5368 19.2418C42.6519 20.8861 44.0781 22.1257 45.7224 22.0106H46.1392L60.0326 20.0258C60.8145 19.9129 61.5193 19.4939 61.9921 18.861C62.4649 18.2282 62.6668 17.4334 62.5533 16.6517L60.5685 2.75823C60.3383 1.11398 58.8188 -0.0323303 57.1746 0.197864C55.5303 0.428058 54.384 1.94759 54.6142 3.59184L55.4081 9.10952C42.7034 0.724121 26.0808 1.30997 13.998 10.569C1.91516 19.828 -2.97364 35.7263 1.81908 50.1746L6.64209 45.3516C4.66832 36.5156 6.82257 27.2616 12.4958 20.2057C18.1691 13.1499 26.7448 9.05902 35.7985 9.08968Z" fill="#552FEC"/>
<path fill-rule="evenodd" clip-rule="evenodd" d="M69.6789 27.5879L64.8559 32.4109C67.5238 44.5739 62.3403 57.1123 51.8625 63.8407C41.3848 70.5692 27.8264 70.066 17.8762 62.5796L24.3267 61.6666C25.9709 61.4364 27.1173 59.9168 26.8871 58.2726C26.6569 56.6283 25.1373 55.482 23.4931 55.7122L9.59964 57.697C8.81782 57.8099 8.11294 58.2289 7.64018 58.8618C7.16741 59.4946 6.96553 60.2894 7.07897 61.0711L9.06375 74.9646C9.27084 76.4293 10.5219 77.5198 12.0012 77.5249H12.418C13.1998 77.412 13.9047 76.993 14.3775 76.3602C14.8502 75.7273 15.0521 74.9326 14.9387 74.1508L13.9265 67.0056C26.3478 76.5966 43.5738 76.9586 56.3871 67.898C69.2005 58.8375 74.6009 42.476 69.6988 27.5681L69.6789 27.5879Z" fill="#7856FF" fill-opacity="0.7"/>
</svg>
