<?xml version="1.0" encoding="UTF-8"?>
<!DOCTYPE svg PUBLIC "-//W3C//DTD SVG 1.1//EN" "http://www.w3.org/Graphics/SVG/1.1/DTD/svg11.dtd">
<!-- Creator: CorelDRAW 2020 (64-Bit) -->
<svg xmlns="http://www.w3.org/2000/svg" xml:space="preserve" width="338.667mm" height="101.6mm" version="1.1" style="shape-rendering:geometricPrecision; text-rendering:geometricPrecision; image-rendering:optimizeQuality; fill-rule:evenodd; clip-rule:evenodd"
viewBox="0 0 33866.66 10160"
 xmlns:xlink="http://www.w3.org/1999/xlink"
 xmlns:xodm="http://www.corel.com/coreldraw/odm/2003">
 <defs>
  <style type="text/css">
   <![CDATA[
    .str0 {stroke:white;stroke-width:1058.33;stroke-miterlimit:22.9256;stroke-opacity:0.200000}
    .str1 {stroke:white;stroke-width:105.83;stroke-linecap:round;stroke-linejoin:round;stroke-miterlimit:22.9256}
    .fil4 {fill:none;fill-rule:nonzero}
    .fil1 {fill:none;fill-rule:nonzero}
    .fil2 {fill:#4F36E3}
    .fil0 {fill:black;fill-rule:nonzero}
    .fil8 {fill:#383334;fill-rule:nonzero}
    .fil7 {fill:#5A5354;fill-rule:nonzero}
    .fil6 {fill:#808385;fill-rule:nonzero}
    .fil9 {fill:#84511E;fill-rule:nonzero}
    .fil14 {fill:#8A8C8E;fill-rule:nonzero}
    .fil15 {fill:#939598;fill-rule:nonzero}
    .fil5 {fill:#A7A9AC;fill-rule:nonzero}
    .fil13 {fill:#D1D3D4;fill-rule:nonzero}
    .fil11 {fill:#E6E7E8;fill-rule:nonzero}
    .fil10 {fill:#F7941E;fill-rule:nonzero}
    .fil3 {fill:white;fill-rule:nonzero}
    .fil12 {fill:white;fill-rule:nonzero;fill-opacity:0.200000}
   ]]>
  </style>
   <clipPath id="id0" style="clip-rule:nonzero">
    <path d="M3783.13 8881.04l10497.94 0 0 -8914.9 -10497.94 0 0 8914.9z"/>
   </clipPath>
 </defs>
 <g id="Слой_x0020_1">
  <metadata id="CorelCorpID_0Corel-Layer"/>
  <path class="fil0" d="M311.59 -33.87l33243.48 0c153.36,0.01 277.72,124.37 277.72,277.73l0.01 8109.52c-0.01,153.34 -124.37,277.71 -277.73,277.71l-33243.48 0.01c-153.34,-0.01 -277.71,-124.38 -277.71,-277.73l-0.02 -8109.51c0.02,-153.36 124.39,-277.72 277.74,-277.72z"/>
  <g id="_926158608" filter="url(#filter0_i)">
   <path class="fil1 str0" d="M17530.43 -33.87c0,1794.57 -1454.79,3249.37 -3249.36,3249.37 -1794.56,0 -3249.37,-1454.8 -3249.37,-3249.37"/>
  </g>
  <g id="_926172528" filter="url(#filter1_i)">
   <path class="fil1 str0" d="M3477.64 8631.1c0,-1794.56 -1513.6,-3346.56 -3429.89,-3263.25"/>
  </g>
  <g id="_926152320" filter="url(#filter2_i)">
   <path class="fil2" d="M10843.19 8631.1l-3094.51 0c-1683.45,-627.59 -2882.43,-2249.78 -2882.43,-4151.96 0,-2446.43 1983.25,-4429.69 4429.69,-4429.69 2446.44,0 4429.68,1983.26 4429.68,4429.69 0,1902.18 -1198.99,3524.37 -2882.43,4151.96z"/>
  </g>
  <path class="fil3" d="M17656.08 4937.39l233.28 0 0 -533.23 543.24 0 0 -191.64 -543.24 0 0 -333.27 643.22 0 0 -191.62 -876.5 0 0 1249.76zm1379.22 -849.84c-236.61,0 -428.24,178.29 -428.24,433.25 0,254.95 191.63,433.24 428.24,433.24 239.95,0 428.25,-178.29 428.25,-433.24 0,-254.96 -189.95,-433.25 -428.25,-433.25zm1.67 139.97c118.31,0 184.96,94.98 184.96,293.28 0,184.96 -66.65,289.94 -184.96,289.94 -118.31,0 -188.3,-104.98 -188.3,-289.94 0,-198.3 69.99,-293.28 188.3,-293.28zm825.7 709.87l0 -381.6c0,-188.3 84.99,-251.61 223.29,-251.61 13.33,0 28.33,0 43.32,1.66l0 -213.3c-24.99,-3.32 -44.99,-4.99 -63.31,-4.99 -70,0 -103.32,21.66 -138.31,63.32l-64.99 231.62 0 -278.27 -216.62 0 0 833.17 216.62 0zm1008.91 0l0 -466.58c0,-64.99 43.33,-199.96 178.31,-199.96 96.64,0 138.3,84.98 138.3,159.97l0 506.57 216.62 0 0 -588.22c0,-174.97 -119.98,-261.62 -249.94,-261.62 -164.97,0 -251.62,104.97 -283.29,289.95l0 -273.28 -216.62 0 0 833.17 216.62 0zm1539.85 -326.61l-219.96 0c-11.67,103.31 -54.99,189.96 -174.97,189.96 -123.31,0 -186.63,-101.65 -186.63,-269.94l0 -8.33 581.56 0c-6.67,-264.95 -139.98,-434.92 -404.93,-434.92 -239.95,0 -418.25,173.3 -418.25,439.91 0,238.29 143.31,426.58 426.58,426.58 259.95,0 389.93,-199.96 396.6,-343.26zm-403.26 -369.93c113.31,0 166.63,96.65 166.63,193.3l-338.26 0c16.66,-123.31 71.65,-193.3 171.63,-193.3zm806.86 696.54l139.98 0 194.96 -436.59 206.63 436.59 133.3 0 338.27 -833.17 -211.62 0 -184.97 524.89 -228.29 -524.89 -83.31 0 -204.97 526.56 -206.62 -526.56 -231.62 0 338.26 833.17zm1771.52 -688.2c73.32,0 134.98,29.98 176.64,109.97l148.29 -74.98c-61.64,-144.98 -191.62,-196.63 -333.26,-196.63 -169.97,0 -304.94,88.32 -304.94,254.95 0,156.63 89.99,228.29 284.94,268.28 134.98,28.32 174.97,54.99 174.97,104.98 0,44.99 -35,73.32 -123.31,73.32 -93.31,0 -168.3,-35 -211.63,-114.98l-148.3 83.32c61.65,131.64 179.97,196.62 354.93,196.62 231.63,0 323.27,-124.97 323.27,-269.94 0,-138.31 -71.65,-214.96 -284.94,-259.95 -133.31,-28.33 -174.97,-51.66 -174.97,-96.65 0,-46.66 39.99,-78.31 118.31,-78.31zm1047.41 -144.97l0 466.57c0,64.99 -43.32,199.96 -178.3,199.96 -96.65,0 -138.3,-84.99 -138.3,-159.97l0 -506.56 -216.63 0 0 588.21c0,174.97 119.97,261.61 249.95,261.61 164.97,0 251.62,-104.97 283.28,-289.93l0 273.28 216.63 0 0 -833.17 -216.63 0zm933.26 849.82c171.63,0 339.94,-136.63 339.94,-428.25 0,-301.6 -168.31,-438.24 -339.94,-438.24 -164.96,0 -251.61,94.98 -283.28,258.28l0 -241.61 -216.62 0 0 1249.75 216.62 0 0 -654.88c31.67,159.97 118.32,254.95 283.28,254.95zm99.98 -428.25c0,181.64 -84.98,279.95 -194.96,279.95 -109.98,0 -181.64,-98.31 -181.64,-279.95 0,-188.29 71.66,-286.61 181.64,-286.61 109.98,0 194.96,98.32 194.96,286.61zm931.74 428.25c171.63,0 340.01,-136.63 340.01,-428.25 0,-301.6 -168.38,-438.24 -340.01,-438.24 -164.97,0 -251.62,94.98 -283.29,258.28l0 -241.61 -216.62 0 0 1249.75 216.62 0 0 -654.88c31.67,159.97 118.32,254.95 283.29,254.95zm99.98 -428.25c0,181.64 -84.98,279.95 -194.97,279.95 -109.97,0 -181.63,-98.31 -181.63,-279.95 0,-188.29 71.66,-286.61 181.63,-286.61 109.99,0 194.97,98.32 194.97,286.61zm648.56 411.6l0 -1249.76 -216.63 0 0 1249.76 216.63 0zm432.69 -1033.13l0 -216.63 -216.61 0 0 216.63 216.61 0zm0 1033.13l0 -833.17 -216.61 0 0 833.17 216.61 0zm1006.2 -326.61l-219.96 0c-11.67,103.31 -54.99,189.96 -174.96,189.96 -123.32,0 -186.63,-101.65 -186.63,-269.94l0 -8.33 581.55 0c-6.66,-264.95 -139.97,-434.92 -404.93,-434.92 -239.95,0 -418.25,173.3 -418.25,439.91 0,238.29 143.31,426.58 426.59,426.58 259.95,0 389.93,-199.96 396.59,-343.26zm-403.26 -369.93c113.31,0 166.64,96.65 166.64,193.3l-338.27 0c16.66,-123.31 71.65,-193.3 171.63,-193.3zm803.18 696.54l0 -381.6c0,-188.3 84.98,-251.61 223.29,-251.61 13.33,0 28.33,0 43.33,1.66l0 -213.3c-25.01,-3.32 -45,-4.99 -63.33,-4.99 -69.98,0 -103.31,21.66 -138.3,63.32l-64.99 231.62 0 -278.27 -216.63 0 0 833.17 216.63 0zm704.31 -688.2c73.31,0 134.97,29.98 176.62,109.97l148.31 -74.98c-61.66,-144.98 -191.63,-196.63 -333.27,-196.63 -169.96,0 -304.94,88.32 -304.94,254.95 0,156.63 89.98,228.29 284.94,268.28 134.98,28.32 174.97,54.99 174.97,104.98 0,44.99 -34.99,73.32 -123.31,73.32 -93.32,0 -168.29,-35 -211.62,-114.98l-148.31 83.32c61.66,131.64 179.96,196.62 354.93,196.62 231.62,0 323.28,-124.97 323.28,-269.94 0,-138.31 -71.66,-214.96 -284.95,-259.95 -133.31,-28.33 -174.96,-51.66 -174.96,-96.65 0,-46.66 39.99,-78.31 118.31,-78.31z"/>
  <line class="fil4 str1" x1="999.78" y1="2684.88" x2="1227.83" y2= "3140.98" />
  <line class="fil4 str1" x1="1353.05" y1="2854.46" x2="936.71" y2= "3019.57" />
  <line class="fil4 str1" x1="15855.29" y1="7128.45" x2="16083.32" y2= "7584.55" />
  <line class="fil4 str1" x1="16208.56" y1="7298.03" x2="15792.22" y2= "7463.14" />
  <line class="fil4 str1" x1="32407.52" y1="1101.87" x2="32635.53" y2= "1557.97" />
  <line class="fil4 str1" x1="32760.78" y1="1271.44" x2="32344.47" y2= "1436.54" />
  <g>
  </g>
  <g style="clip-path:url(#id0)">
   <g>
    <path class="fil5" d="M4930.82 2576.67l-2.33 28.2 43.74 5.25 1577.19 -544.25 -1293.22 579.33 100.7 12.27 1749.3 -784.12c6.56,-2.42 12.02,-7.17 15.36,-13.31 3.33,-6.16 4.28,-13.33 2.72,-20.14 -3.61,-6.52 -9.36,-11.6 -16.28,-14.41 -6.91,-2.8 -14.55,-3.14 -21.68,-0.97l-2171.94 749.99 16.44 2.16z"/>
    <path class="fil5" d="M7366.68 -33.87l-110.62 1256.84 8.67 0c16.8,1.52 32.99,7.1 47.18,16.25l112.06 -1273.8 -57.29 0.71z"/>
    <path class="fil6" d="M7366.68 -33.87l-110.62 1256.84 8.67 0c7.44,0.64 14.77,2.16 21.88,4.51l110.45 -1261.35 -30.38 0z"/>
    <path class="fil5" d="M7091.21 -33.86l-109.74 1247.24c16.78,-8.39 35.56,-11.95 54.22,-10.31l4.16 0 108.45 -1237.84 -57.09 0.91z"/>
    <path class="fil6" d="M7091.21 -33.86l-109.74 1247.24c10.03,-5.01 20.86,-8.3 32,-9.76l108.45 -1238.03 -30.71 0.55z"/>
    <path class="fil7" d="M6944.23 1725.29c19.78,-29.41 47.57,-52.54 80.07,-66.68 18.69,-7.14 35.63,-18.16 49.71,-32.35 23.88,4.22 48.08,6.46 72.32,6.66 -5.05,14.53 -12.77,27.93 -22.77,39.61 -25.69,29.98 -112.1,68.51 -81.18,152.91 30.91,84.42 166.66,82.42 178.61,-54.25 37.95,3.09 34.71,119.15 -12.84,165.22 -37.24,36.16 -77.73,50.99 -149.14,41.05 -27.71,-3.88 -54.1,-14.44 -76.87,-30.74 -22.75,-16.33 -41.21,-37.88 -53.82,-62.91 -10.48,-25.71 -14.5,-53.59 -11.72,-81.23 2.75,-27.63 12.24,-54.15 27.63,-77.29l0 0z"/>
    <path class="fil8" d="M6944.23 1725.29c19.78,-29.41 47.57,-52.54 80.07,-66.68 18.69,-7.14 35.63,-18.16 49.71,-32.35 15.61,2.77 31.36,4.72 47.19,5.77 -12.34,16.6 -29.33,29.19 -48.8,36.16 -26.43,11.47 -49.02,30.3 -65.09,54.22 -12.34,18.74 -19.98,40.18 -22.19,62.5 -2.26,22.31 0.96,44.85 9.35,65.66 10.11,20.58 25.11,38.39 43.66,51.85 18.55,13.5 40.13,22.24 62.82,25.5 58.01,7.97 90.37,-3.98 121.29,-33.44 10.04,-10.25 17.68,-22.61 22.43,-36.13 -3.63,29.46 -16.27,57.1 -36.15,79.15 -37.25,36.15 -77.74,50.98 -149.15,41.04 -27.91,-3.94 -54.4,-14.63 -77.25,-31.15 -22.84,-16.5 -41.31,-38.33 -53.8,-63.58 -10.48,-25.71 -14.5,-53.59 -11.72,-81.23 2.75,-27.63 12.24,-54.15 27.63,-77.29l0 0z"/>
    <path class="fil7" d="M7250.62 1620.64l107.2 -285.97c1.19,-13.4 -0.28,-26.9 -4.3,-39.74 -4.03,-12.84 -10.56,-24.75 -19.22,-35.06 -8.64,-10.32 -19.25,-18.82 -31.2,-25.02 -11.91,-6.22 -24.96,-10.01 -38.37,-11.16l-229.21 -20.07c-27.08,-2.35 -53.96,6.12 -74.77,23.58 -20.8,17.45 -33.85,42.45 -36.24,69.51l56.05 300.24c84.73,38.27 179.97,46.6 270.06,23.69z"/>
    <path class="fil8" d="M7250.62 1620.64l-215.1 -417.02c-27.08,-2.35 -53.96,6.12 -74.77,23.58 -20.8,17.45 -33.85,42.45 -36.24,69.51l56.05 300.24c84.73,38.27 179.97,46.6 270.06,23.69z"/>
    <path class="fil5" d="M7086.48 1870.09c1.28,1.67 2.81,3.11 4.53,4.34l1641.73 1197.54 107.01 13.19 -1381.23 -1008.11 1952.28 1078.07 139.56 17.16 -2430.8 -1342.67c-6.89,-5.42 -15.64,-7.9 -24.33,-6.95 -8.73,0.94 -16.72,5.25 -22.3,12 -6.14,10.3 3.08,26.02 13.55,35.43z"/>
    <polygon class="fil9" points="9619.24,3152.24 9616.87,3180.42 4928.12,2604.7 4930.45,2576.67 4789.82,2557.71 4708.11,2585.18 4705.42,2620.26 4061.88,2854.32 4064.41,2826.13 3991.92,2850.34 3783.13,5237.82 3922.13,5253.01 3925.94,5214.33 8615.23,5724.98 8611.27,5769.8 8754.99,5782.47 8853.33,5761.14 8855.66,5720.81 9389.66,5560.12 9386.05,5602.98 9557.95,5557.96 9770.35,3170.84 "/>
    <polygon class="fil10" points="9770.38,3170.84 9557.97,5557.96 9391.28,5542.4 9396.36,5484.03 4754.22,4910.31 4750.25,4956.74 4585.56,4942.3 4789.82,2557.71 4930.45,2576.67 4928.12,2604.7 9616.91,3180.42 9619.24,3152.24 "/>
    <polygon class="fil3" points="5238.12,3388.11 5409.5,3409.07 5342.79,4171.53 5171.44,4150.56 "/>
    <path class="fil3" d="M5588.47 3431.12l181.85 22.41 97.06 358.29 34 138.81 4.49 0 57.14 -127.61 153.66 -327.54 180.77 22.24 -66.71 762.46 -159.8 -19.72 24.41 -279.44c6.7,-74.85 30.36,-184.22 45.02,-256.88l-4.72 0 -78.46 168.83 -142.45 281.62 -68.86 -8.47 -90.38 -310.19 -45.19 -184.02 -4.52 0c1.63,74.66 4.69,187.26 -1.81,262.08l-24.4 279.48 -157.45 -19.36 66.35 -762.99z"/>
    <path class="fil3" d="M6476.93 3540.33l277.48 33.95c164.33,20.25 291.94,97.43 275.86,282.17 -15.72,178.97 -159.08,241.68 -319.97,221.99l-106.12 -13.2 -22.57 258.85 -171.38 -20.97 66.7 -762.79zm235.01 399.83c94.55,11.75 144.61,-24.77 150.59,-104.31 5.94,-79.54 -39.42,-114.78 -130.34,-126.54l-95.64 -11.74 -20.25 230.48 95.64 12.11z"/>
    <path class="fil3" d="M7114.14 4000.34c21.89,-249.08 174.28,-374.7 379.62,-349.4 205.35,25.3 332.6,186.19 310.91,433.83 -21.68,247.64 -174.8,381.57 -379.62,356.26 -204.79,-25.29 -332.59,-191.59 -310.91,-440.69zm514.29 63.1c13.19,-152.03 -44.1,-251.25 -147.86,-264.11 -103.76,-12.84 -177,70.51 -190.35,222.54 -13.39,151.99 43.37,258.31 147.13,271.14 103.76,12.83 177.69,-76.49 191.08,-229.57l0 0z"/>
    <path class="fil3" d="M8325.85 4537.94l-121.83 -292.67 -94.38 -11.75 -24.05 274.94 -172.08 -21.68 66.69 -762.47 274.05 33.63c160.89,19.89 287.61,92.18 271.14,273.5 -9.94,112.23 -69.76,176.98 -154.55,203.17l145.89 326.46 -190.88 -23.13zm-204.29 -441.06l88.59 10.83c90.37,11.02 142.25,-21.5 148.78,-96.5 6.49,-75.02 -40.13,-106.48 -129.98,-117.51l-88.59 -10.86 -18.8 214.04z"/>
    <polygon class="fil3" points="8811.2,3973.41 8602.41,3947.74 8615.07,3803.13 9205.09,3875.45 9192.43,4020.07 8983.83,3994.37 8929.6,4611.87 8756.96,4590.7 "/>
    <polygon class="fil11" points="4771.75,4709.45 4888,4723.76 5058.27,2778.42 4942.04,2764.11 "/>
    <polygon class="fil12" points="5058.27,2778.42 4887.96,4723.76 4912.94,4726.81 5083.21,2781.47 "/>
    <polygon class="fil13" points="4979.28,2797.39 5058.27,2778.42 4981.61,2769 4942.04,2764.11 4936.98,2822.16 4776.83,4651.44 4771.75,4709.45 4811.51,4714.34 4888,4723.76 4889.44,4708.2 4812.79,4698.79 "/>
    <polygon class="fil11" points="5010,4738.56 5126.23,4752.87 5296.52,2807.68 5180.27,2793.42 "/>
    <polygon class="fil12" points="5296.52,2807.68 5126.23,4752.87 5151.2,4755.92 5321.46,2810.77 "/>
    <polygon class="fil13" points="5217.35,2826.66 5296.52,2807.68 5219.88,2798.3 5180.27,2793.42 5175.21,2851.43 5015.06,4680.73 5010,4738.56 5049.57,4743.45 5126.23,4752.87 5127.68,4737.48 5051.05,4728.09 "/>
    <polygon class="fil11" points="5248.26,4767.86 5364.49,4782.13 5534.79,2836.96 5418.53,2822.68 "/>
    <polygon class="fil12" points="5534.79,2836.96 5364.49,4782.13 5389.43,4785.22 5559.53,2840.04 "/>
    <polygon class="fil13" points="5455.61,2855.96 5534.79,2836.96 5458.13,2827.57 5418.53,2822.68 5413.48,2880.7 5253.31,4710.01 5248.26,4767.86 5287.83,4772.75 5364.49,4782.13 5365.93,4766.77 5289.28,4757.36 "/>
    <polygon class="fil11" points="5486.51,4797.13 5602.74,4811.41 5772.85,2866.27 5656.62,2851.99 "/>
    <polygon class="fil12" points="5772.85,2866.27 5602.74,4811.41 5627.68,4814.49 5797.79,2869.32 "/>
    <polygon class="fil13" points="5693.84,2885.06 5772.85,2866.27 5696.39,2856.85 5656.62,2851.99 5651.54,2909.81 5491.57,4739.28 5486.51,4797.13 5526.1,4802.02 5602.74,4811.41 5604.02,4795.88 5527.53,4786.47 "/>
    <polygon class="fil11" points="5724.78,4826.43 5841.01,4840.7 6011.11,2895.53 5894.88,2881.25 "/>
    <polygon class="fil12" points="6011.11,2895.53 5841.01,4840.7 5865.95,4843.76 6036.04,2898.62 "/>
    <polygon class="fil13" points="5932.1,2914.33 6011.11,2895.53 5934.62,2885.95 5894.88,2881.25 5889.8,2939.11 5729.84,4768.58 5724.78,4826.43 5764.35,4831.3 5841.01,4840.7 5842.25,4825.16 5765.63,4815.76 "/>
    <polygon class="fil11" points="5962.84,4855.7 6079.24,4869.98 6249.33,2924.64 6133.12,2910.36 "/>
    <polygon class="fil12" points="6249.33,2924.64 6079.26,4869.98 6104.01,4873.06 6274.31,2927.72 "/>
    <polygon class="fil13" points="6170.36,2943.64 6249.33,2924.64 6172.72,2915.25 6133.12,2910.36 6128.06,2968.38 5967.9,4797.69 5962.84,4855.7 6002.61,4860.59 6079.24,4869.98 6080.51,4854.42 6003.86,4845.04 "/>
    <polygon class="fil11" points="6201.07,4884.98 6317.32,4899.08 6487.6,2953.91 6371.37,2939.64 "/>
    <polygon class="fil12" points="6487.6,2953.93 6317.32,4899.08 6342.26,4902.17 6512.54,2956.99 "/>
    <polygon class="fil13" points="6408.42,2972.91 6487.6,2953.91 6410.95,2944.53 6371.37,2939.64 6366.32,2997.68 6206.15,4826.96 6201.07,4884.98 6240.84,4889.7 6317.32,4899.08 6318.77,4883.73 6242.12,4874.31 "/>
    <polygon class="fil11" points="6439.33,4914.08 6555.58,4928.36 6725.86,2983.21 6609.63,2968.93 "/>
    <polygon class="fil12" points="6725.86,2983.21 6555.58,4928.38 6580.52,4931.44 6750.63,2986.29 "/>
    <polygon class="fil13" points="6646.67,3002.18 6725.86,2983.21 6649.2,2973.79 6609.63,2968.93 6604.55,3026.76 6444.41,4856.23 6439.33,4914.08 6478.94,4918.97 6555.58,4928.36 6557.03,4913 6480.38,4903.61 "/>
    <polygon class="fil11" points="6677.59,4943.38 6793.82,4957.66 6964.11,3012.48 6847.7,2998.21 "/>
    <polygon class="fil12" points="6964.11,3012.48 6793.82,4957.66 6818.76,4960.71 6988.86,3015.57 "/>
    <polygon class="fil13" points="6884.94,3031.28 6964.11,3012.48 6887.47,3003.1 6847.7,2998.21 6842.64,3056.05 6682.65,4885.53 6677.59,4943.38 6717.17,4948.24 6793.82,4957.66 6795.26,4942.3 6718.61,4932.72 "/>
    <polygon class="fil11" points="6915.85,4972.66 7032.08,4986.93 7202.18,3041.78 7085.96,3027.48 "/>
    <polygon class="fil12" points="7202.18,3041.78 7032.08,4986.93 7057.02,4990.01 7227.12,3044.67 "/>
    <polygon class="fil13" points="7123.2,3060.58 7202.18,3041.78 7125.72,3032.36 7085.96,3027.48 7080.87,3085.33 6920.9,4914.81 6915.85,4972.66 6955.42,4977.54 7032.08,4986.93 7033.35,4971.37 6956.87,4961.99 "/>
    <polygon class="fil11" points="7154.1,5001.95 7270.33,5016.23 7440.44,3070.89 7324.21,3056.58 "/>
    <polygon class="fil12" points="7440.44,3070.89 7270.33,5016.23 7295.27,5019.28 7465.38,3073.94 "/>
    <polygon class="fil13" points="7361.43,3089.85 7440.44,3070.89 7363.78,3061.47 7324.21,3056.58 7319.13,3114.63 7159.16,4943.91 7154.1,5001.95 7193.69,5006.81 7270.33,5016.23 7271.58,5000.67 7195.12,4991.27 "/>
    <polygon class="fil11" points="7392.18,5031.23 7508.59,5045.5 7678.7,3100.16 7562.44,3085.89 "/>
    <polygon class="fil12" points="7678.67,3100.16 7508.59,5045.5 7533.34,5048.58 7703.64,3103.24 "/>
    <polygon class="fil13" points="7599.68,3119.13 7678.7,3100.16 7602.05,3090.75 7562.44,3085.89 7557.39,3143.9 7397.23,4973.21 7392.18,5031.23 7431.94,5036.12 7508.59,5045.5 7509.84,5029.95 7433.19,5020.56 "/>
    <polygon class="fil11" points="7630.43,5060.33 7746.66,5074.61 7916.93,3129.43 7800.71,3115.16 "/>
    <polygon class="fil12" points="7916.93,3129.43 7746.66,5074.61 7771.6,5077.68 7941.9,3132.51 "/>
    <polygon class="fil13" points="7837.78,3148.24 7916.93,3129.43 7840.31,3120.04 7800.71,3115.16 7795.65,3173.18 7635.49,5002.48 7630.43,5060.33 7670.2,5065.21 7746.66,5074.61 7748.11,5059.25 7671.45,5049.84 "/>
    <polygon class="fil11" points="7868.66,5089.6 7984.92,5103.87 8155.19,3158.73 8038.96,3144.46 "/>
    <polygon class="fil12" points="8155.19,3158.73 7984.92,5103.87 8009.86,5106.96 8179.96,3161.79 "/>
    <polygon class="fil13" points="8076.01,3177.53 8155.19,3158.73 8078.54,3149.32 8038.96,3144.46 8033.91,3202.27 7873.74,5031.75 7868.66,5089.6 7908.43,5094.49 7984.92,5103.87 7986.36,5088.52 7909.71,5079.13 "/>
    <polygon class="fil11" points="8106.92,5118.91 8223.17,5133.18 8393.45,3188.01 8277.02,3173.73 "/>
    <polygon class="fil12" points="8393.45,3188.01 8223.17,5133.18 8248.11,5136.23 8418.22,3191.08 "/>
    <polygon class="fil13" points="8314.26,3206.81 8393.45,3188.01 8316.79,3178.61 8277.02,3173.73 8271.97,3231.58 8112,5061.05 8106.92,5118.91 8146.53,5123.76 8223.17,5133.18 8224.42,5117.62 8147.97,5108.24 "/>
    <polygon class="fil11" points="8345.18,5148.17 8461.41,5162.45 8631.51,3217.1 8515.28,3202.83 "/>
    <polygon class="fil12" points="8631.51,3217.1 8461.41,5162.45 8486.35,5165.53 8656.45,3220.19 "/>
    <polygon class="fil13" points="8552.53,3236.1 8631.51,3217.1 8555.06,3207.89 8515.28,3202.83 8510.23,3260.85 8350.24,5090.32 8345.18,5148.17 8384.78,5153.06 8461.41,5162.45 8462.69,5146.9 8386.23,5137.51 "/>
    <polygon class="fil11" points="8583.44,5177.44 8699.67,5191.75 8869.77,3246.38 8753.55,3232.1 "/>
    <polygon class="fil12" points="8869.77,3246.41 8699.67,5191.75 8724.44,5194.64 8894.71,3249.47 "/>
    <polygon class="fil13" points="8790.76,3265.38 8869.77,3246.38 8793.12,3237 8753.55,3232.1 8748.46,3290.15 8588.49,5119.43 8583.44,5177.44 8623.01,5182.17 8699.67,5191.75 8700.94,5176.2 8624.29,5166.78 "/>
    <polygon class="fil11" points="8821.69,5206.75 8937.73,5220.83 9108.03,3275.68 8991.78,3261.4 "/>
    <polygon class="fil12" points="9108.03,3275.68 8937.73,5220.83 8962.69,5223.91 9132.97,3278.76 "/>
    <polygon class="fil13" points="9029.02,3294.49 9108.03,3275.68 9031.38,3266.26 8991.78,3261.4 8986.72,3319.43 8826.56,5148.7 8821.69,5206.75 8861.27,5211.63 8937.73,5220.83 8939.17,5205.47 8862.56,5196.09 "/>
    <polygon class="fil11" points="9059.77,5235.85 9175.98,5250.12 9346.29,3304.95 9230.03,3290.68 "/>
    <polygon class="fil12" points="9346.29,3304.95 9175.98,5250.12 9200.92,5253.18 9371.23,3308.04 "/>
    <polygon class="fil13" points="9267.11,3323.75 9346.29,3304.95 9269.64,3295.57 9230.03,3290.68 9224.98,3348.52 9064.81,5178 9059.77,5235.85 9099.53,5240.71 9175.98,5250.12 9177.43,5234.58 9100.78,5225.18 "/>
    <polygon class="fil11" points="9298.02,5265.12 9414.25,5279.4 9584.52,3334.25 9468.29,3319.95 "/>
    <polygon class="fil12" points="9584.52,3334.25 9414.25,5279.4 9439.19,5282.48 9609.3,3337.31 "/>
    <polygon class="fil13" points="9505.34,3353.06 9584.52,3334.25 9507.9,3324.84 9468.29,3319.95 9463.05,3377.8 9303.08,5207.28 9298.02,5265.12 9337.59,5270.01 9414.25,5279.4 9415.53,5263.84 9339.04,5254.46 "/>
    <polygon class="fil13" points="9409.36,5334.73 4767.04,4764.78 4769.57,4734.06 9412.09,5303.98 "/>
    <polygon class="fil13" points="4780.79,4913.55 4754.22,4910.31 4767.04,4764.78 4793.46,4768.02 "/>
    <polygon class="fil14" points="6406.97,5088.16 6181.21,5060.33 6190.61,4952.05 6416.39,4979.88 "/>
    <polygon class="fil14" points="7981.47,5281.4 7755.71,5253.73 7765.29,5145.28 7991.05,5173.11 "/>
    <path class="fil14" d="M4903.16 2684.41c-0.3,3.85 -1.39,7.63 -3.2,11.05 -1.8,3.45 -4.27,6.47 -7.29,8.92 -3.01,2.44 -6.48,4.27 -10.21,5.33 -3.71,1.08 -7.63,1.38 -11.46,0.91 -7.98,-1 -15.25,-5.03 -20.3,-11.27 -5.06,-6.23 -7.5,-14.16 -6.83,-22.16 0.33,-3.86 1.44,-7.61 3.27,-11 1.81,-3.41 4.27,-6.45 7.28,-8.86 3.03,-2.45 6.47,-4.22 10.19,-5.3 3.73,-1.06 7.61,-1.37 11.44,-0.86 7.91,0.96 15.17,4.99 20.22,11.19 5.06,6.19 7.52,14.07 6.89,22.05l0 0z"/>
    <path class="fil14" d="M9703.1 3273.87c-0.3,3.86 -1.38,7.61 -3.19,11.03 -1.8,3.41 -4.3,6.45 -7.3,8.89 -3,2.44 -6.47,4.22 -10.22,5.27 -3.72,1.06 -7.61,1.34 -11.45,0.84 -7.93,-1.03 -15.15,-5.11 -20.18,-11.33 -5,-6.23 -7.42,-14.14 -6.75,-22.11 0.33,-3.86 1.45,-7.58 3.25,-11 1.81,-3.41 4.31,-6.41 7.3,-8.86 3,-2.41 6.47,-4.22 10.17,-5.27 3.71,-1.09 7.61,-1.36 11.44,-0.89 7.95,1.03 15.16,5.08 20.18,11.3 5.01,6.25 7.43,14.16 6.75,22.13l0 0z"/>
    <path class="fil14" d="M4712.84 4860.39c-0.34,3.9 -1.42,7.68 -3.22,11.09 -1.84,3.44 -4.34,6.47 -7.36,8.91 -3.04,2.45 -6.53,4.22 -10.28,5.28 -3.75,1.03 -7.67,1.28 -11.52,0.75 -7.92,-1 -15.14,-5 -20.15,-11.19 -5.01,-6.22 -7.44,-14.11 -6.77,-22.06 0.31,-3.85 1.39,-7.61 3.19,-11.05 1.81,-3.41 4.31,-6.44 7.31,-8.86 3,-2.44 6.47,-4.24 10.19,-5.27 3.75,-1.06 7.64,-1.33 11.47,-0.84 7.94,0.95 15.22,4.95 20.27,11.14 5.06,6.22 7.51,14.14 6.87,22.1z"/>
    <path class="fil14" d="M9512.39 5449.67c-0.27,3.89 -1.35,7.67 -3.14,11.11 -1.8,3.44 -4.27,6.47 -7.29,8.94 -3,2.45 -6.51,4.25 -10.23,5.34 -3.74,1.05 -7.66,1.33 -11.49,0.82 -7.95,-1.02 -15.17,-5.08 -20.16,-11.32 -5.03,-6.23 -7.45,-14.14 -6.79,-22.11 0.31,-3.86 1.39,-7.61 3.2,-11.03 1.8,-3.44 4.3,-6.44 7.3,-8.88 3,-2.44 6.5,-4.23 10.23,-5.28 3.71,-1.06 7.61,-1.33 11.44,-0.83 7.91,1.02 15.1,5.05 20.1,11.24 5.03,6.2 7.47,14.09 6.83,22l0 0z"/>
    <polygon class="fil10" points="3783.13,5237.82 3991.92,2850.34 4064.41,2826.13 4061.88,2854.32 4705.42,2620.26 4708.11,2585.18 4789.82,2557.71 4585.56,4942.3 4491.01,4977.18 4495.9,4922.41 3878.03,5156.67 3873.5,5204.58 "/>
    <polygon class="fil11" points="3893.74,4957.1 3959.93,4930.55 4133.28,2950.13 4067.1,2976.52 "/>
    <polygon class="fil12" points="4133.28,2950.13 3959.93,4930.55 3974.2,4924.94 4147.36,2944.53 "/>
    <polygon class="fil13" points="4087.18,2996.4 4133.28,2950.13 4089.54,2967.65 4067.1,2976.52 4061.88,3035.62 3898.99,4898.19 3893.74,4957.1 3916.35,4948.07 3959.93,4930.55 3961.37,4914.81 3917.79,4932.36 "/>
    <polygon class="fil11" points="4029.33,4903.78 4095.51,4877.59 4268.15,2905.31 4201.8,2931.69 "/>
    <polygon class="fil12" points="4268.15,2905.31 4095.51,4877.59 4109.79,4871.98 4282.22,2899.7 "/>
    <polygon class="fil13" points="4221.85,2951.38 4268.15,2905.31 4224.38,2922.66 4201.8,2931.69 4196.74,2990.26 4034.39,4845.24 4029.33,4903.78 4051.94,4894.92 4095.51,4877.59 4096.96,4861.84 4053.19,4879.2 "/>
    <polygon class="fil11" points="4164.91,4850.65 4231.06,4824.43 4402.98,2860.48 4336.83,2886.5 "/>
    <polygon class="fil12" points="4402.98,2860.48 4231.06,4824.43 4245.18,4818.83 4417.09,2854.88 "/>
    <polygon class="fil13" points="4356.71,2906.19 4402.98,2860.48 4359.24,2877.64 4336.83,2886.5 4331.58,2945.07 4169.97,4792.08 4164.91,4850.65 4187.49,4841.79 4231.06,4824.43 4232.51,4808.88 4188.77,4826.07 "/>
    <polygon class="fil11" points="4300.47,4797.33 4366.65,4771.28 4538.01,2813.47 4471.66,2839.52 "/>
    <polygon class="fil12" points="4538.01,2813.47 4366.65,4771.28 4380.74,4765.69 4552.11,2807.88 "/>
    <polygon class="fil13" points="4491.91,2859.01 4538.01,2813.47 4494.27,2830.66 4471.66,2839.52 4466.61,2897.89 4305.56,4739.12 4300.47,4797.33 4323.08,4788.47 4366.65,4771.28 4367.9,4755.75 4324.36,4772.92 "/>
    <polygon class="fil11" points="4436.05,4744.18 4502.23,4718.14 4673.03,2766.47 4606.72,2792.49 "/>
    <polygon class="fil12" points="4673.07,2766.47 4502.23,4718.14 4516.32,4712.54 4687.14,2760.87 "/>
    <polygon class="fil13" points="4626.77,2812.02 4673.03,2766.47 4629.3,2783.64 4606.72,2792.49 4601.64,2850.54 4441.14,4685.96 4436.05,4744.18 4458.66,4735.31 4502.23,4718.14 4503.48,4702.6 4459.91,4719.76 "/>
    <path class="fil14" d="M4759.63 2677.55c0.14,7.72 -2.06,15.3 -6.33,21.77 -4.25,6.44 -10.36,11.45 -17.53,14.36 -2.91,1.61 -6.21,2.36 -9.52,2.19 -3.3,-0.17 -6.53,-1.25 -9.28,-3.11 -2.71,-1.89 -4.91,-4.47 -6.27,-7.49 -1.39,-3 -1.89,-6.36 -1.5,-9.64 -0.17,-7.72 2,-15.3 6.24,-21.78 4.23,-6.44 10.31,-11.47 17.45,-14.38 2.94,-1.33 6.19,-1.89 9.41,-1.62 3.22,0.29 6.33,1.4 9,3.2 2.7,1.8 4.86,4.28 6.31,7.16 1.47,2.89 2.16,6.09 2.02,9.34l0 0z"/>
    <path class="fil14" d="M4051.94 2924.84c0.1,6.63 -1.81,13.13 -5.5,18.66 -3.66,5.49 -8.94,9.77 -15.11,12.24 -2.53,1.17 -5.33,1.67 -8.11,1.48 -2.78,-0.23 -5.45,-1.15 -7.78,-2.67 -2.33,-1.56 -4.22,-3.67 -5.47,-6.14 -1.28,-2.5 -1.89,-5.25 -1.77,-8.05 -0.08,-6.64 1.86,-13.16 5.52,-18.69 3.66,-5.56 8.91,-9.86 15.08,-12.39 2.53,-1.14 5.34,-1.62 8.11,-1.36 2.78,0.22 5.45,1.16 7.75,2.72 2.3,1.56 4.19,3.67 5.47,6.17 1.28,2.46 1.89,5.21 1.81,8.03l0 0z"/>
    <path class="fil14" d="M4568.19 4864c0.26,7.75 -1.88,15.36 -6.1,21.84 -4.26,6.46 -10.39,11.47 -17.55,14.33 -2.92,1.58 -6.23,2.33 -9.54,2.17 -3.32,-0.17 -6.51,-1.23 -9.26,-3.12 -2.75,-1.86 -4.93,-4.44 -6.31,-7.47 -1.36,-3.03 -1.89,-6.35 -1.47,-9.66 -0.17,-7.73 1.99,-15.3 6.22,-21.75 4.22,-6.44 10.3,-11.47 17.47,-14.41 2.92,-1.59 6.19,-2.33 9.52,-2.17 3.31,0.16 6.53,1.26 9.25,3.11 2.75,1.86 4.94,4.48 6.3,7.48 1.37,3.02 1.89,6.38 1.47,9.65l0 0z"/>
    <path class="fil14" d="M3861.23 5105.15c0.08,6.67 -1.84,13.2 -5.5,18.72 -3.7,5.56 -8.95,9.87 -15.11,12.36 -2.56,1.14 -5.33,1.61 -8.11,1.39 -2.77,-0.25 -5.44,-1.2 -7.78,-2.75 -2.3,-1.55 -4.19,-3.66 -5.44,-6.14 -1.28,-2.5 -1.92,-5.25 -1.8,-8.02 -0.12,-6.64 1.8,-13.16 5.46,-18.66 3.7,-5.53 8.98,-9.81 15.14,-12.25 2.53,-1.2 5.3,-1.69 8.08,-1.5 2.77,0.22 5.47,1.14 7.78,2.69 2.33,1.53 4.22,3.64 5.5,6.13 1.27,2.48 1.88,5.25 1.78,8.03l0 0z"/>
    <polygon class="fil13" points="4510.18,4754.67 3891.94,5001.21 3893.94,4979.15 4512.18,4731.15 "/>
    <path class="fil15" d="M10964.86 4967.76l1755.1 786.85 100.51 -12.47 -1297.74 -581.66 1584.07 546.61 29.27 -3.61 -2.33 -28.21 30.19 -3.98 -2179.71 -752.13c-7.14,-2.24 -14.8,-1.94 -21.75,0.87 -6.92,2.8 -12.66,7.91 -16.22,14.49 -1.44,6.87 -0.36,14 3.06,20.13 3.42,6.11 8.97,10.78 15.55,13.11l0 0z"/>
    <path class="fil5" d="M10433.61 -33.87l-57.33 0 383.78 4368.26c14.09,-9.17 30.25,-14.69 47,-16.08l8.69 -0.92 -382.14 -4351.26z"/>
    <path class="fil6" d="M10433.61 -33.87l-28.75 0 379.62 4356.32c7.08,-2.28 14.41,-3.76 21.85,-4.33l8.7 -0.9 -381.42 -4351.09z"/>
    <path class="fil5" d="M10709.08 -33.87l-57.3 0 379.62 4332.46 3.98 0c18.66,-1.72 37.43,1.78 54.23,10.13l-380.53 -4342.59z"/>
    <path class="fil6" d="M10709.08 -33.87l-28.92 0 378.71 4332.46c11.14,1.47 21.94,4.78 31.99,9.78l-381.78 -4342.24z"/>
    <path class="fil7" d="M11127.75 4819.74c-19.86,-29.36 -47.63,-52.46 -80.07,-66.71 -18.81,-7 -35.82,-18.05 -49.91,-32.36 -23.88,4.22 -48.04,6.53 -72.29,6.87 5.11,14.41 12.83,27.76 22.78,39.4 25.85,30.02 112.06,68.51 81.33,152.95 -30.74,84.39 -166.85,82.4 -178.79,-54.25 -37.94,3.09 -34.69,119.12 12.85,165.22 37.41,36.16 77.71,50.97 149.31,41.02 27.91,-3.94 54.46,-14.68 77.26,-31.24 22.83,-16.58 41.22,-38.49 53.61,-63.82 10.16,-25.55 13.99,-53.15 11.21,-80.52 -2.8,-27.35 -12.15,-53.62 -27.29,-76.56z"/>
    <path class="fil8" d="M11127.75 4819.74c-19.86,-29.36 -47.63,-52.46 -80.07,-66.71 -18.81,-7 -35.82,-18.05 -49.91,-32.36 -14.44,2.53 -30.19,4.7 -47.18,5.98 12.44,16.52 29.38,29.07 48.82,36.16 26.39,11.55 48.93,30.35 65.07,54.21 12.33,18.74 19.97,40.15 22.22,62.49 2.27,22.29 -0.9,44.85 -9.2,65.68 -10.16,20.58 -25.16,38.4 -43.77,51.87 -18.58,13.48 -40.15,22.22 -62.9,25.48 -58.01,7.96 -90.37,-3.98 -121.28,-33.45 -10.08,-10.55 -17.74,-23.22 -22.41,-37.04 3.52,29.52 16.16,57.18 36.16,79.18 37.41,36.16 77.7,50.96 149.3,41.02 27.91,-3.95 54.46,-14.7 77.27,-31.25 22.83,-16.58 41.21,-38.49 53.59,-63.82 10.28,-25.58 14.23,-53.24 11.48,-80.65 -2.72,-27.41 -12.05,-53.77 -27.19,-76.79l0 0z"/>
    <path class="fil7" d="M10821.33 4715.07l-107.37 -285.95c-1.18,-13.42 0.28,-26.91 4.3,-39.71 4.07,-12.84 10.6,-24.75 19.22,-35.03 8.67,-10.29 19.29,-18.8 31.2,-24.99 11.93,-6.16 24.99,-9.94 38.38,-11.08l229.23 -20.08c13.39,-1.19 26.88,0.28 39.69,4.3 12.83,4.03 24.74,10.53 35.05,19.17 10.3,8.64 18.8,19.18 25.02,31.1 6.22,11.94 10.03,24.97 11.22,38.35l-56.05 300.42c-84.7,38.16 -179.85,46.43 -269.89,23.5l0 0z"/>
    <path class="fil8" d="M10821.33 4715.07l214.96 -416.84c13.39,-1.19 26.88,0.28 39.69,4.3 12.83,4.03 24.74,10.53 35.05,19.17 10.3,8.64 18.83,19.18 25.02,31.1 6.22,11.94 10.03,24.97 11.22,38.35l-56.05 300.42c-84.7,38.16 -179.85,46.43 -269.89,23.5l0 0z"/>
    <path class="fil15" d="M8653.4 6253.87l1960.06 -1082.37 -1386.67 1012.25 107 -13.03 1647.17 -1201.51c1.59,-1.23 3.04,-2.64 4.34,-4.14 10.5,-9.58 19.89,-25.33 13.55,-35.27 -5.58,-6.69 -13.52,-10.97 -22.19,-11.92 -8.66,-0.94 -17.35,1.54 -24.27,6.87l-2438.39 1346.12 139.4 -17z"/>
    <polygon class="fil9" points="14072.27,5948.94 13999.98,5924.72 14002.51,5952.9 13358.98,5718.84 13356.09,5683.76 13274.55,5656.47 13133.74,5675.27 13136.07,5703.28 8447.5,6279.01 8445.16,6250.99 8294.03,6269.43 8506.26,8656.54 8678.34,8701.56 8674.53,8658.7 9208.53,8819.43 9211.06,8859.91 9309.41,8881.05 9453.11,8868.39 9449.13,8823.56 14138.46,8312.91 14142.07,8351.6 14281.26,8336.44 "/>
    <polygon class="fil10" points="8294.03,6269.43 8506.26,8656.54 8673.09,8641.02 8668.03,8582.61 13309.99,8008.89 13314.16,8055.36 13478.65,8040.88 13274.55,5656.47 13133.74,5675.27 13136.1,5703.28 8447.5,6279.01 8445.16,6250.99 "/>
    <polygon class="fil3" points="8862.19,6984.35 9337.96,6925.96 9350.62,7070.54 9046.37,7107.79 9059.77,7260.9 9318.62,7229.26 9331.26,7372.96 9072.39,7404.79 9087.78,7580.31 9403.75,7541.62 9416.41,7686.23 8928.35,7746.05 "/>
    <path class="fil3" d="M9666.94 7260.18l-230.64 -346.35 191.24 -23.49 79.01 135.58c20.61,32.88 40.29,70.68 65.63,116.03l4.69 0c13.19,-50.08 26.03,-91.81 38.13,-128.7l48.1 -151.3 183.46 -23.13 -162.68 403.11 243.51 357.71 -191.27 23.69 -89.48 -146.42c-22.06,-37.41 -43.02,-73.76 -67.96,-118.03l-4.7 0c-13.39,48.99 -27.49,90.37 -40.32,131.42l-57.66 164.3 -184.21 22.77 175.15 -417.19z"/>
    <path class="fil3" d="M10162.27 6824.73l277.47 -34.15c164.33,-20.25 302.6,24.21 318.88,209.12 15.56,178.77 -113.89,275.11 -274.78,294.83l-106.09 13.2 22.58 258.31 -171.36 21.13 -66.7 -762.44zm300.08 334.42c94.34,-11.76 136.11,-59.3 129.25,-138.84 -6.88,-79.55 -58.57,-102.84 -149.5,-91.65l-95.65 11.75 20.25 230.48 95.65 -11.74z"/>
    <path class="fil3" d="M10865.63 7120.1c-21.69,-249.1 105.76,-409.07 310.94,-433.84 205.16,-24.77 357.73,101.4 379.59,349.24 21.88,247.81 -105.01,415.75 -310.39,441.22 -205.34,25.5 -358.26,-107.54 -380.14,-356.62zm514.29 -63.28c-13.39,-152.02 -86.6,-234.97 -190.36,-222.34 -103.76,12.66 -161.24,111.9 -147.85,263.92 13.38,152.02 87.31,242.2 191.07,229.57 103.76,-12.67 160.52,-117.86 147.14,-271.15z"/>
    <path class="fil3" d="M12144.58 7351.82l-169.75 -256.86 -94.54 11.58 24.02 274.76 -171.35 21.13 -66.71 -762.44 274.05 -33.8c160.9,-19.71 297.53,20.25 313.28,201.55 9.95,112.25 -37.44,190.16 -115.9,236.43l198.86 283.97 -191.96 23.68zm-276.23 -382.12l88.59 -10.85c90.38,-11.03 135.4,-55.69 128.87,-130.51 -6.5,-74.84 -57.83,-94.53 -147.67,-83.51l-88.59 10.84 18.8 214.03z"/>
    <polygon class="fil3" points="12521.84,6681.37 12313.24,6707.07 12300.4,6562.45 12890.43,6490.13 12903.07,6634.74 12694.47,6660.24 12748.7,7277.71 12576.07,7299.03 "/>
    <polygon class="fil11" points="13292.46,7808.07 13176.21,7822.34 13006.13,5877.17 13122.35,5862.9 "/>
    <polygon class="fil12" points="13006.1,5877.17 13176.21,7822.34 13151.46,7825.43 12981.16,5880.26 "/>
    <polygon class="fil13" points="13085.11,5895.97 13006.13,5877.17 13082.59,5867.79 13122.35,5862.9 13127.41,5920.74 13287.38,7750.22 13292.46,7808.07 13252.85,7812.93 13176.21,7822.34 13174.96,7806.79 13251.42,7797.4 "/>
    <polygon class="fil11" points="13054.2,7837.34 12937.98,7851.62 12767.87,5906.47 12884.1,5892 "/>
    <polygon class="fil12" points="12767.87,5906.47 12937.98,7851.62 12913.2,7854.69 12742.9,5909.35 "/>
    <polygon class="fil13" points="12846.86,5925.28 12767.87,5906.47 12844.33,5896.88 12884.1,5892 12889.15,5950.02 13049.15,7779.33 13054.2,7837.34 13014.6,7842.04 12937.98,7851.62 12936.7,7836.09 13013.34,7826.68 "/>
    <polygon class="fil11" points="12816.13,7866.64 12699.71,7880.91 12529.61,5935.57 12645.83,5921.28 "/>
    <polygon class="fil12" points="12529.61,5935.57 12699.71,7880.91 12674.94,7883.8 12504.67,5938.63 "/>
    <polygon class="fil13" points="12608.59,5954.54 12529.61,5935.57 12606.26,5926.16 12645.83,5921.28 12650.89,5979.31 12811.05,7808.59 12816.13,7866.64 12776.37,7871.5 12699.71,7880.91 12698.43,7865.37 12775.09,7855.97 "/>
    <polygon class="fil11" points="12577.88,7895.72 12461.65,7910.02 12291.35,5964.85 12407.58,5950.57 "/>
    <polygon class="fil12" points="12291.35,5964.85 12461.65,7910.02 12436.68,7913.08 12266.41,5967.94 "/>
    <polygon class="fil13" points="12370.53,5983.82 12291.35,5964.85 12368,5955.47 12407.58,5950.57 12412.66,6008.42 12572.82,7837.9 12577.88,7895.72 12538.11,7900.61 12461.65,7910.02 12460.2,7894.63 12536.83,7885.25 "/>
    <polygon class="fil11" points="12339.62,7925.02 12223.39,7939.3 12053.09,5994.12 12169.35,5979.85 "/>
    <polygon class="fil12" points="12053.09,5994.12 12223.39,7939.3 12198.45,7942.37 12028.35,5997.2 "/>
    <polygon class="fil13" points="12132.27,6012.92 12053.09,5994.12 12129.75,5984.73 12169.35,5979.85 12174.4,6037.7 12334.57,7867.16 12339.62,7925.02 12300.04,7929.9 12223.39,7939.3 12221.95,7923.74 12298.57,7914.36 "/>
    <polygon class="fil11" points="12101.36,7954.29 11985.13,7968.56 11815.03,6023.42 11931.26,6009.15 "/>
    <polygon class="fil12" points="11815.03,6023.42 11985.13,7968.56 11960.19,7971.65 11790.09,6026.48 "/>
    <polygon class="fil13" points="11894.01,6042.22 11815.03,6023.42 11891.48,6014.01 11931.26,6009.15 11936.34,6066.97 12096.3,7896.44 12101.36,7954.29 12061.78,7959.18 11985.13,7968.56 11983.85,7953.04 12060.34,7943.62 "/>
    <polygon class="fil11" points="11863.1,7983.59 11746.87,7997.87 11576.76,6052.53 11693.02,6038.42 "/>
    <polygon class="fil12" points="11576.76,6052.53 11746.87,7997.87 11722.1,8000.92 11551.82,6055.58 "/>
    <polygon class="fil13" points="11655.78,6071.5 11576.76,6052.53 11653.42,6043.11 11693.02,6038.42 11698.07,6096.27 11858.04,7925.55 11863.1,7983.59 11823.53,7988.45 11746.87,7997.87 11745.62,7982.31 11822.08,7972.93 "/>
    <polygon class="fil11" points="11625.04,8012.87 11508.62,8027.13 11338.51,6081.79 11454.76,6067.52 "/>
    <polygon class="fil12" points="11338.53,6081.79 11508.62,8027.13 11483.87,8030.22 11313.57,6084.88 "/>
    <polygon class="fil13" points="11417.52,6100.79 11338.51,6081.79 11415.16,6072.41 11454.76,6067.52 11459.82,6125.54 11619.79,7954.84 11625.04,8012.87 11585.27,8017.56 11508.62,8027.13 11507.37,8011.61 11584.02,8002.2 "/>
    <polygon class="fil11" points="11386.77,8041.96 11270.56,8056.24 11100.28,6111.1 11216.51,6096.79 "/>
    <polygon class="fil12" points="11100.28,6111.1 11270.56,8056.24 11245.62,8059.33 11075.34,6114.15 "/>
    <polygon class="fil13" points="11179.46,6130.07 11100.28,6111.1 11176.93,6101.68 11216.51,6096.79 11221.56,6154.84 11381.73,7984.12 11386.77,8041.96 11347,8046.86 11270.56,8056.24 11269.11,8040.88 11345.75,8031.47 "/>
    <polygon class="fil11" points="11148.54,8071.24 11032.29,8085.55 10862.02,6140.36 10978.25,6126.1 "/>
    <polygon class="fil12" points="10862.02,6140.36 11032.29,8085.52 11007.35,8088.6 10837.24,6143.45 "/>
    <polygon class="fil13" points="10941.2,6159.17 10862.02,6140.36 10938.67,6130.96 10978.25,6126.1 10983.33,6183.95 11143.46,8013.41 11148.54,8071.24 11108.78,8076.13 11032.29,8085.55 11030.84,8069.99 11107.5,8060.77 "/>
    <polygon class="fil11" points="10910.29,8100.54 10794.06,8114.81 10623.76,6169.64 10740.18,6155.36 "/>
    <polygon class="fil12" points="10623.76,6169.64 10794.06,8114.81 10769.09,8117.9 10598.99,6172.72 "/>
    <polygon class="fil13" points="10702.94,6188.44 10623.76,6169.64 10700.41,6160.25 10740.18,6155.36 10745.07,6213.22 10905.23,8042.69 10910.29,8100.54 10870.69,8105.43 10794.06,8114.81 10792.61,8099.27 10869.24,8089.87 "/>
    <polygon class="fil11" points="10672.03,8129.81 10555.8,8144.09 10385.7,6198.95 10501.92,6184.67 "/>
    <polygon class="fil12" points="10385.7,6198.95 10555.8,8144.09 10530.86,8147.17 10360.76,6201.83 "/>
    <polygon class="fil13" points="10464.68,6217.74 10385.7,6198.95 10462.16,6189.36 10501.92,6184.67 10506.98,6242.49 10666.98,8071.8 10672.03,8129.81 10632.45,8134.7 10555.8,8144.09 10554.53,8128.56 10631.01,8119.15 "/>
    <polygon class="fil11" points="10433.77,8159.11 10317.55,8173.38 10147.44,6228.04 10263.67,6213.75 "/>
    <polygon class="fil12" points="10147.44,6228.04 10317.55,8173.38 10292.77,8176.28 10122.5,6231.1 "/>
    <polygon class="fil13" points="10226.45,6247.02 10147.44,6228.04 10224.09,6218.63 10263.67,6213.75 10268.75,6271.79 10428.72,8101.07 10433.77,8159.11 10394.19,8163.98 10317.55,8173.38 10316.26,8157.84 10392.75,8148.44 "/>
    <polygon class="fil11" points="10195.7,8188.19 10079.48,8202.49 9909.17,6257.32 10025.43,6243.04 "/>
    <polygon class="fil12" points="9909.17,6257.32 10079.48,8202.49 10054.51,8205.54 9884.23,6260.4 "/>
    <polygon class="fil13" points="9988.19,6276.28 9909.17,6257.32 9985.83,6247.93 10025.43,6243.04 10030.48,6300.89 10190.45,8130.37 10195.7,8188.19 10155.94,8193.07 10079.48,8202.49 10078.03,8187.1 10154.66,8177.72 "/>
    <polygon class="fil11" points="9957.45,8217.49 9841.22,8231.76 9670.94,6286.59 9787.17,6272.32 "/>
    <polygon class="fil12" points="9670.94,6286.59 9841.22,8231.76 9816.28,8234.85 9645.98,6289.68 "/>
    <polygon class="fil13" points="9749.93,6305.39 9670.94,6286.59 9747.57,6277.21 9787.17,6272.32 9792.23,6330.16 9952.39,8159.64 9957.45,8217.49 9917.68,8222.38 9841.22,8231.76 9839.77,8216.41 9916.43,8206.99 "/>
    <polygon class="fil11" points="9719.19,8246.76 9602.96,8261.04 9432.69,6315.89 9548.92,6301.61 "/>
    <polygon class="fil12" points="9432.69,6315.89 9602.96,8261.04 9578.02,8264.12 9407.75,6318.97 "/>
    <polygon class="fil13" points="9511.87,6334.69 9432.69,6315.89 9509.34,6306.47 9548.92,6301.61 9553.97,6359.44 9714.14,8188.91 9719.19,8246.76 9679.61,8251.65 9602.96,8261.04 9601.52,8245.52 9678.16,8236.1 "/>
    <polygon class="fil11" points="9480.95,8276.06 9364.7,8290.34 9194.63,6345.16 9310.86,6330.89 "/>
    <polygon class="fil12" points="9194.63,6345.16 9364.72,8290.34 9339.76,8293.39 9169.65,6348.05 "/>
    <polygon class="fil13" points="9273.61,6363.96 9194.63,6345.16 9271.08,6335.78 9310.86,6330.89 9315.9,6388.73 9475.87,8218.01 9480.95,8276.06 9441.35,8280.92 9364.7,8290.34 9363.25,8274.78 9439.91,8265.4 "/>
    <polygon class="fil11" points="9242.7,8305.34 9126.47,8319.61 8956.36,6374.27 9072.59,6360.16 "/>
    <polygon class="fil12" points="8956.36,6374.27 9126.47,8319.61 9101.5,8322.69 8931.42,6377.35 "/>
    <polygon class="fil13" points="9035.35,6393.26 8956.36,6374.27 9032.82,6364.88 9072.59,6360.16 9077.64,6418.01 9237.64,8247.32 9242.7,8305.34 9203.1,8310.22 9126.47,8319.61 9125.19,8304.06 9201.65,8294.67 "/>
    <polygon class="fil11" points="9004.44,8334.44 8888.21,8348.72 8718.11,6403.57 8834.33,6389.26 "/>
    <polygon class="fil12" points="8718.11,6403.57 8888.21,8348.72 8863.44,8351.79 8693.17,6406.62 "/>
    <polygon class="fil13" points="8797.09,6422.53 8718.11,6403.57 8794.76,6394.15 8834.33,6389.26 8839.42,6447.31 8999.39,8276.59 9004.44,8334.44 8964.87,8339.49 8888.21,8348.72 8886.94,8333.35 8963.59,8323.95 "/>
    <polygon class="fil11" points="8766.37,8363.71 8649.96,8378.01 8479.85,6432.84 8596.08,6418.57 "/>
    <polygon class="fil12" points="8479.85,6432.84 8649.96,8378.01 8625.18,8381.07 8454.91,6435.92 "/>
    <polygon class="fil13" points="8558.86,6451.81 8479.85,6432.84 8556.49,6423.45 8596.08,6418.57 8601.16,6476.41 8761.13,8305.89 8766.37,8363.71 8726.6,8368.6 8649.96,8378.01 8648.71,8362.63 8725.32,8353.24 "/>
    <polygon class="fil13" points="8654.84,8433.31 13297.32,7863.36 13294.62,7832.65 8652.12,8402.6 "/>
    <polygon class="fil13" points="13283.6,8012.14 13309.99,8008.89 13297.32,7863.36 13270.77,7866.64 "/>
    <polygon class="fil14" points="11657.39,8186.74 11883.18,8159.11 11873.8,8050.63 11648,8078.49 "/>
    <polygon class="fil14" points="10082.89,8380.18 10308.52,8352.33 10299.1,8244.07 10073.31,8271.7 "/>
    <path class="fil14" d="M13161.04 5783.18c0.34,3.87 1.45,7.61 3.25,11.06 1.83,3.42 4.33,6.44 7.36,8.87 3.03,2.43 6.5,4.24 10.25,5.27 3.72,1.06 7.64,1.33 11.49,0.84 7.92,-1.03 15.14,-5.09 20.17,-11.34 5.02,-6.22 7.44,-14.14 6.78,-22.11 -0.34,-3.86 -1.45,-7.57 -3.28,-11 -1.8,-3.41 -4.28,-6.41 -7.3,-8.86 -3.01,-2.41 -6.45,-4.22 -10.18,-5.27 -3.71,-1.09 -7.61,-1.36 -11.44,-0.89 -7.96,1 -15.22,5.03 -20.27,11.24 -5.06,6.26 -7.49,14.2 -6.83,22.19l0 0z"/>
    <path class="fil14" d="M8361.46 6372.47c0.3,3.86 1.38,7.61 3.19,11.02 1.8,3.44 4.3,6.44 7.3,8.89 3.03,2.44 6.5,4.25 10.23,5.27 3.71,1.06 7.61,1.33 11.44,0.84 7.91,-1.08 15.07,-5.12 20.13,-11.28 5.03,-6.17 7.53,-14.02 7,-21.97 -0.31,-3.89 -1.42,-7.66 -3.22,-11.11 -1.84,-3.45 -4.3,-6.5 -7.34,-8.94 -3.02,-2.44 -6.53,-4.25 -10.27,-5.33 -3.75,-1.06 -7.67,-1.33 -11.53,-0.84 -7.95,1.03 -15.16,5.08 -20.16,11.34 -5.03,6.21 -7.45,14.13 -6.77,22.11l0 0z"/>
    <path class="fil14" d="M13351.55 7959.18c0.32,3.86 1.42,7.61 3.23,11.03 1.8,3.44 4.28,6.43 7.28,8.88 3.02,2.45 6.5,4.22 10.21,5.28 3.73,1.05 7.62,1.33 11.48,0.83 7.91,-1.03 15.13,-5.08 20.16,-11.33 5,-6.22 7.44,-14.14 6.77,-22.1 -0.32,-3.87 -1.41,-7.61 -3.22,-11.03 -1.8,-3.45 -4.27,-6.45 -7.3,-8.88 -3,-2.45 -6.47,-4.24 -10.19,-5.28 -3.72,-1.06 -7.64,-1.34 -11.47,-0.83 -7.95,1.01 -15.17,5.08 -20.16,11.32 -5.03,6.23 -7.45,14.14 -6.79,22.11l0 0z"/>
    <path class="fil14" d="M8551.8 8548.45c0.34,3.86 1.45,7.59 3.26,11 1.8,3.42 4.3,6.41 7.3,8.86 2.99,2.41 6.47,4.22 10.16,5.28 3.73,1.08 7.61,1.38 11.44,0.89 7.98,-1.01 15.26,-5.03 20.3,-11.25 5.03,-6.25 7.51,-14.19 6.84,-22.19 -0.34,-3.87 -1.42,-7.64 -3.22,-11.09 -1.83,-3.44 -4.34,-6.46 -7.36,-8.88 -3.03,-2.44 -6.53,-4.25 -10.28,-5.28 -3.75,-1.06 -7.66,-1.3 -11.52,-0.77 -7.92,1.05 -15.14,5.11 -20.17,11.32 -4.99,6.23 -7.44,14.14 -6.75,22.11z"/>
    <polygon class="fil10" points="14281.26,8336.44 14072.27,5948.94 13999.98,5924.72 14002.51,5952.9 13358.98,5718.84 13356.09,5683.76 13274.55,5656.47 13478.65,8040.88 13573.38,8075.76 13568.3,8021 14186.34,8255.26 14190.87,8303.16 "/>
    <polygon class="fil11" points="14173.51,8056.07 14107.17,8029.49 13934,6049.08 14000.15,6075.46 "/>
    <polygon class="fil12" points="13934,6049.08 14107.17,8029.49 14093.08,8023.89 13919.73,6043.3 "/>
    <polygon class="fil13" points="13980.1,6095.19 13934,6049.08 13977.55,6066.44 14000.15,6075.46 14005.4,6134.4 14168.26,7996.94 14173.51,8056.07 14150.93,8047.02 14107.17,8029.49 14105.92,8013.78 14149.49,8031.3 "/>
    <polygon class="fil11" points="14037.93,8002.75 13971.77,7976.34 13799.14,6004.06 13865.29,6030.47 "/>
    <polygon class="fil12" points="13799.14,6004.06 13971.77,7976.34 13957.49,7970.76 13784.87,5998.48 "/>
    <polygon class="fil13" points="13845.24,6050.17 13799.14,6004.06 13842.71,6021.42 13865.29,6030.47 13870.54,6089.21 14032.7,7943.99 14037.93,8002.75 14015.35,7993.7 13971.77,7976.34 13970.33,7960.63 14013.9,7978.15 "/>
    <polygon class="fil11" points="13902.37,7949.43 13836.18,7923.22 13664.3,5959.23 13730.46,5985.45 "/>
    <polygon class="fil12" points="13664.28,5959.23 13836.22,7923.22 13821.91,7917.6 13650.19,5953.63 "/>
    <polygon class="fil13" points="13710.38,6005.15 13664.3,5959.23 13707.85,5976.6 13730.46,5985.45 13735.51,6044.03 13897.12,7891.02 13902.37,7949.43 13879.77,7940.57 13836.18,7923.22 13834.75,7907.66 13878.32,7925.02 "/>
    <polygon class="fil11" points="13766.78,7896.27 13700.63,7870.06 13529.24,5912.25 13595.42,5938.46 "/>
    <polygon class="fil12" points="13529.24,5912.25 13700.63,7870.06 13686.36,7864.65 13515.17,5906.64 "/>
    <polygon class="fil13" points="13575.35,5957.98 13529.24,5912.25 13572.82,5929.41 13595.42,5938.46 13600.48,5996.68 13761.73,7837.9 13766.78,7896.27 13744.18,7887.41 13700.63,7870.06 13699.18,7854.51 13742.73,7871.7 "/>
    <polygon class="fil11" points="13631.2,7842.95 13565.05,7817.1 13394.21,5865.26 13460.37,5891.28 "/>
    <polygon class="fil12" points="13394.21,5865.26 13565.05,7817.1 13550.94,7811.49 13380.11,5859.81 "/>
    <polygon class="fil13" points="13440.32,5910.8 13394.21,5865.26 13437.79,5882.42 13460.37,5891.28 13465.45,5949.49 13626.15,7784.93 13631.2,7842.95 13608.62,7834.09 13565.05,7817.1 13563.6,7801.38 13607.35,7818.54 "/>
    <path class="fil14" d="M13307.63 5776.5c-0.26,7.71 1.89,15.35 6.13,21.82 4.25,6.48 10.36,11.47 17.56,14.34 2.9,1.57 6.21,2.33 9.52,2.16 3.34,-0.17 6.53,-1.25 9.28,-3.11 2.75,-1.86 4.91,-4.45 6.29,-7.47 1.37,-3.02 1.87,-6.36 1.48,-9.67 0.25,-7.71 -1.88,-15.35 -6.14,-21.82 -4.22,-6.48 -10.36,-11.47 -17.55,-14.34 -2.91,-1.57 -6.22,-2.33 -9.53,-2.16 -3.3,0.17 -6.53,1.25 -9.27,3.11 -2.72,1.87 -4.92,4.45 -6.27,7.47 -1.4,3.02 -1.89,6.36 -1.5,9.67z"/>
    <path class="fil14" d="M14012.45 5991.59c-0.1,6.61 1.81,13.12 5.45,18.6 3.64,5.54 8.86,9.81 14.97,12.32 2.55,1.16 5.33,1.66 8.13,1.47 2.79,-0.22 5.47,-1.15 7.81,-2.67 2.33,-1.55 4.22,-3.64 5.53,-6.14 1.28,-2.47 1.92,-5.22 1.86,-8.03 0,-6.63 -1.95,-13.13 -5.61,-18.66 -3.67,-5.52 -8.89,-9.86 -15,-12.41 -2.55,-1.14 -5.33,-1.62 -8.1,-1.4 -2.79,0.26 -5.45,1.2 -7.78,2.75 -2.31,1.57 -4.2,3.68 -5.45,6.14 -1.27,2.5 -1.89,5.25 -1.81,8.03l0 0z"/>
    <path class="fil14" d="M13499.25 7962.79c-0.17,7.72 2,15.3 6.23,21.75 4.22,6.46 10.29,11.49 17.43,14.41 2.95,1.58 6.23,2.33 9.55,2.16 3.31,-0.17 6.51,-1.25 9.25,-3.11 2.75,-1.85 4.95,-4.44 6.31,-7.47 1.36,-3.02 1.89,-6.36 1.47,-9.66 0.22,-7.72 -1.91,-15.33 -6.16,-21.8 -4.22,-6.47 -10.33,-11.47 -17.5,-14.36 -2.92,-1.58 -6.22,-2.34 -9.55,-2.17 -3.31,0.17 -6.5,1.25 -9.25,3.12 -2.75,1.86 -4.92,4.44 -6.31,7.46 -1.35,3.03 -1.89,6.36 -1.47,9.67z"/>
    <path class="fil14" d="M14205.86 8204.11c-0.03,6.6 1.92,13.11 5.59,18.6 3.69,5.5 8.91,9.78 15.02,12.31 2.53,1.18 5.33,1.69 8.11,1.47 2.77,-0.2 5.44,-1.11 7.78,-2.67 2.33,-1.53 4.22,-3.64 5.49,-6.14 1.25,-2.47 1.87,-5.25 1.75,-8.03 0.12,-6.66 -1.8,-13.18 -5.5,-18.71 -3.66,-5.56 -8.94,-9.86 -15.1,-12.39 -2.53,-1.11 -5.33,-1.58 -8.11,-1.36 -2.78,0.25 -5.44,1.19 -7.75,2.75 -2.3,1.56 -4.19,3.67 -5.47,6.14 -1.28,2.47 -1.89,5.24 -1.81,8.03l0 0z"/>
    <polygon class="fil13" points="13556.91,7853.42 14175.31,8100.18 14173.35,8077.94 13555.11,7829.92 "/>
   </g>
  </g>
  <polygon class="fil4" points="3783.13,8881.04 14281.07,8881.04 14281.07,-33.86 3783.13,-33.86 "/>
 </g>
</svg>
