<svg width="512" height="290" viewBox="0 0 512 290" fill="none" xmlns="http://www.w3.org/2000/svg">
<path fill-rule="evenodd" clip-rule="evenodd" d="M440.649 184.233C457.633 200.815 475.558 216.416 490.791 234.669C497.52 242.781 503.89 251.152 508.764 260.566C515.669 273.948 509.415 288.674 497.415 289.473L422.826 289.439C403.588 291.036 388.241 283.291 375.337 270.137C365.01 259.618 355.446 248.423 345.516 237.549C341.445 233.105 337.184 228.923 332.094 225.617C321.911 219.008 313.073 221.032 307.254 231.652C301.328 242.453 299.983 254.414 299.401 266.452C298.602 284.016 293.293 288.633 275.65 289.437C237.945 291.216 202.161 285.511 168.918 266.49C139.611 249.722 116.884 226.05 97.1029 199.25C58.5885 147.066 29.0942 89.7245 2.58577 30.7762C-3.38106 17.4951 0.982619 10.3658 15.6364 10.1135C39.9697 9.6408 64.2996 9.67445 88.6615 10.0799C98.5513 10.2245 105.098 15.897 108.917 25.24C122.082 57.6109 138.191 88.409 158.411 116.956C163.796 124.556 169.287 132.157 177.106 137.506C185.756 143.429 192.342 141.466 196.411 131.83C198.993 125.721 200.124 119.14 200.706 112.596C202.634 90.0828 202.888 67.6084 199.506 45.1743C197.43 31.1732 189.544 22.1094 175.573 19.4599C168.444 18.1091 169.506 15.4562 172.957 11.3869C178.953 4.36873 184.592 0 195.832 0H280.13C293.401 2.61921 296.348 8.581 298.165 21.9344L298.237 115.572C298.093 120.741 300.82 136.081 310.131 139.503C317.583 141.939 322.495 135.977 326.966 131.252C347.15 109.83 361.554 84.5147 374.423 58.3006C380.134 46.7741 385.045 34.8034 389.804 22.8428C393.33 13.9675 398.863 9.60042 408.86 9.79387L489.992 9.86621C492.397 9.86621 494.831 9.90154 497.161 10.3002C510.833 12.6301 514.579 18.5111 510.357 31.8612C503.703 52.8065 490.759 70.2612 478.102 87.7967C464.572 106.518 450.101 124.599 436.684 143.431C424.357 160.628 425.336 169.297 440.649 184.233Z" fill="white"/>
</svg>
