<svg width="17" height="17" viewBox="0 0 17 17" fill="none" xmlns="http://www.w3.org/2000/svg">
<path d="M16.2153 3.18061C16.0313 3.18609 15.8567 3.263 15.7284 3.39504L7.02084 12.1026L3.27165 8.35338C3.20639 8.2854 3.12821 8.23112 3.0417 8.19373C2.95519 8.15634 2.86209 8.13659 2.76786 8.13563C2.67362 8.13467 2.58014 8.15253 2.49289 8.18815C2.40564 8.22377 2.32637 8.27644 2.25973 8.34308C2.19309 8.40972 2.14042 8.48899 2.1048 8.57624C2.06918 8.66349 2.05132 8.75697 2.05228 8.85121C2.05324 8.94544 2.07299 9.03854 2.11038 9.12505C2.14777 9.21156 2.20205 9.28973 2.27003 9.355L6.52003 13.605C6.65287 13.7378 6.83301 13.8124 7.02084 13.8124C7.20867 13.8124 7.38881 13.7378 7.52166 13.605L16.73 4.39667C16.8323 4.29718 16.9023 4.16908 16.9306 4.02917C16.9589 3.88926 16.9442 3.74406 16.8886 3.61261C16.833 3.48115 16.7389 3.36957 16.6188 3.29248C16.4986 3.21539 16.358 3.1764 16.2153 3.18061Z" fill="#4B40E0"/>
</svg>
