<?xml version="1.0" standalone="no"?>
<!DOCTYPE svg PUBLIC "-//W3C//DTD SVG 20010904//EN"
 "http://www.w3.org/TR/2001/REC-SVG-20010904/DTD/svg10.dtd">
<svg version="1.0" xmlns="http://www.w3.org/2000/svg"
 width="512.000000pt" height="512.000000pt" viewBox="0 0 512.000000 512.000000"
 preserveAspectRatio="xMidYMid meet">
<metadata>
Created by potrace 1.11, written by Peter Selinger 2001-2013
</metadata>
<g transform="translate(0.000000,512.000000) scale(0.100000,-0.100000)"
fill="#000000" stroke="none">
<path d="M2844 5111 c-88 -21 -120 -52 -1276 -1209 -1288 -1290 -1193 -1183
-1193 -1342 0 -159 -95 -52 1194 -1343 1276 -1279 1197 -1206 1341 -1213 85
-4 157 16 220 62 25 18 201 190 393 382 250 251 347 355 349 373 5 88 -12 128
-69 161 -26 16 -72 18 -479 19 -394 0 -457 3 -514 18 -163 43 -261 131 -372
331 -14 25 -102 176 -195 336 -94 160 -182 310 -196 335 -13 24 -61 106 -105
181 -122 207 -151 336 -111 488 22 80 24 84 349 640 37 63 129 221 204 350
154 264 209 330 327 387 110 53 132 55 612 55 402 1 445 2 477 18 62 32 91
120 60 182 -7 13 -170 181 -363 375 -400 401 -416 413 -549 418 -40 2 -87 0
-104 -4z"/>
<path d="M3080 3442 c-7 -3 -10 -308 -10 -892 l0 -888 303 0 303 -1 -1 345 0
344 76 0 75 0 38 -82 c21 -46 53 -114 71 -153 18 -38 70 -151 115 -250 45 -99
87 -186 92 -192 8 -10 84 -12 309 -12 l299 1 0 55 c0 57 3 50 -129 327 -39 82
-71 150 -71 151 0 2 -40 86 -88 186 -48 101 -94 199 -101 216 -13 32 -10 40
163 383 174 345 177 352 174 407 l-3 57 -258 0 c-143 1 -262 -1 -267 -4 -4 -3
-80 -153 -169 -333 l-162 -328 -82 3 -81 3 0 328 c0 288 -2 327 -16 328 -44 3
-571 3 -580 1z"/>
</g>
</svg>
