<?xml version="1.0" encoding="UTF-8"?>
<!DOCTYPE svg PUBLIC "-//W3C//DTD SVG 1.1//EN" "http://www.w3.org/Graphics/SVG/1.1/DTD/svg11.dtd">
<!-- Creator: CorelDRAW 2019 (64-Bit) -->
<svg xmlns="http://www.w3.org/2000/svg" xml:space="preserve" width="100mm" height="100mm" version="1.1" style="shape-rendering:geometricPrecision; text-rendering:geometricPrecision; image-rendering:optimizeQuality; fill-rule:evenodd; clip-rule:evenodd"
viewBox="0 0 10000 10000"
 xmlns:xlink="http://www.w3.org/1999/xlink"
 xmlns:xodm="http://www.corel.com/coreldraw/odm/2003">
 <defs>
  <style type="text/css">
   <![CDATA[
    .fil0 {fill:#0C59CF;fill-rule:nonzero}
   ]]>
  </style>
 </defs>
 <g id="Слой_x0020_1">
  <metadata id="CorelCorpID_0Corel-Layer"/>
  <g id="_733526416">
   <path class="fil0" d="M7545.08 9492.97c137.46,102.93 109.45,186.87 -62.15,186.87l-3739.71 0c-171.66,0 -199.66,-83.94 -62.09,-186.87l747.43 -561.25c137.54,-102.82 249.59,-326.79 249.59,-498.51l0 -311.57c0,-171.69 140.05,-311.64 311.67,-311.64l1246.5 0c171.7,0 311.75,139.96 311.75,311.64l0 311.57c0,171.69 111.93,395.69 249.6,498.51l747.41 561.25zm2430.98 -8539.14l0 5921.23c0,344.45 -278.76,623.19 -623.21,623.19l-6232.93 0 0 1558.35c0,344.47 -279.09,623.21 -623.25,623.21l-1869.88 0c-344.22,0.03 -623.31,-278.74 -623.31,-623.18l0 -6856.22c0,-344.22 279.09,-623.27 623.31,-623.27l623.26 0 0 -623.31c0,-344.18 278.8,-623.32 623.31,-623.32l7479.49 0c344.43,0.02 623.21,279.15 623.21,623.32zm-9349.27 1869.87l1869.88 0 0 -623.3 -1869.88 0.01 0 623.29zm0 1246.57l1869.88 0 0 -623.25 -1869.88 -0.01 0 623.26zm623.26 3427.98c0,-172.17 -139.37,-311.55 -311.6,-311.55 -172.28,0 -311.65,139.37 -311.65,311.55 0,172.38 139.37,311.75 311.65,311.75 172.22,0 311.6,-139.37 311.6,-311.75zm8102.8 -5921.11c0,-344.56 -278.74,-623.31 -623.31,-623.31l-6232.89 0c-344.56,0 -623.31,278.8 -623.31,623.31l623.31 0c344.18,0 623.25,279.04 623.25,623.27l0 4362.89 5609.61 -0.01c344.57,0 623.32,-278.66 623.32,-623.19l0 -4362.96 0.02 0z"/>
  </g>
 </g>
</svg>
