<?xml version="1.0" encoding="UTF-8"?>
<!DOCTYPE svg PUBLIC "-//W3C//DTD SVG 1.1//EN" "http://www.w3.org/Graphics/SVG/1.1/DTD/svg11.dtd">
<!-- Creator: CorelDRAW X8 -->
<svg xmlns="http://www.w3.org/2000/svg" xml:space="preserve" width="231mm" height="231mm" version="1.1" style="shape-rendering:geometricPrecision; text-rendering:geometricPrecision; image-rendering:optimizeQuality; fill-rule:evenodd; clip-rule:evenodd"
viewBox="0 0 23100 23100"
 xmlns:xlink="http://www.w3.org/1999/xlink">
 <defs>
  <style type="text/css">
   <![CDATA[
    .fil1 {fill:#4F36E3}
    .fil0 {fill:url(#id0)}
   ]]>
  </style>
  <linearGradient id="id0" gradientUnits="userSpaceOnUse" x1="8425.81" y1="8272.18" x2="19510.5" y2="18763">
   <stop offset="0" style="stop-opacity:1; stop-color:white"/>
   <stop offset="1" style="stop-opacity:1; stop-color:white"/>
   <stop offset="19.2588" style="stop-opacity:1; stop-color:white"/>
   <stop offset="1" style="stop-opacity:1; stop-color:white"/>
  </linearGradient>
 </defs>
 <g id="Слой_x0020_1">
  <metadata id="CorelCorpID_0Corel-Layer"/>
  <path class="fil0" d="M22974 11545c0,5796 -5118,10497 -11431,10497 -6312,0 -11431,-4701 -11431,-10497 0,-5797 5119,-10498 11431,-10498 6313,0 11431,4701 11431,10498z"/>
  <path class="fil1" d="M16256 7273l-6948 6387 -2394 -2191c-446,-409 -1169,-409 -1615,1 -447,410 -446,1076 1,1485l3202 2933c446,410 1170,409 1615,-1l7756 -7130c446,-411 446,-1075 0,-1485 -447,-410 -1171,-410 -1617,1z"/>
 </g>
</svg>
