<svg width="20" height="20" viewBox="0 0 20 20" fill="none" xmlns="http://www.w3.org/2000/svg">
<path fill-rule="evenodd" clip-rule="evenodd" d="M9.99967 19.1666C4.93692 19.1666 0.833008 15.0627 0.833008 9.99998C0.833008 4.93723 4.93692 0.833313 9.99967 0.833313C15.0624 0.833313 19.1663 4.93723 19.1663 9.99998C19.1663 15.0627 15.0624 19.1666 9.99967 19.1666ZM17.333 9.99998C17.333 8.05506 16.5604 6.1898 15.1851 4.81453C13.8099 3.43926 11.9446 2.66665 9.99967 2.66665C8.05475 2.66665 6.18949 3.43926 4.81422 4.81453C3.43896 6.1898 2.66634 8.05506 2.66634 9.99998C2.66634 11.9449 3.43896 13.8102 4.81422 15.1854C6.18949 16.5607 8.05475 17.3333 9.99967 17.3333C11.9446 17.3333 13.8099 16.5607 15.1851 15.1854C16.5604 13.8102 17.333 11.9449 17.333 9.99998ZM13.6663 9.08331C13.9095 9.08331 14.1426 9.17989 14.3145 9.3518C14.4864 9.52371 14.583 9.75686 14.583 9.99998C14.583 10.2431 14.4864 10.4763 14.3145 10.6482C14.1426 10.8201 13.9095 10.9166 13.6663 10.9166H10.9163C9.90801 10.9166 9.08301 10.0916 9.08301 9.08331V5.41665C9.08301 5.17353 9.17959 4.94037 9.35149 4.76847C9.5234 4.59656 9.75656 4.49998 9.99967 4.49998C10.2428 4.49998 10.4759 4.59656 10.6479 4.76847C10.8198 4.94037 10.9163 5.17353 10.9163 5.41665V9.08331H13.6663Z" fill="#AEADB2"/>
</svg>
