<?xml version="1.0" encoding="UTF-8"?>
<!DOCTYPE svg PUBLIC "-//W3C//DTD SVG 1.1//EN" "http://www.w3.org/Graphics/SVG/1.1/DTD/svg11.dtd">
<!-- Creator: CorelDRAW X8 -->
<svg xmlns="http://www.w3.org/2000/svg" xml:space="preserve" width="30mm" height="30mm" version="1.1" style="shape-rendering:geometricPrecision; text-rendering:geometricPrecision; image-rendering:optimizeQuality; fill-rule:evenodd; clip-rule:evenodd"
viewBox="0 0 3000 3000"
 xmlns:xlink="http://www.w3.org/1999/xlink">
 <defs>
  <style type="text/css">
   <![CDATA[
    .fil0 {fill:black}
   ]]>
  </style>
 </defs>
 <g id="Слой_x0020_1">
  <metadata id="CorelCorpID_0Corel-Layer"/>
  <path class="fil0" d="M1500 2993c-825,0 -1493,-668 -1493,-1493 0,-825 668,-1493 1493,-1493 825,0 1493,668 1493,1493 0,825 -668,1493 -1493,1493zm1194 -1493c0,-317 -125,-621 -349,-845 -224,-224 -528,-349 -845,-349 -317,0 -621,125 -845,349 -224,224 -349,528 -349,845 0,317 125,621 349,845 224,224 528,349 845,349 317,0 621,-125 845,-349 224,-224 349,-528 349,-845zm-597 -149c40,0 78,15 106,43 28,28 44,66 44,106 0,40 -16,78 -44,106 -28,28 -66,43 -106,43l-448 0c-164,0 -298,-134 -298,-298l0 -598c0,-39 15,-77 43,-105 28,-28 66,-44 106,-44 40,0 78,16 106,44 28,28 43,66 43,105l0 598 448 0z"/>
 </g>
</svg>
