<svg width="24" height="25" viewBox="0 0 24 25" fill="none" xmlns="http://www.w3.org/2000/svg">
<path d="M9 12.1707H15H9ZM9 16.1707H15H9ZM17 21.1707H7C6.46957 21.1707 5.96086 20.9599 5.58579 20.5849C5.21071 20.2098 5 19.7011 5 19.1707V5.17065C5 4.64022 5.21071 4.13151 5.58579 3.75644C5.96086 3.38137 6.46957 3.17065 7 3.17065H12.586C12.8512 3.17071 13.1055 3.2761 13.293 3.46365L18.707 8.87765C18.8946 9.06515 18.9999 9.31946 19 9.58465V19.1707C19 19.7011 18.7893 20.2098 18.4142 20.5849C18.0391 20.9599 17.5304 21.1707 17 21.1707Z" stroke="#111111" stroke-width="2" stroke-linecap="round" stroke-linejoin="round"/>
</svg>
