<svg width="24" height="25" viewBox="0 0 24 25" fill="none" xmlns="http://www.w3.org/2000/svg">
<path d="M9 12.1706H15H9ZM9 16.1706H15H9ZM17 21.1706H7C6.46957 21.1706 5.96086 20.9599 5.58579 20.5848C5.21071 20.2097 5 19.701 5 19.1706V5.17059C5 4.64016 5.21071 4.13145 5.58579 3.75638C5.96086 3.38131 6.46957 3.17059 7 3.17059H12.586C12.8512 3.17065 13.1055 3.27604 13.293 3.46359L18.707 8.87759C18.8946 9.06509 18.9999 9.3194 19 9.58459V19.1706C19 19.701 18.7893 20.2097 18.4142 20.5848C18.0391 20.9599 17.5304 21.1706 17 21.1706Z" stroke="#AEADB2" stroke-width="2" stroke-linecap="round" stroke-linejoin="round"/>
</svg>
