<svg width="17" height="17" viewBox="0 0 17 17" fill="none" xmlns="http://www.w3.org/2000/svg">
<path d="M12.0275 10.1371C11.7974 10.0022 11.5147 10.005 11.2857 10.141L10.1263 10.8318C9.8668 10.9865 9.54267 10.9684 9.30467 10.7825C8.89327 10.4612 8.23083 9.92062 7.65453 9.34432C7.07823 8.76802 6.53763 8.10558 6.21633 7.69418C6.03047 7.45618 6.01233 7.13205 6.16703 6.87252L6.8578 5.71312C6.99437 5.48418 6.9955 5.19915 6.86063 4.96908L5.1595 2.06322C4.9946 1.78215 4.66707 1.64388 4.3503 1.72152C4.0426 1.79632 3.6431 1.97878 3.22433 2.39812C1.91307 3.70938 1.21663 5.92108 6.14777 10.8522C11.0789 15.7833 13.29 15.0875 14.6019 13.7756C15.0218 13.3557 15.2037 12.9557 15.279 12.6474C15.3555 12.3312 15.2195 12.0059 14.939 11.8416C14.2386 11.4319 12.7279 10.5473 12.0275 10.1371Z" fill="#111111"/>
</svg>
