<svg width="24" height="25" viewBox="0 0 24 25" fill="none" xmlns="http://www.w3.org/2000/svg">
<path d="M12 14.1706C14.206 14.1706 16 12.3766 16 10.1706C16 7.96459 14.206 6.17059 12 6.17059C9.794 6.17059 8 7.96459 8 10.1706C8 12.3766 9.794 14.1706 12 14.1706ZM12 8.17059C13.103 8.17059 14 9.06759 14 10.1706C14 11.2736 13.103 12.1706 12 12.1706C10.897 12.1706 10 11.2736 10 10.1706C10 9.06759 10.897 8.17059 12 8.17059Z" fill="#AEADB2"/>
<path d="M11.4201 21.9846C11.5893 22.1055 11.7921 22.1704 12.0001 22.1704C12.2081 22.1704 12.4108 22.1055 12.5801 21.9846C12.8841 21.7696 20.0291 16.6106 20.0001 10.1706C20.0001 5.75959 16.4111 2.17059 12.0001 2.17059C7.58909 2.17059 4.00009 5.75959 4.00009 10.1656C3.97109 16.6106 11.1161 21.7696 11.4201 21.9846ZM12.0001 4.17059C15.3091 4.17059 18.0001 6.86159 18.0001 10.1756C18.0211 14.6136 13.6121 18.5986 12.0001 19.9056C10.3891 18.5976 5.97909 14.6116 6.00009 10.1706C6.00009 6.86159 8.69109 4.17059 12.0001 4.17059Z" fill="#AEADB2"/>
</svg>
