<?xml version="1.0" encoding="UTF-8"?>
<!DOCTYPE svg PUBLIC "-//W3C//DTD SVG 1.1//EN" "http://www.w3.org/Graphics/SVG/1.1/DTD/svg11.dtd">
<!-- Creator: CorelDRAW X8 -->
<svg xmlns="http://www.w3.org/2000/svg" xml:space="preserve" width="30mm" height="30mm" version="1.1" style="shape-rendering:geometricPrecision; text-rendering:geometricPrecision; image-rendering:optimizeQuality; fill-rule:evenodd; clip-rule:evenodd"
viewBox="0 0 3000 3000"
 xmlns:xlink="http://www.w3.org/1999/xlink">
 <defs>
  <style type="text/css">
   <![CDATA[
    .fil0 {fill:black}
   ]]>
  </style>
 </defs>
 <g id="Слой_x0020_1">
  <metadata id="CorelCorpID_0Corel-Layer"/>
  <path class="fil0" d="M1500 1795c324,0 588,-263 588,-588 0,-324 -264,-588 -588,-588 -324,0 -588,264 -588,588 0,325 264,588 588,588zm0 -882c162,0 294,132 294,294 0,162 -132,294 -294,294 -162,0 -294,-132 -294,-294 0,-162 132,-294 294,-294z"/>
  <path class="fil0" d="M1415 2944c25,18 54,28 85,28 31,0 60,-10 85,-28 45,-31 1095,-790 1091,-1737 0,-648 -527,-1176 -1176,-1176 -649,0 -1176,528 -1176,1176 -4,947 1046,1706 1091,1737zm85 -2619c487,0 882,396 882,883 3,652 -645,1238 -882,1431 -237,-193 -885,-779 -882,-1432 0,-486 396,-882 882,-882z"/>
 </g>
</svg>
