<svg width="68" height="82" viewBox="0 0 68 82" fill="none" xmlns="http://www.w3.org/2000/svg">
<path d="M58.985 54.1685H68V52.5099L61.9771 39.5499L67.2804 28.827V27.1685H59.326L54.4394 37.2356H52.0152V27.1685H43V54.1685H52.0152V43.7542H54.25L58.985 54.1685Z" fill="#552FEC"/>
<path d="M44.3798 3.69523C42.3348 1.65953 39.0191 1.65954 36.9741 3.69523L3.53378 36.9825C1.48874 39.0182 1.48874 42.3187 3.53379 44.3544L36.9741 77.6419C39.0191 79.6773 42.3348 79.6773 44.3798 77.6419L54.3824 67.685C55.7017 66.3713 54.7673 64.1254 52.9013 64.1254H40.8439C38.0492 64.1254 35.465 62.6472 34.0576 60.244L24.8901 44.5885C23.4651 42.155 23.4651 39.1467 24.8901 36.7132L34.0576 21.0577C35.465 18.6543 38.0492 17.1763 40.8439 17.1763H52.8659C54.7318 17.1763 55.6668 14.9304 54.3471 13.6168L44.3798 3.69523Z" stroke="#A189FF" stroke-width="4"/>
</svg>
