<svg width="101" height="73" viewBox="0 0 101 73" fill="none" xmlns="http://www.w3.org/2000/svg">
<rect x="2" y="2.16846" width="97" height="68" rx="9" stroke="#A189FF" stroke-width="4"/>
<path d="M71.7563 30.817C71.0666 26.7639 67.7333 23.6319 63.7104 23.6319C59.6875 23.6319 56.3543 26.7025 55.6646 30.817C54.4003 31.0012 53.3658 32.168 53.3658 33.6419V44.8802C53.3658 46.4154 54.5727 47.7051 56.0095 47.7051H71.354C72.7907 47.7051 73.9976 46.4154 73.9976 44.8802V33.5805C74.0551 32.168 73.0781 31.0012 71.7563 30.817ZM63.7104 27.685C65.607 27.685 67.2161 28.9747 67.8483 30.7556H59.5726C60.2048 28.9747 61.8139 27.685 63.7104 27.685Z" fill="#552FEC"/>
<path d="M35.5976 25.9246V36.2416M35.5976 46.5587V36.2416M35.5976 36.2416L44.1951 31.2031M35.5976 36.2416L27 41.2802M35.5976 36.2416L44.1951 41.2802M35.5976 36.2416L27 31.2031" stroke="#A189FF" stroke-width="4" stroke-linecap="round"/>
</svg>
