<svg width="527" height="146" viewBox="0 0 527 146" fill="none" xmlns="http://www.w3.org/2000/svg">
<path d="M108.239 98.5757H125.503V95.4565L113.969 71.0832L124.125 50.9171V47.7979H108.892L99.5339 66.7308H94.8914V47.7979H77.627V98.5757H94.8914V78.99H99.1712L108.239 98.5757Z" fill="black"/>
<path d="M132.278 98.5757H149.543V81.3838H152.517C167.387 81.3838 174.714 76.0159 174.714 64.6997C174.714 53.2384 168.258 47.7979 153.315 47.7979H132.278V98.5757ZM149.325 58.7514H152.227C156.579 58.7514 157.957 60.7825 157.957 64.7722C157.957 68.6894 156.506 71.3008 152.227 71.3008H149.325V58.7514Z" fill="black"/>
<path d="M181.121 98.5757H218.769V87.2595H198.313V78.4097H211.878V67.5287H198.313V59.4043H218.116V47.7979H181.121V98.5757Z" fill="black"/>
<path d="M243.615 98.5757V59.9846H254.568V98.5757H271.833V47.7979H226.35V98.5757H243.615Z" fill="black"/>
<path d="M278.547 83.6325H297.77V72.0262H278.547V83.6325Z" fill="black"/>
<path d="M335.166 98.5757H352.431V95.4565L340.897 71.0832L351.052 50.9171V47.7979H335.819L326.461 66.7308H321.819V47.7979H304.554V98.5757H321.819V78.99H326.099L335.166 98.5757Z" fill="black"/>
<path d="M380.666 99.3736C395.464 99.3736 406.635 90.1611 406.635 73.3319C406.635 56.5027 395.101 47 380.666 47C366.303 47 354.769 56.5027 354.769 73.3319C354.769 90.1611 365.868 99.3736 380.666 99.3736ZM380.666 87.6948C375.588 87.6948 372.179 83.56 372.179 73.4044C372.179 63.2489 375.588 59.1141 380.666 59.1141C385.744 59.1141 389.153 63.2489 389.153 73.4044C389.153 83.56 385.744 87.6948 380.666 87.6948Z" fill="black"/>
<path d="M413.432 98.5757H427.069V67.0935H427.287L436.717 98.5757H446.292L455.795 67.0935H456.013V98.5757H472.697V47.7979H450.862L443.246 73.3319H443.028L435.411 47.7979H413.432V98.5757Z" fill="black"/>
<path d="M498.736 98.5757V59.9846H509.69V98.5757H526.954V47.7979H481.472V98.5757H498.736Z" fill="black"/>
<path d="M80.577 2.89393C76.7185 -0.964646 70.4625 -0.964641 66.6039 2.89393L3.50916 65.9887C-0.349412 69.8473 -0.349406 76.1032 3.50917 79.9618L66.6039 143.057C70.4625 146.915 76.7185 146.915 80.577 143.057L99.4497 124.184C101.939 121.694 100.176 117.437 96.6551 117.437H73.9055C68.6325 117.437 63.7566 114.635 61.1012 110.08L43.8039 80.4055C41.1153 75.793 41.1153 70.0908 43.8039 65.4783L61.1012 35.8039C63.7566 31.2483 68.6325 28.4467 73.9055 28.4467L96.5884 28.4467C100.109 28.4467 101.873 24.1897 99.383 21.6999L80.577 2.89393Z" fill="#552FEC"/>
</svg>
