<?xml version="1.0" encoding="UTF-8"?>
<!DOCTYPE svg PUBLIC "-//W3C//DTD SVG 1.1//EN" "http://www.w3.org/Graphics/SVG/1.1/DTD/svg11.dtd">
<!-- Creator: CorelDRAW 2020 (64-Bit) -->
<svg xmlns="http://www.w3.org/2000/svg" xml:space="preserve" width="270mm" height="96mm" version="1.1" style="shape-rendering:geometricPrecision; text-rendering:geometricPrecision; image-rendering:optimizeQuality; fill-rule:evenodd; clip-rule:evenodd"
viewBox="0 0 27000 9600"
 xmlns:xlink="http://www.w3.org/1999/xlink"
 xmlns:xodm="http://www.corel.com/coreldraw/odm/2003">
 <defs>
  <style type="text/css">
   <![CDATA[
    .fil0 {fill:#1D1B19}
    .fil2 {fill:#2C2829;fill-rule:nonzero}
    .fil1 {fill:#3F3285;fill-rule:nonzero}
   ]]>
  </style>
 </defs>
 <g id="Слой_x0020_1">
  <metadata id="CorelCorpID_0Corel-Layer"/>
  <path class="fil0" d="M3292.01 7123.15c-1074.12,0 -1953.14,-1068.82 -1953.14,-2374.88 0,-1306.24 879.02,-2374.95 1953.14,-2374.95l3861.43 0 -3358.77 -1955.82 -1874.21 1091.34 -1874.19 1091.52 0 4365.54 3748.4 2183 3478.54 -2025.75 -3981.2 0z"/>
  <path class="fil1" d="M3421.41 6551.56l-690.9 0 0 -3500.81 690.9 0 0 1587.74 8.37 0 437.08 -1587.74 657.7 0 -461.96 1544.31 466.76 1956.5 -683.23 0 -416.35 -1776.08 -8.37 0 0 1776.08zm18102.27 -2999.32l0 0 0 1145.33 109.56 0c79.56,0 137.89,-18.19 173.55,-54.96 36.13,-36.13 59.33,-92.63 69.68,-169.79 10.49,-76.12 15.43,-191.73 15.43,-345.01 0,-154.15 -4.94,-269.65 -15.43,-347.53 -10.35,-77.84 -33.55,-135.16 -69.68,-172.08 -36.38,-36.84 -94.6,-55.96 -173.55,-55.96l-109.56 0zm0 2999.32l0 0 -695.95 0 0 -3500.81 851.77 0c299.58,0 526.09,54.17 678.9,162.41 153.32,108.92 229.44,304.85 229.44,589.11l0 639.4c0,247.52 -78.95,435.14 -236.1,563.9 -157.4,128.72 -348.09,193.31 -572.45,193.31l-255.61 0 0 1352.68zm-3165.07 -2989.37l0 0 0 2989.37 -557.7 0 0 -3500.81 1022.24 0 294.18 2487.7 8.41 0 293.42 -2487.7 1002.01 0 0 3500.81 -628.1 0 0 -2989.37 -9.13 0 -402.37 2989.37 -612.09 0 -402.49 -2989.37 -8.38 0zm-2029.64 255.69l0 0 0 1967.16c0,183 61.44,274.7 184.43,274.7 122.34,0 183.79,-91.7 183.79,-274.7l0 -1967.16c0,-184.29 -61.45,-276.13 -183.79,-276.13 -122.99,0 -184.43,91.84 -184.43,276.13zm1064.16 186.18l0 0 0 1593.29c0,681.95 -293.46,1022.88 -879.73,1022.88 -586.92,0 -880.38,-340.93 -880.38,-1022.88l0 -1593.29c0,-253.28 39.85,-455.69 118.91,-607.36 78.95,-152.53 183.54,-259.77 314.3,-322.07 130.51,-62.23 279.53,-93.38 447.17,-93.38 167.75,0 316.52,31.15 447.13,93.38 130.15,62.3 234.74,169.54 313.69,322.07 78.95,151.67 118.91,354.08 118.91,607.36zm-3236.39 2547.5l0 0 -695.83 0 0 -3500.81 695.83 0 0 1587.74 8.38 0 440.12 -1587.74 662.53 0 -465.39 1544.31 470.19 1956.5 -688.17 0 -419.28 -1776.08 -8.38 0 0 1776.08zm-1725.3 -1217.87l0 0 -1034.45 0 0 -668.74 1034.45 0 0 668.74zm-2931.22 -1781.45l0 0 0 1145.33 109.17 0c78.91,0 136.66,-18.19 171.79,-54.96 36.16,-36.13 59.22,-92.63 69.6,-169.79 10.21,-76.12 15.29,-191.73 15.29,-345.01 0,-154.15 -5.08,-269.65 -15.29,-347.53 -10.38,-77.84 -33.44,-135.16 -69.6,-172.08 -35.88,-36.84 -93.6,-55.96 -171.79,-55.96l-109.17 0zm0 2999.32l0 0 -690.79 0 0 -3500.81 845.72 0c297.5,0 522.25,54.17 674.24,162.41 151.96,108.92 227.58,304.85 227.58,589.11l0 639.4c0,247.52 -78.34,435.14 -234.63,563.9 -156.04,128.72 -345.52,193.31 -568.05,193.31l-254.07 0 0 1352.68zm-1032.84 0l0 0 -1431.74 0 0 -3500.81 1431.74 0 0 530.56 -740.73 0 0 766.91 715.81 0 0 530.38 -715.81 0 0 1142.54 740.73 0 0 530.42zm-2897.42 0l0 0 -691 0 0 -3500.81 695.08 0c249.78,0 446.78,18.08 591.58,54.17 145.08,36.06 257.69,113.18 337.24,230.16 79.96,118.12 120.02,295.14 120.02,532.28 0,461.28 -176.02,726.95 -528.66,795.66l0 9.02c171.44,0 302.7,50.88 392.75,150.92 90.76,100.65 135.91,270.26 135.91,508.9l0 731.89c0,205.88 34.81,368.15 104.73,487.81l-694.94 0c-67.38,-115.72 -100.68,-278.06 -100.68,-487.81l0 -741.77c0,-116.44 -24.17,-206.56 -73.51,-271.26 -49.34,-64.81 -108.31,-97.57 -176.77,-97.57l-111.75 0 0 1598.41zm0 -2999.32l0 0 0 899.14c103.37,0 180.21,-14.58 231.66,-43.15 51.92,-28.79 86.11,-73.87 103.98,-136.17 17.4,-61.44 26.39,-152.38 26.39,-272.29 0,-172.01 -22.95,-289.02 -67.96,-352.29 -45.04,-63.16 -142.97,-95.24 -294.07,-95.24z"/>
  <path class="fil2" d="M23032.29 3639.57l0 -992.66 -327.76 0 0 -132.81 788.86 0 0 132.81 -329.23 0 0 992.66 -131.87 0zm592.07 0l0 0 0 -1125.47 198.36 0 235.49 796.92c21.7,74.15 37.85,129.72 47.48,166.71 11.25,-40.93 28.86,-101.26 53.03,-180.53l238.21 -783.1 177.38 0 0 1125.47 -127.04 0 0 -942.29 -289.41 942.29 -118.66 0 -288.01 -958 0 958 -126.83 0z"/>
 </g>
</svg>
