<?xml version="1.0" encoding="UTF-8"?>
<!DOCTYPE svg PUBLIC "-//W3C//DTD SVG 1.1//EN" "http://www.w3.org/Graphics/SVG/1.1/DTD/svg11.dtd">
<!-- Creator: CorelDRAW 2020 (64-Bit) -->
<svg xmlns="http://www.w3.org/2000/svg" xml:space="preserve" width="8.4666mm" height="8.4666mm" version="1.1" style="shape-rendering:geometricPrecision; text-rendering:geometricPrecision; image-rendering:optimizeQuality; fill-rule:evenodd; clip-rule:evenodd"
viewBox="0 0 846.66 846.66"
 xmlns:xlink="http://www.w3.org/1999/xlink"
 xmlns:xodm="http://www.corel.com/coreldraw/odm/2003">
 <defs>
  <style type="text/css">
   <![CDATA[
    .str0 {stroke:black;stroke-width:26.46;stroke-miterlimit:22.9256}
    .fil1 {fill:none;fill-rule:nonzero}
    .fil0 {fill:white;fill-rule:nonzero}
   ]]>
  </style>
 </defs>
 <g id="Слой_x0020_1">
  <metadata id="CorelCorpID_0Corel-Layer"/>
  <g id="_767754672" filter="url(#filter0_d)">
   <path class="fil0" d="M317.5 243.42l211.66 0c73.04,0 132.28,59.24 132.28,132.29l0.02 211.67c-0.02,73.03 -59.26,132.27 -132.31,132.27l-211.65 0.02c-73.04,-0.02 -132.28,-59.26 -132.28,-132.29l-0.02 -211.67c0.02,-73.05 59.26,-132.29 132.31,-132.29z"/>
   <path class="fil1 str0" d="M317.5 256.65l211.66 0c65.73,0 119.05,53.32 119.05,119.06l0.02 211.67c-0.02,65.72 -53.34,119.04 -119.08,119.04l-211.65 0.02c-65.73,-0.02 -119.05,-53.34 -119.05,-119.06l-0.02 -211.67c0.02,-65.74 53.34,-119.06 119.08,-119.06z"/>
  </g>
 </g>
</svg>
