<svg width="29" height="30" viewBox="0 0 29 30" fill="none" xmlns="http://www.w3.org/2000/svg">
<rect y="0.306641" width="29" height="29" rx="3" fill="#F0F0F0"/>
<path fill-rule="evenodd" clip-rule="evenodd" d="M20.1274 9.53995C18.6828 8.10056 16.7619 7.30749 14.7156 7.30664C10.4987 7.30664 7.06587 10.7223 7.06416 14.9209C7.06416 16.2628 7.41614 17.5724 8.08515 18.7276L7.00024 22.6726L11.0561 21.6132C12.1742 22.2197 13.4321 22.5395 14.7122 22.5403H14.7156C18.9317 22.5403 22.3645 19.1246 22.3662 14.926C22.3662 12.892 21.5719 10.9793 20.1274 9.53995ZM14.7156 21.2553H14.7131C13.5719 21.2544 12.4529 20.9499 11.4762 20.3723L11.2444 20.2349L8.83769 20.8634L9.47943 18.5283L9.32858 18.2891C8.69195 17.2815 8.35617 16.1169 8.35617 14.9209C8.35787 11.4314 11.2103 8.59251 14.7182 8.59251C16.4167 8.59336 18.013 9.25241 19.2138 10.4484C20.4137 11.6452 21.0751 13.2347 21.0742 14.926C21.0725 18.4155 18.2201 21.2553 14.7156 21.2553ZM18.2039 16.5147C18.0121 16.4188 17.0729 15.9591 16.8974 15.8955C16.7227 15.8319 16.5957 15.8005 16.4678 15.9905C16.34 16.1805 15.9735 16.6088 15.8619 16.7361C15.7502 16.8633 15.6386 16.8786 15.4477 16.7836C15.2568 16.6886 14.6406 16.4876 13.9102 15.8395C13.3418 15.3349 12.9583 14.7123 12.8466 14.5214C12.735 14.3306 12.8347 14.2279 12.931 14.133C13.0171 14.0481 13.1219 13.9107 13.2174 13.7996C13.3128 13.6885 13.3444 13.6096 13.4083 13.4824C13.4722 13.3552 13.4407 13.244 13.3921 13.149C13.3444 13.0532 12.9617 12.1168 12.8023 11.7359C12.6481 11.367 12.4904 11.4162 12.3728 11.4111C12.262 11.406 12.1342 11.4043 12.0072 11.4043C11.8793 11.4043 11.6723 11.4518 11.4967 11.6418C11.3211 11.8326 10.8277 12.2924 10.8277 13.2288C10.8277 14.1652 11.5129 15.0702 11.6083 15.1974C11.7038 15.3247 12.9566 17.2458 14.8741 18.0703C15.3309 18.2662 15.6872 18.3833 15.9642 18.4715C16.4218 18.6165 16.8386 18.5953 17.1684 18.547C17.5357 18.4927 18.2993 18.0873 18.4587 17.6428C18.6181 17.1983 18.6181 16.8175 18.5703 16.7378C18.5226 16.658 18.3939 16.6097 18.2039 16.5147Z" fill="black"/>
</svg>
