<svg width="428" height="428" viewBox="0 0 428 428" fill="none" xmlns="http://www.w3.org/2000/svg">
<path fill-rule="evenodd" clip-rule="evenodd" d="M228.566 303.717C220.859 310.939 209.68 319.536 196.091 319.536C176.47 319.536 162.436 309.1 152.91 302.017C152.772 301.915 152.634 301.812 152.498 301.712C141.618 293.624 136.415 290.203 130.042 290.203C124.775 290.203 118.236 294.177 111.466 302.077C108.413 305.637 105.941 309.279 104.225 312.065C103.377 313.439 102.739 314.565 102.331 315.31C102.127 315.681 101.982 315.956 101.899 316.116L101.824 316.261C97.8948 324.172 88.3074 327.384 80.3935 323.459C72.4774 319.532 69.2433 309.932 73.1699 302.015L87.5035 309.125C73.1699 302.015 73.1677 302.019 73.1699 302.015L73.1893 301.976L73.2153 301.925L73.2872 301.782L73.5093 301.351C73.6919 300.999 73.9441 300.524 74.2634 299.939C74.9011 298.776 75.8135 297.172 76.9836 295.273C79.3028 291.51 82.7383 286.42 87.1682 281.251C95.3627 271.692 110.093 258.203 130.042 258.203C147.793 258.203 161.11 268.182 169.996 274.838C170.543 275.25 171.073 275.647 171.587 276.029C181.789 283.611 188.048 287.536 196.091 287.536C196.091 287.536 196.935 287.515 198.898 286.416C200.944 285.268 203.525 283.329 206.687 280.368C212.822 274.616 219.261 266.866 226.676 257.94C227.062 257.473 227.453 257.004 227.845 256.53C235.35 247.5 243.884 237.324 252.799 229.467C261.379 221.906 273.053 213.979 287.013 213.979C299.35 213.979 309.936 218.962 318.252 225.008C326.555 231.043 333.45 238.738 338.813 245.836C344.231 253.006 348.472 260.082 351.348 265.315C352.795 267.952 353.921 270.166 354.698 271.753C355.088 272.549 355.391 273.189 355.606 273.65L355.862 274.205L355.939 274.375L355.975 274.454C355.978 274.459 355.984 274.471 341.371 280.987L355.975 274.454C359.574 282.525 355.956 292.001 347.886 295.6C339.822 299.195 330.371 295.579 326.766 287.523C326.766 287.521 326.757 287.504 326.757 287.502L326.744 287.476L326.608 287.177C326.474 286.892 326.258 286.437 325.964 285.836C325.375 284.635 324.477 282.864 323.299 280.718C320.92 276.387 317.501 270.712 313.283 265.129C309.008 259.474 304.289 254.42 299.436 250.889C294.597 247.372 290.484 245.979 287.013 245.979C285.142 245.979 281.027 247.246 273.955 253.477C267.218 259.412 260.234 267.625 252.458 276.984C251.926 277.622 251.391 278.267 250.853 278.917C243.896 287.297 236.234 296.534 228.566 303.717V303.717Z" fill="#552FEC"/>
<path fill-rule="evenodd" clip-rule="evenodd" d="M141.055 135.001C131.563 135.006 123.849 142.718 123.849 152.238C123.849 161.761 131.568 169.475 141.065 169.475C150.59 169.475 158.302 161.755 158.302 152.238C158.302 142.741 150.607 135.017 141.055 135.001ZM91.8489 152.238C91.8489 125.068 113.868 103.001 141.065 103.001H141.083C168.263 103.032 190.303 125.044 190.303 152.238C190.303 179.414 168.276 201.475 141.065 201.475C113.868 201.475 91.8489 179.408 91.8489 152.238Z" fill="#552FEC"/>
<path fill-rule="evenodd" clip-rule="evenodd" d="M48.5288 48.5258C84.1081 12.9465 139.123 0.668945 214.004 0.668945C288.886 0.668945 343.903 12.9465 379.481 48.5258C415.06 84.1051 427.338 139.12 427.338 214.002C427.338 288.884 415.06 343.899 379.481 379.478C343.903 415.058 288.886 427.335 214.004 427.335C139.123 427.335 84.1081 415.058 48.5288 379.478C12.9495 343.899 0.671753 288.884 0.671753 214.002C0.671753 139.12 12.9495 84.1051 48.5288 48.5258V48.5258ZM71.1562 71.1532C45.0662 97.2432 32.6718 140.895 32.6718 214.002C32.6718 287.109 45.0662 330.762 71.1562 356.852C97.2463 382.941 140.898 395.335 214.004 395.335C287.111 395.335 330.764 382.941 356.854 356.852C382.945 330.762 395.338 287.109 395.338 214.002C395.338 140.895 382.945 97.2432 356.854 71.1532C330.764 45.0632 287.111 32.6689 214.004 32.6689C140.898 32.6689 97.2463 45.0632 71.1562 71.1532Z" fill="#552FEC"/>
</svg>
