<svg width="29" height="30" viewBox="0 0 29 30" fill="none" xmlns="http://www.w3.org/2000/svg">
<rect y="0.306641" width="29" height="29" rx="3" fill="#F0F0F0"/>
<path d="M21.952 10.957C22.0661 10.5818 21.952 10.3066 21.4127 10.3066H19.6259C19.1713 10.3066 18.9635 10.5447 18.8494 10.8061C18.8494 10.8061 17.941 13.0001 16.6537 14.4226C16.2382 14.8366 16.0483 14.9673 15.8218 14.9673C15.7086 14.9673 15.544 14.8366 15.544 14.4614V10.957C15.544 10.5068 15.4128 10.3066 15.034 10.3066H12.2263C11.9428 10.3066 11.7717 10.5148 11.7717 10.7133C11.7717 11.1394 12.4154 11.2378 12.4813 12.4385V15.0432C12.4813 15.6136 12.3779 15.7177 12.1497 15.7177C11.5444 15.7177 10.0713 13.5157 9.19709 10.9949C9.0268 10.5051 8.85489 10.3074 8.39863 10.3074H6.61269C6.10184 10.3074 6 10.5455 6 10.8069C6 11.2765 6.60536 13.6004 8.81986 16.6739C10.2962 18.7726 12.3746 19.9104 14.2681 19.9104C15.403 19.9104 15.5432 19.6578 15.5432 19.2221V17.6357C15.5432 17.1306 15.6515 17.0289 16.0109 17.0289C16.2748 17.0289 16.7295 17.1613 17.7895 18.1723C19.0002 19.3714 19.2006 19.9096 19.8809 19.9096H21.6669C22.1769 19.9096 22.4319 19.657 22.2853 19.1583C22.1248 18.6621 21.5463 17.9399 20.7788 17.0854C20.3616 16.5981 19.7383 16.0736 19.5485 15.8113C19.2837 15.4732 19.3603 15.324 19.5485 15.0238C19.5493 15.0246 21.7255 11.989 21.952 10.957Z" fill="black"/>
</svg>
