<svg width="29" height="30" viewBox="0 0 29 30" fill="none" xmlns="http://www.w3.org/2000/svg">
<rect y="0.306641" width="29" height="29" rx="3" fill="#F0F0F0"/>
<rect y="0.306641" width="29" height="29" rx="3" fill="#F0F0F0"/>
<path d="M14.5009 5.30664C11.9208 5.30664 11.597 5.31792 10.5837 5.36404C9.57232 5.41035 8.88198 5.57046 8.27793 5.80539C7.6531 6.04804 7.12307 6.37262 6.59503 6.90086C6.06658 7.4289 5.742 7.95892 5.49856 8.58355C5.26303 9.18779 5.10272 9.87832 5.0572 10.8893C5.01188 11.9026 5 12.2266 5 14.8066C5 17.3867 5.01148 17.7095 5.0574 18.7228C5.10391 19.7342 5.26402 20.4245 5.49876 21.0285C5.7416 21.6534 6.06619 22.1834 6.59443 22.7114C7.12228 23.2399 7.65231 23.5652 8.27674 23.8079C8.88119 24.0428 9.57172 24.2029 10.5829 24.2492C11.5962 24.2954 11.9198 24.3066 14.4997 24.3066C17.08 24.3066 17.4028 24.2954 18.4161 24.2492C19.4275 24.2029 20.1186 24.0428 20.7231 23.8079C21.3477 23.5652 21.8769 23.2399 22.4048 22.7114C22.9332 22.1834 23.2578 21.6534 23.5012 21.0287C23.7348 20.4245 23.8951 19.734 23.9426 18.723C23.9881 17.7097 24 17.3867 24 14.8066C24 12.2266 23.9881 11.9028 23.9426 10.8895C23.8951 9.87812 23.7348 9.18779 23.5012 8.58374C23.2578 7.95892 22.9332 7.4289 22.4048 6.90086C21.8763 6.37242 21.3479 6.04784 20.7225 5.80539C20.1168 5.57046 19.4261 5.41035 18.4147 5.36404C17.4014 5.31792 17.0788 5.30664 14.4979 5.30664H14.5009ZM13.6487 7.01862C13.9016 7.01822 14.1838 7.01862 14.5009 7.01862C17.0374 7.01862 17.3381 7.02772 18.3397 7.07324C19.266 7.1156 19.7687 7.27037 20.1036 7.4004C20.5469 7.57259 20.863 7.77842 21.1953 8.11092C21.5278 8.44342 21.7336 8.76009 21.9062 9.20342C22.0362 9.5379 22.1912 10.0406 22.2334 10.9669C22.2789 11.9683 22.2888 12.2691 22.2888 14.8045C22.2888 17.3398 22.2789 17.6406 22.2334 18.6421C22.191 19.5683 22.0362 20.071 21.9062 20.4055C21.734 20.8488 21.5278 21.1645 21.1953 21.4968C20.8628 21.8293 20.5471 22.0352 20.1036 22.2073C19.7691 22.338 19.266 22.4923 18.3397 22.5347C17.3383 22.5802 17.0374 22.5901 14.5009 22.5901C11.9642 22.5901 11.6635 22.5802 10.6621 22.5347C9.7358 22.4919 9.23309 22.3372 8.89801 22.2071C8.45467 22.035 8.138 21.8291 7.8055 21.4966C7.47299 21.1641 7.26716 20.8482 7.09457 20.4047C6.96454 20.0702 6.80957 19.5675 6.76741 18.6413C6.72189 17.6398 6.71279 17.339 6.71279 14.8021C6.71279 12.2652 6.72189 11.9659 6.76741 10.9645C6.80977 10.0382 6.96454 9.53553 7.09457 9.20065C7.26676 8.75732 7.47299 8.44065 7.8055 8.10815C8.138 7.77565 8.45467 7.56982 8.89801 7.39723C9.23289 7.26661 9.7358 7.11223 10.6621 7.06968C11.5384 7.0301 11.8781 7.01822 13.6487 7.01624V7.01862ZM19.572 8.59602C18.9426 8.59602 18.432 9.10605 18.432 9.73562C18.432 10.365 18.9426 10.8756 19.572 10.8756C20.2013 10.8756 20.712 10.365 20.712 9.73562C20.712 9.10624 20.2013 8.59602 19.572 8.59602ZM14.5009 9.92799C11.8066 9.92799 9.62219 12.1124 9.62219 14.8066C9.62219 17.5009 11.8066 19.6843 14.5009 19.6843C17.1952 19.6843 19.3788 17.5009 19.3788 14.8066C19.3788 12.1124 17.1952 9.92799 14.5009 9.92799ZM14.5009 11.64C16.2497 11.64 17.6676 13.0577 17.6676 14.8066C17.6676 16.5554 16.2497 17.9733 14.5009 17.9733C12.7519 17.9733 11.3342 16.5554 11.3342 14.8066C11.3342 13.0577 12.7519 11.64 14.5009 11.64Z" fill="black"/>
</svg>
