<svg width="512" height="512" viewBox="0 0 512 512" fill="none" xmlns="http://www.w3.org/2000/svg">
<g clip-path="url(#clip0_517_1805)">
<path fill-rule="evenodd" clip-rule="evenodd" d="M371.2 233.83C388.268 243.683 388.268 268.316 371.2 278.17L217.6 366.851C200.533 376.704 179.2 364.388 179.2 344.681V167.319C179.2 147.612 200.533 135.295 217.6 145.149L371.2 233.83ZM217.6 189.489L332.8 256L217.6 322.511V189.489V189.489Z" fill="#552FEC"/>
<path fill-rule="evenodd" clip-rule="evenodd" d="M512 256C512 397.384 397.384 512 256 512C114.615 512 0 397.384 0 256C0 114.615 114.615 0 256 0C397.384 0 512 114.615 512 256ZM473.6 256C473.6 376.177 376.177 473.6 256 473.6C135.823 473.6 38.4 376.177 38.4 256C38.4 135.823 135.823 38.4 256 38.4C376.177 38.4 473.6 135.823 473.6 256Z" fill="#552FEC"/>
</g>
<defs>
<clipPath id="clip0_517_1805">
<rect width="512" height="512" fill="white"/>
</clipPath>
</defs>
</svg>
