<?xml version="1.0" encoding="UTF-8"?>
<!DOCTYPE svg PUBLIC "-//W3C//DTD SVG 1.1//EN" "http://www.w3.org/Graphics/SVG/1.1/DTD/svg11.dtd">
<!-- Creator: CorelDRAW X8 -->
<svg xmlns="http://www.w3.org/2000/svg" xml:space="preserve" width="190mm" height="190mm" version="1.1" style="shape-rendering:geometricPrecision; text-rendering:geometricPrecision; image-rendering:optimizeQuality; fill-rule:evenodd; clip-rule:evenodd"
viewBox="0 0 19000 19000"
 xmlns:xlink="http://www.w3.org/1999/xlink">
 <defs>
  <style type="text/css">
   <![CDATA[
    .fil0 {fill:#4F36E3;fill-rule:nonzero}
   ]]>
  </style>
 </defs>
 <g id="Слой_x0020_1">
  <metadata id="CorelCorpID_0Corel-Layer"/>
  <path class="fil0" d="M13124 44c-1308,0 -2610,501 -3604,1489l11 -11 -8004 7641 1000 1045 8016 -7640 11 0c1427,-1432 3712,-1432 5139,0 1433,1427 1427,3712 0,5139l-9749 9153 -6 11c-864,858 -2229,858 -3092,0 -853,-858 -853,-2229 0,-3087l0 -6 9755 -9146 5 -6c290,-296 740,-296 1035,0 290,284 290,733 0,1023l-8470 7868 989 1069 8499 -7896 11 -6c841,-847 847,-2245 0,-3093 -847,-841 -2246,-847 -3093,0l-9749 9153 -6 11c-1415,1410 -1415,3729 0,5139 1410,1416 3730,1416 5139,0l9755 -9146 6 -7c1984,-1983 1984,-5224 0,-7208 -989,-988 -2291,-1489 -3598,-1489z"/>
 </g>
</svg>
