<?xml version="1.0" encoding="UTF-8"?>
<!DOCTYPE svg PUBLIC "-//W3C//DTD SVG 1.1//EN" "http://www.w3.org/Graphics/SVG/1.1/DTD/svg11.dtd">
<!-- Creator: CorelDRAW 2020 (64-Bit) -->
<svg xmlns="http://www.w3.org/2000/svg" xml:space="preserve" width="16.0866mm" height="16.0866mm" version="1.1" style="shape-rendering:geometricPrecision; text-rendering:geometricPrecision; image-rendering:optimizeQuality; fill-rule:evenodd; clip-rule:evenodd"
viewBox="0 0 1608.66 1608.66"
 xmlns:xlink="http://www.w3.org/1999/xlink"
 xmlns:xodm="http://www.corel.com/coreldraw/odm/2003">
 <defs>
  <style type="text/css">
   <![CDATA[
    .fil0 {fill:#979797;fill-rule:nonzero}
   ]]>
  </style>
 </defs>
 <g id="Слой_x0020_1">
  <metadata id="CorelCorpID_0Corel-Layer"/>
  <path class="fil0" d="M1101.53 0c-110.64,0 -220.81,42.33 -304.96,126l0.94 -0.94 -677.24 646.48 84.65 88.5 678.23 -646.48 0.94 0c120.75,-121.22 314.12,-121.22 434.84,0 121.22,120.71 120.75,314.09 0,434.84l-824.92 774.44 -0.47 0.94c-73.14,72.62 -188.6,72.62 -261.69,0 -72.15,-72.62 -72.15,-188.56 0,-261.18l0 -0.51 825.43 -773.93 0.47 -0.47c24.53,-25.04 62.55,-25.04 87.56,0 24.49,24.03 24.49,62.04 0,86.58l-716.72 665.72 83.68 90.41 719.14 -668.11 0.94 -0.47c71.21,-71.68 71.68,-190 0,-261.69 -71.68,-71.17 -190,-71.68 -261.69,0l-824.92 774.45 -0.47 0.94c-119.77,119.3 -119.77,315.53 0,434.83 119.3,119.78 315.54,119.78 434.84,0l825.39 -773.93 0.51 -0.51c167.86,-167.86 167.86,-442.05 0,-609.91 -83.71,-83.67 -193.84,-126 -304.48,-126z"/>
 </g>
</svg>
