<svg width="27" height="21" viewBox="0 0 27 21" fill="none" xmlns="http://www.w3.org/2000/svg">
<path fill-rule="evenodd" clip-rule="evenodd" d="M27 6.82154C26.6381 8.25732 26.3056 9.58124 25.9705 10.9048C25.5151 12.7054 25.0554 14.5054 24.6049 16.3074C24.5385 16.5713 24.4952 16.8427 24.4649 17.1133C24.2681 18.8836 22.8749 20.1507 21.0625 20.1592C17.9937 20.1719 14.9245 20.1712 11.8561 20.1592C9.98756 20.1518 8.61873 18.8324 8.42584 17.0114C8.28831 15.7111 8.03112 14.4239 7.81466 13.1324C7.47566 11.1081 7.12667 9.08512 6.78196 7.06149C6.76553 6.96551 6.76375 6.86389 6.73267 6.77285C6.18257 5.143 5.62925 3.51421 5.05843 1.83109C4.75873 1.83109 4.46546 1.83109 4.17255 1.83109C3.14272 1.83109 2.11288 1.83603 1.08376 1.8272C0.890157 1.82579 0.684761 1.80568 0.506157 1.73828C0.148947 1.60385 -0.0378726 1.25734 0.0064213 0.892839C0.0496436 0.530455 0.319694 0.250639 0.694406 0.187125C0.791567 0.17054 0.891943 0.169129 0.990175 0.169129C2.6537 0.16807 4.31686 0.16807 5.98039 0.17054C6.07719 0.17054 6.17399 0.191712 6.31402 0.207238C7.00308 2.38154 7.69285 4.55938 8.40834 6.8166C9.94398 6.82578 11.481 6.82013 13.017 6.82119C14.5616 6.82225 16.1066 6.82119 17.6504 6.82119C19.195 6.82119 20.7396 6.82119 22.2841 6.82119C23.8248 6.82154 25.3654 6.82154 27 6.82154ZM8.74054 8.53784C8.77769 8.81378 8.80091 9.02761 8.83592 9.23932C9.26457 11.8219 9.69786 14.4048 10.1229 16.9884C10.2701 17.8833 10.8988 18.4577 11.814 18.5011C11.9919 18.5092 12.1705 18.5043 12.3487 18.5043C14.9617 18.5043 17.5747 18.5043 20.1877 18.5043C20.4052 18.5043 20.6238 18.5057 20.841 18.5036C22.0094 18.4955 22.5999 18.0032 22.7917 16.8815C22.8217 16.7086 22.8614 16.5364 22.9039 16.3667C23.4211 14.3194 23.9401 12.2728 24.457 10.2259C24.5949 9.67898 24.7242 9.13064 24.8678 8.53784C19.4775 8.53784 14.1426 8.53784 8.74054 8.53784Z" fill="white"/>
</svg>
