<svg width="20" height="21" viewBox="0 0 20 21" fill="none" xmlns="http://www.w3.org/2000/svg">
<path d="M9.9947 6.96842e-06C12.088 -0.00274481 14.1002 0.809591 15.6049 2.26491C17.1096 3.72022 17.9886 5.70418 18.0557 7.79644L18.06 8.06529V12.4711L19.544 15.8649C19.6332 16.0695 19.6702 16.293 19.6515 16.5153C19.6328 16.7377 19.559 16.9519 19.4368 17.1386C19.3147 17.3253 19.1479 17.4787 18.9517 17.5849C18.7554 17.6911 18.5358 17.7467 18.3127 17.7468L13.2208 17.7501C13.2219 18.5899 12.8954 19.3971 12.3108 20.0001C11.7261 20.603 10.9294 20.9542 10.0899 20.979C9.25041 21.0038 8.43435 20.7002 7.81514 20.1328C7.19594 19.5654 6.82242 18.7789 6.77396 17.9404L6.76858 17.7468H1.68746C1.46465 17.7466 1.2454 17.691 1.04939 17.5851C0.853382 17.4791 0.686754 17.3262 0.56447 17.1399C0.442187 16.9536 0.368077 16.7399 0.348797 16.518C0.329516 16.296 0.365669 16.0727 0.454008 15.8682L1.92942 12.4722V8.06529C1.92942 3.59712 5.53406 6.96842e-06 9.9947 6.96842e-06ZM11.6078 17.7479L8.38164 17.7501C8.38157 18.1644 8.54095 18.5629 8.82673 18.8629C9.11251 19.1629 9.50278 19.3415 9.91664 19.3615C10.3305 19.3816 10.7362 19.2416 11.0496 18.9706C11.3631 18.6996 11.5602 18.3184 11.6002 17.906L11.6067 17.7479H11.6078ZM9.9947 1.61306C6.42447 1.61306 3.54247 4.4886 3.54247 8.06529V12.8077L2.09717 16.1349H17.9019L16.4469 12.8087V8.07927L16.4426 7.83731C16.3868 6.16556 15.6826 4.58114 14.4791 3.41944C13.2757 2.25773 11.6674 1.60989 9.9947 1.61306Z" fill="black"/>
</svg>
