<svg width="92" height="26" viewBox="0 0 92 26" fill="none" xmlns="http://www.w3.org/2000/svg">
<g clip-path="url(#clip0)">
<path d="M18.8957 17.5546H21.9095V16.9991L19.896 12.6587L21.6689 9.06744V8.51196H19.0097L17.376 11.8836H16.5655V8.51196H13.5516V17.5546H16.5655V14.0667H17.3127L18.8957 17.5546Z" fill="white"/>
<path d="M23.0922 17.5546H26.1062V14.493H26.6253C29.2212 14.493 30.5003 13.5371 30.5003 11.5219C30.5003 9.48082 29.3733 8.51196 26.7647 8.51196H23.0922V17.5546ZM26.0681 10.4626H26.5747C27.3345 10.4626 27.575 10.8243 27.575 11.5348C27.575 12.2324 27.3217 12.6974 26.5747 12.6974H26.0681V10.4626Z" fill="white"/>
<path d="M31.6189 17.5546H38.1912V15.5394H34.6202V13.9634H36.9882V12.0257H34.6202V10.5789H38.0772V8.51196H31.6189V17.5546Z" fill="white"/>
<path d="M42.5287 17.5546V10.6822H44.4408V17.5546H47.4548V8.51196H39.5146V17.5546H42.5287Z" fill="white"/>
<path d="M48.6268 14.8935H51.9827V12.8267H48.6268V14.8935Z" fill="white"/>
<path d="M58.5109 17.5546H61.5249V16.9991L59.5114 12.6587L61.2842 9.06744V8.51196H58.6249L56.9912 11.8836H56.1809V8.51196H53.1669V17.5546H56.1809V14.0667H56.928L58.5109 17.5546Z" fill="white"/>
<path d="M66.454 17.6967C69.0374 17.6967 70.9875 16.0561 70.9875 13.0591C70.9875 10.0621 68.974 8.36987 66.454 8.36987C63.9466 8.36987 61.9331 10.0621 61.9331 13.0591C61.9331 16.0561 63.8707 17.6967 66.454 17.6967ZM66.454 15.6169C65.5675 15.6169 64.9724 14.8806 64.9724 13.072C64.9724 11.2635 65.5675 10.5272 66.454 10.5272C67.3405 10.5272 67.9356 11.2635 67.9356 13.072C67.9356 14.8806 67.3405 15.6169 66.454 15.6169Z" fill="white"/>
<path d="M72.1741 17.5546H74.5547V11.9482H74.5928L76.239 17.5546H77.9105L79.5695 11.9482H79.6075V17.5546H82.5201V8.51196H78.7083L77.3788 13.0591H77.3407L76.011 8.51196H72.1741V17.5546Z" fill="white"/>
<path d="M87.0658 17.5546V10.6822H88.9781V17.5546H91.9919V8.51196H84.052V17.5546H87.0658Z" fill="white"/>
<path d="M14.0666 0.515357C13.393 -0.171786 12.3009 -0.171785 11.6273 0.515357L0.612623 11.7514C-0.0609794 12.4386 -0.0609784 13.5526 0.612625 14.2398L11.6273 25.4759C12.3009 26.1629 13.393 26.1629 14.0666 25.4759L17.3613 22.115C17.7958 21.6715 17.488 20.9134 16.8734 20.9134H12.9019C11.9814 20.9134 11.1302 20.4145 10.6666 19.6033L7.647 14.3188C7.17764 13.4974 7.17764 12.4819 7.647 11.6605L10.6666 6.37604C11.1302 5.56477 11.9814 5.06585 12.9019 5.06585H16.8617C17.4764 5.06585 17.7843 4.30775 17.3496 3.86437L14.0666 0.515357Z" fill="white"/>
</g>
<defs>
<clipPath id="clip0">
<rect width="92" height="26" fill="white"/>
</clipPath>
</defs>
</svg>
