<svg width="152" height="43" viewBox="0 0 152 43" fill="none" xmlns="http://www.w3.org/2000/svg">
<g clip-path="url(#clip0)">
<path d="M31.2189 29.0326H36.1983V28.114L32.8716 20.9355L35.8008 14.9962V14.0775H31.4073L28.7081 19.6536H27.3691V14.0775H22.3896V29.0326H27.3691V23.2642H28.6035L31.2189 29.0326Z" fill="black"/>
<path d="M38.1523 29.0326H43.132V23.9693H43.9898C48.2787 23.9693 50.3919 22.3883 50.3919 19.0554C50.3919 15.6799 48.5299 14.0775 44.2199 14.0775H38.1523V29.0326ZM43.0691 17.3035H43.9061C45.1614 17.3035 45.5588 17.9017 45.5588 19.0768C45.5588 20.2305 45.1403 20.9996 43.9061 20.9996H43.0691V17.3035Z" fill="black"/>
<path d="M52.2397 29.0326H63.0984V25.6998H57.1983V23.0933H61.1108V19.8886H57.1983V17.4958H62.91V14.0775H52.2397V29.0326Z" fill="black"/>
<path d="M70.2648 29.0326V17.6667H73.4239V29.0326H78.4036V14.0775H65.2852V29.0326H70.2648Z" fill="black"/>
<path d="M80.3398 24.6314H85.8842V21.2131H80.3398V24.6314Z" fill="black"/>
<path d="M96.6701 29.0326H101.65V28.114L98.3231 20.9355L101.252 14.9962V14.0775H96.8584L94.1593 19.6536H92.8205V14.0775H87.8408V29.0326H92.8205V23.2642H94.0549L96.6701 29.0326Z" fill="black"/>
<path d="M109.794 29.2675C114.062 29.2675 117.284 26.5542 117.284 21.5977C117.284 16.6411 113.957 13.8424 109.794 13.8424C105.651 13.8424 102.324 16.6411 102.324 21.5977C102.324 26.5542 105.525 29.2675 109.794 29.2675ZM109.794 25.8279C108.329 25.8279 107.346 24.6101 107.346 21.619C107.346 18.628 108.329 17.4103 109.794 17.4103C111.258 17.4103 112.241 18.628 112.241 21.619C112.241 24.6101 111.258 25.8279 109.794 25.8279Z" fill="black"/>
<path d="M119.244 29.0326H123.177V19.7605H123.24L125.96 29.0326H128.722L131.463 19.7605H131.526V29.0326H136.338V14.0775H130.04L127.843 21.5978H127.78L125.583 14.0775H119.244V29.0326Z" fill="black"/>
<path d="M143.848 29.0326V17.6667H147.007V29.0326H151.987V14.0775H138.869V29.0326H143.848Z" fill="black"/>
<path d="M23.2402 0.852322C22.1273 -0.284108 20.3229 -0.284107 19.21 0.852322L1.01193 19.435C-0.100982 20.5715 -0.10098 22.414 1.01193 23.5504L19.21 42.1332C20.3229 43.2695 22.1273 43.2695 23.2402 42.1332L28.6836 36.5747C29.4016 35.8414 28.8931 34.5876 27.8776 34.5876H21.316C19.7951 34.5876 18.3888 33.7624 17.6229 32.4208L12.6339 23.6811C11.8585 22.3226 11.8585 20.6432 12.6339 19.2847L17.6229 10.545C18.3888 9.20327 19.7951 8.37814 21.316 8.37814H27.8583C28.8737 8.37814 29.3825 7.12436 28.6643 6.39107L23.2402 0.852322Z" fill="#552FEC"/>
</g>
<defs>
<clipPath id="clip0">
<rect width="152" height="43" fill="white"/>
</clipPath>
</defs>
</svg>
