<svg width="11" height="9" viewBox="0 0 11 9" fill="none" xmlns="http://www.w3.org/2000/svg">
<path d="M0 7.64703C0 7.22469 0.34237 6.88232 0.764706 6.88232H8.29412C8.71645 6.88232 9.05882 7.22469 9.05882 7.64703C9.05882 8.06937 8.71645 8.41174 8.29412 8.41174H0.764705C0.342369 8.41174 0 8.06937 0 7.64703Z" fill="white"/>
<rect width="11" height="1.52941" rx="0.764706" fill="white"/>
<path d="M0 4.20587C0 3.78353 0.34237 3.44116 0.764706 3.44116H5.70588C6.12822 3.44116 6.47059 3.78353 6.47059 4.20587C6.47059 4.6282 6.12822 4.97057 5.70588 4.97057H0.764707C0.342371 4.97057 0 4.6282 0 4.20587Z" fill="white"/>
</svg>
