<svg width="13" height="12" fill="none" xmlns="http://www.w3.org/2000/svg"><path d="M3.119 6.072a20.3 20.3 0 002.711 2.47c.338.258.691.483 1.04.734a.21.21 0 00.327-.034c.433-.46.883-.905 1.298-1.371a1.49 1.49 0 011.855-.337c.675.386 1.342.79 1.994 1.217a1.522 1.522 0 01.473 1.972c-.462.991-1.364 1.146-2.28 1.255-.824.098-1.603-.147-2.338-.468a16.137 16.137 0 01-4.106-2.664A16.846 16.846 0 01.935 5.464C.363 4.612-.105 3.7.02 2.65.122 1.75.31.865 1.168.298a1.534 1.534 0 012.078.243c.494.58.971 1.175 1.431 1.789a1.492 1.492 0 01-.148 2 4.38 4.38 0 00-.304.329c-.36.468-.722.932-1.106 1.413z" fill="#3A0FB5"/></svg>