<svg width="30" height="30" viewBox="0 0 30 30" fill="none" xmlns="http://www.w3.org/2000/svg">
<circle cx="15" cy="15" r="14.5" fill="#552FEC" stroke="white"/>
<path d="M19.8143 18.6051H21.9996V18.203L20.5396 15.0615L21.8251 12.4622V12.0602H19.8969L18.7124 14.5005H18.1248V12.0602H15.9395V18.6051H18.1248V16.0806H18.6665L19.8143 18.6051Z" fill="white"/>
<path d="M16.273 6.37009C15.7773 5.87663 14.9736 5.87664 14.4779 6.37009L6.3718 14.4391C5.87607 14.9325 5.87607 15.7326 6.3718 16.226L14.4779 24.2951C14.9736 24.7885 15.7773 24.7885 16.273 24.2951L18.6977 21.8815C19.0175 21.563 18.791 21.0186 18.3387 21.0186H15.4159C14.7385 21.0186 14.1121 20.6603 13.7709 20.0778L11.5486 16.2828C11.2032 15.6929 11.2032 14.9637 11.5486 14.3738L13.7709 10.5788C14.1121 9.99624 14.7385 9.63795 15.4159 9.63795H18.3301C18.7824 9.63795 19.009 9.09354 18.6891 8.77513L16.273 6.37009Z" fill="white"/>
</svg>
