<?xml version="1.0" encoding="UTF-8"?>
<!DOCTYPE svg PUBLIC "-//W3C//DTD SVG 1.1//EN" "http://www.w3.org/Graphics/SVG/1.1/DTD/svg11.dtd">
<!-- Creator: CorelDRAW 2020 (64-Bit) -->
<svg xmlns="http://www.w3.org/2000/svg" xml:space="preserve" width="23.7066mm" height="19.4732mm" version="1.1" style="shape-rendering:geometricPrecision; text-rendering:geometricPrecision; image-rendering:optimizeQuality; fill-rule:evenodd; clip-rule:evenodd"
viewBox="0 0 2370.66 1947.32"
 xmlns:xlink="http://www.w3.org/1999/xlink"
 xmlns:xodm="http://www.corel.com/coreldraw/odm/2003">
 <defs>
  <style type="text/css">
   <![CDATA[
    .fil0 {fill:#552FEC;fill-rule:nonzero}
   ]]>
  </style>
 </defs>
 <g id="Слой_x0020_1">
  <metadata id="CorelCorpID_0Corel-Layer"/>
  <path class="fil0" d="M217.1 6.17c-46.44,0 -77.4,30.96 -77.4,77.4 0,46.44 30.96,77.4 77.4,77.4 0,0 0,0 0,0l147.06 0c15.48,0 30.96,7.74 38.7,30.96l332.82 1122.29c23.21,92.88 116.09,162.54 216.71,162.54l851.4 0c100.62,0 193.49,-69.66 224.45,-170.28l201.24 -735.29c7.74,-38.7 -15.48,-85.14 -54.18,-92.88 -7.74,0 -15.48,0 -23.22,0l-1509.28 0 -92.88 -332.82c0,0 0,0 0,0 -23.22,-85.14 -100.62,-139.32 -185.76,-139.32l-147.06 0zm773.99 1625.39c-85.14,0 -154.8,69.66 -154.8,154.8 0,85.13 69.66,154.79 154.8,154.79 85.14,0 154.8,-69.66 154.8,-154.79 0,-85.14 -69.66,-154.8 -154.8,-154.8zm774 0c-85.14,0 -154.8,69.66 -154.8,154.8 0,85.13 69.66,154.79 154.8,154.79 85.14,0 154.8,-69.66 154.8,-154.79 0,-85.14 -69.66,-154.8 -154.8,-154.8z"/>
 </g>
</svg>
