<?xml version="1.0" encoding="UTF-8"?>
<!DOCTYPE svg PUBLIC "-//W3C//DTD SVG 1.1//EN" "http://www.w3.org/Graphics/SVG/1.1/DTD/svg11.dtd">
<!-- Creator: CorelDRAW 2020 (64-Bit) -->
<svg xmlns="http://www.w3.org/2000/svg" xml:space="preserve" width="11.8532mm" height="17.78mm" version="1.1" style="shape-rendering:geometricPrecision; text-rendering:geometricPrecision; image-rendering:optimizeQuality; fill-rule:evenodd; clip-rule:evenodd"
viewBox="0 0 1185.32 1778"
 xmlns:xlink="http://www.w3.org/1999/xlink"
 xmlns:xodm="http://www.corel.com/coreldraw/odm/2003">
 <defs>
  <style type="text/css">
   <![CDATA[
    .fil0 {fill:black;fill-rule:nonzero}
   ]]>
  </style>
 </defs>
 <g id="Слой_x0020_1">
  <metadata id="CorelCorpID_0Corel-Layer"/>
  <path class="fil0" d="M597.43 12.7c-316.14,0 -572.04,255.91 -572.04,572.04 0,261.84 137.08,541.55 271.73,758.55 134.66,217 269.51,371.57 269.51,371.57 7.75,8.88 18.98,13.99 30.78,13.99 11.95,0 23.3,-5.23 31.06,-14.31 0,0 134.77,-157.53 269.35,-375.96 134.58,-218.44 271.65,-497.76 271.65,-753.84 0,-316.13 -255.9,-572.04 -572.04,-572.04zm0 81.72c272.25,0 490.32,218.07 490.32,490.32 0,226.07 -128.51,498.34 -259.52,710.98 -106.36,172.63 -194.82,282.81 -231.04,326.88 -36.41,-43.52 -124.57,-151.47 -230.63,-322.41 -130.94,-211.01 -259.45,-482.88 -259.45,-715.45 0,-272.25 218.07,-490.32 490.32,-490.32zm0 204.3c-157.12,0 -286.02,128.9 -286.02,286.02 0,157.13 128.9,286.02 286.02,286.02 157.13,0 286.02,-128.89 286.02,-286.02 0,-157.12 -128.89,-286.02 -286.02,-286.02zm0 81.72c112.55,0 204.3,91.75 204.3,204.3 0,112.55 -91.75,204.3 -204.3,204.3 -112.55,0 -204.3,-91.75 -204.3,-204.3 0,-112.55 91.75,-204.3 204.3,-204.3z"/>
 </g>
</svg>
