<svg width="19" height="20" viewBox="0 0 19 20" fill="none" xmlns="http://www.w3.org/2000/svg">
<path fill-rule="evenodd" clip-rule="evenodd" d="M18.0213 19.7127H0V16.9227C0 13.6882 2.01002 10.8716 4.87301 9.79486C4.0215 8.80367 3.51064 7.50935 3.51064 6.11362C3.51064 3.07749 5.92801 0.52124 9.01064 0.52124C12.0933 0.52124 14.5106 3.07749 14.5106 6.11362C14.5106 7.5094 13.9997 8.80375 13.1482 9.79495C16.0108 10.8717 18.0213 13.6881 18.0213 16.9227V19.7127ZM10.9888 11.3342C10.8509 11.3235 10.7115 11.318 10.5709 11.318H7.45035C7.30975 11.318 7.17038 11.3235 7.03242 11.3342C4.60551 11.5237 2.617 13.3486 2.11299 15.734C2.03202 16.1172 1.98936 16.515 1.98936 16.9227V17.7234H16.0319V16.9227C16.0319 16.515 15.9892 16.1172 15.9082 15.734C15.4041 13.3486 13.4152 11.5237 10.9888 11.3342ZM10.5944 9.32866C11.7366 8.73349 12.5213 7.5157 12.5213 6.11362C12.5213 4.12716 10.9462 2.5106 9.01064 2.5106C7.0751 2.5106 5.5 4.12716 5.5 6.11362C5.5 7.5157 6.28467 8.73349 7.42691 9.32866C7.43471 9.33273 7.44252 9.33676 7.45035 9.34077C7.92064 9.58128 8.45055 9.71665 9.01064 9.71665C9.57072 9.71665 10.1006 9.58128 10.5709 9.34076C10.5787 9.33676 10.5866 9.33273 10.5944 9.32866Z" fill="#AEADB2"/>
</svg>
