<svg width="24" height="25" viewBox="0 0 24 25" fill="none" xmlns="http://www.w3.org/2000/svg">
<path d="M12 14.1707C14.206 14.1707 16 12.3767 16 10.1707C16 7.96465 14.206 6.17065 12 6.17065C9.794 6.17065 8 7.96465 8 10.1707C8 12.3767 9.794 14.1707 12 14.1707ZM12 8.17065C13.103 8.17065 14 9.06765 14 10.1707C14 11.2737 13.103 12.1707 12 12.1707C10.897 12.1707 10 11.2737 10 10.1707C10 9.06765 10.897 8.17065 12 8.17065Z" fill="#111111"/>
<path d="M11.4201 21.9847C11.5893 22.1055 11.7921 22.1705 12.0001 22.1705C12.2081 22.1705 12.4108 22.1055 12.5801 21.9847C12.8841 21.7697 20.0291 16.6107 20.0001 10.1707C20.0001 5.75965 16.4111 2.17065 12.0001 2.17065C7.58909 2.17065 4.00009 5.75965 4.00009 10.1657C3.97109 16.6107 11.1161 21.7697 11.4201 21.9847ZM12.0001 4.17065C15.3091 4.17065 18.0001 6.86165 18.0001 10.1757C18.0211 14.6137 13.6121 18.5987 12.0001 19.9057C10.3891 18.5977 5.97909 14.6117 6.00009 10.1707C6.00009 6.86165 8.69109 4.17065 12.0001 4.17065Z" fill="#111111"/>
</svg>
