<svg width="24" height="23" viewBox="0 0 24 23" fill="none" xmlns="http://www.w3.org/2000/svg">
<path d="M23.6137 19.9623L20.8245 22.6304C20.3154 23.1232 19.4844 23.1232 18.9702 22.6304L11.9997 15.9551L5.03438 22.6304C4.52017 23.1232 3.68392 23.1232 3.17489 22.6304L0.385662 19.9623C-0.128554 19.4695 -0.128554 18.673 0.385662 18.1802L7.35095 11.5L0.385662 4.82475C-0.123359 4.32697 -0.123359 3.52554 0.385662 3.04269L3.17489 0.369603C3.68392 -0.123201 4.52017 -0.123201 5.03438 0.369603L11.9997 7.04983L18.9702 0.369603C19.4844 -0.123201 20.3206 -0.123201 20.8245 0.369603L23.6137 3.03771C24.1279 3.53052 24.1279 4.33195 23.6189 4.82475L16.6484 11.5L23.6137 18.1802C24.1279 18.673 24.1279 19.4695 23.6137 19.9623Z" fill="#552FEC"/>
</svg>
