<svg width="36" height="35" viewBox="0 0 36 35" fill="none" xmlns="http://www.w3.org/2000/svg">
<path d="M15.12 3.5C12.5269 3.57109 10.5834 4.34492 9.36 5.88437C7.92 7.70546 7.63594 10.5602 8.5725 14.1312C8.2125 14.4812 7.98187 15.1102 8.055 15.8812C8.19844 17.4207 8.85656 18.0523 9.36 18.3312C9.57656 19.5207 10.2881 20.9398 10.935 21.5687V21.9187C10.935 22.6187 10.9406 23.2477 10.8675 24.0187C10.4344 24.9977 9.14344 25.5555 7.56 26.1844C4.96687 27.2344 1.72687 28.5633 1.44 32.8344L1.3725 33.6H28.8675V32.8344C28.5806 28.6344 25.3406 27.2344 22.7475 26.1844C21.2344 25.5555 19.8731 24.9977 19.44 24.0187C19.3669 23.2477 19.3725 22.6187 19.3725 21.9187V21.5687C20.0194 20.9398 20.7309 19.5207 20.9475 18.3312C21.4509 18.0523 22.0359 17.4207 22.2525 15.8812C22.3959 15.1102 22.1119 14.5523 21.825 14.1312C22.2581 12.7312 23.04 9.17929 21.6 6.86875C20.9531 5.88984 20.0109 5.24179 18.7875 5.03125C18.0675 4.05234 16.7034 3.5 15.12 3.5Z" fill="url(#paint0_linear)"/>
<defs>
<linearGradient id="paint0_linear" x1="15.12" y1="3.5" x2="15.12" y2="33.6" gradientUnits="userSpaceOnUse">
<stop stop-color="#AA97F6"/>
<stop offset="0.552246" stop-color="#7856FF"/>
<stop offset="1" stop-color="#552FEC"/>
</linearGradient>
</defs>
</svg>
