<svg width="43" height="43" viewBox="0 0 43 43" fill="none" xmlns="http://www.w3.org/2000/svg">
<path d="M33.058 30.9385C35.8799 28.0342 37.625 24.0773 37.625 19.7083C37.625 10.8037 30.4046 3.58333 21.5 3.58333C12.5954 3.58333 5.375 10.8037 5.375 19.7083C5.375 24.0773 7.12008 28.0342 9.94196 30.9385C9.95808 30.9555 9.96883 30.9743 9.98496 30.9914L10.0378 31.0442C10.0799 31.0872 10.122 31.1293 10.165 31.1714L20.2333 41.2397C20.9329 41.9393 22.0671 41.9393 22.7667 41.2397L32.835 31.1714C32.878 31.1293 32.9201 31.0872 32.9622 31.0442L33.015 30.9914C33.0321 30.9743 33.0428 30.9546 33.058 30.9385Z" fill="url(#paint0_linear)"/>
<path opacity="0.05" d="M21.5 23.2917C23.479 23.2917 25.0833 21.6874 25.0833 19.7083C25.0833 17.7293 23.479 16.125 21.5 16.125C19.521 16.125 17.9167 17.7293 17.9167 19.7083C17.9167 21.6874 19.521 23.2917 21.5 23.2917Z" fill="black"/>
<path opacity="0.07" d="M21.5 22.8438C23.2317 22.8438 24.6354 21.44 24.6354 19.7083C24.6354 17.9767 23.2317 16.5729 21.5 16.5729C19.7684 16.5729 18.3646 17.9767 18.3646 19.7083C18.3646 21.44 19.7684 22.8438 21.5 22.8438Z" fill="black"/>
<path d="M21.5 22.3958C22.9843 22.3958 24.1875 21.1926 24.1875 19.7083C24.1875 18.2241 22.9843 17.0208 21.5 17.0208C20.0157 17.0208 18.8125 18.2241 18.8125 19.7083C18.8125 21.1926 20.0157 22.3958 21.5 22.3958Z" fill="white"/>
<path opacity="0.05" d="M15.824 26.9941C15.2838 26.9941 14.7777 26.7559 14.4328 26.3411C12.9027 24.493 12.0938 22.1996 12.0938 19.7083C12.0938 17.1615 12.934 14.8314 14.5241 12.969C14.8681 12.565 15.3689 12.3338 15.8992 12.3338C16.4 12.3338 16.8632 12.5345 17.2063 12.8973L17.8226 13.5549C18.4407 14.2106 18.4748 15.2247 17.8996 15.9127C17.0325 16.9527 16.5729 18.2651 16.5729 19.7083C16.5729 21.1211 17.0146 22.412 17.8504 23.4413C18.4156 24.1382 18.3682 25.1523 17.7384 25.8L17.114 26.4468C16.7736 26.7997 16.3149 26.9941 15.824 26.9941Z" fill="black"/>
<path opacity="0.07" d="M15.824 26.5462C15.4182 26.5462 15.0366 26.3671 14.7777 26.0544C13.3148 24.2887 12.5417 22.0948 12.5417 19.7083C12.5417 17.2699 13.3443 15.0401 14.8646 13.2601C15.1234 12.9564 15.5006 12.7818 15.8992 12.7818C16.2746 12.7818 16.6231 12.9314 16.8802 13.2046L17.4965 13.8612C17.9606 14.353 17.9856 15.1118 17.5556 15.6251C16.6204 16.7467 16.125 18.1585 16.125 19.7083C16.125 21.2241 16.6007 22.6126 17.5019 23.7235C17.9247 24.2439 17.8889 25.0027 17.4168 25.4883L16.7915 26.1359C16.5362 26.4002 16.1922 26.5462 15.824 26.5462Z" fill="black"/>
<path d="M16.4699 25.8251C16.0954 26.2121 15.4666 26.1834 15.1235 25.7686C13.7403 24.0997 12.9896 21.9837 12.9896 19.7083C12.9896 17.3845 13.769 15.2336 15.205 13.5504C15.5553 13.1401 16.1841 13.1186 16.5541 13.5119L17.1713 14.1685C17.4768 14.4937 17.4992 14.9962 17.2134 15.3385C16.2182 16.5299 15.6771 18.0546 15.6771 19.7083C15.6771 21.3262 16.1967 22.8258 17.1543 24.0056C17.4356 24.3523 17.4078 24.8558 17.097 25.1765L16.4699 25.8251Z" fill="white"/>
<path opacity="0.05" d="M26.9771 26.9941C26.4862 26.9941 26.0275 26.7998 25.688 26.4477L25.0618 25.8C24.4338 25.1523 24.3864 24.1382 24.9534 23.4413C25.7883 22.412 26.2291 21.1211 26.2291 19.7083C26.2291 18.2651 25.7695 16.9527 24.9024 15.9127C24.3281 15.2256 24.3613 14.2124 24.9794 13.5549L25.5966 12.8982C25.9388 12.5345 26.402 12.3338 26.9028 12.3338C27.4331 12.3338 27.9339 12.565 28.2788 12.9681C29.868 14.8305 30.7083 17.1606 30.7083 19.7074C30.7083 22.1987 29.8993 24.4921 28.3692 26.3384C28.0243 26.7559 27.5173 26.9941 26.9771 26.9941Z" fill="black"/>
<path opacity="0.07" d="M26.9771 26.5462C26.6089 26.5462 26.2649 26.4002 26.0096 26.1359L25.3834 25.4882C24.9131 25.0027 24.8773 24.2439 25.3001 23.7235C26.2004 22.6126 26.6761 21.2241 26.6761 19.7083C26.6761 18.1585 26.1807 16.7467 25.2446 15.626C24.8155 15.1127 24.8414 14.3548 25.3037 13.8621L25.9209 13.2055C26.1771 12.9331 26.5256 12.7826 26.901 12.7826C27.2996 12.7826 27.6768 12.9564 27.9357 13.2601C29.455 15.0401 30.2586 17.2699 30.2586 19.7092C30.2586 22.0957 29.4854 24.2896 28.0226 26.0544C27.7646 26.3671 27.3829 26.5462 26.9771 26.5462Z" fill="black"/>
<path d="M26.3321 25.8251L25.705 25.1774C25.3942 24.8558 25.3664 24.3532 25.6477 24.0065C26.6045 22.8258 27.1249 21.3271 27.1249 19.7092C27.1249 18.0546 26.5847 16.5299 25.5895 15.3394C25.3037 14.9971 25.3261 14.4946 25.6316 14.1694L26.2488 13.5128C26.6179 13.1204 27.2477 13.141 27.597 13.5513C29.0322 15.2336 29.8124 17.3845 29.8124 19.7092C29.8124 21.9846 29.0617 24.1006 27.6795 25.7695C27.3355 26.1825 26.7066 26.2121 26.3321 25.8251Z" fill="white"/>
<defs>
<linearGradient id="paint0_linear" x1="10.0996" y1="8.30527" x2="32.9004" y2="31.1069" gradientUnits="userSpaceOnUse">
<stop stop-color="#AA97F6"/>
<stop offset="0.587" stop-color="#7856FF"/>
<stop offset="1" stop-color="#552FEC"/>
</linearGradient>
</defs>
</svg>
