<svg width="41" height="42" viewBox="0 0 41 42" fill="none" xmlns="http://www.w3.org/2000/svg">
<path d="M37.957 17.9156L36.2914 16.8656C35.6188 16.439 35.3625 15.5859 35.6508 14.8312L36.3875 12.9609C36.868 11.7797 36.7078 10.4672 35.9711 9.44998C35.2344 8.43279 34.0813 7.87498 32.832 7.97342L30.8781 8.13748C30.0773 8.2031 29.3727 7.6781 29.2125 6.8906L28.7641 4.92185C28.4758 3.70779 27.6109 2.72342 26.4258 2.32967C25.2406 1.93592 23.9914 2.19842 23.0625 3.01873L21.557 4.33123C20.9484 4.85623 20.0836 4.85623 19.475 4.33123L17.9695 3.01873C17.0406 2.23123 15.7594 1.96873 14.5742 2.36248C13.3891 2.75623 12.5242 3.70779 12.2359 4.95467L11.7875 6.92342C11.5953 7.71092 10.8906 8.23592 10.1219 8.17029L8.16797 8.00623C6.95079 7.90779 5.76563 8.4656 5.02891 9.48279C4.29219 10.5 4.16407 11.8125 4.61251 12.9937L5.34923 14.864C5.63751 15.6187 5.38126 16.4719 4.7086 16.8984L3.04297 17.9484C1.98594 18.6047 1.37735 19.7531 1.37735 21.0328C1.37735 22.3125 2.01797 23.4609 3.04297 24.1172L4.7086 25.1672C5.38126 25.5937 5.63751 26.4469 5.34923 27.2015L4.61251 29.0719C4.13204 30.2531 4.29219 31.5656 5.02891 32.5828C5.76563 33.6 6.91876 34.1578 8.16797 34.0594L10.1219 33.8953C10.9227 33.8297 11.6273 34.3547 11.7875 35.1422L12.2359 37.1109C12.5242 38.325 13.3891 39.3094 14.5742 39.7031C14.9266 39.8344 15.3109 39.8672 15.6633 39.8672C16.4961 39.8672 17.2969 39.5719 17.9375 39.014L19.443 37.7015C20.0516 37.1765 20.9164 37.1765 21.525 37.7015L23.0305 39.014C23.9594 39.8344 25.2406 40.0969 26.3938 39.7031C27.5789 39.3094 28.4438 38.3578 28.732 37.1109L29.1805 35.1422C29.3727 34.3547 30.0774 33.8297 30.8461 33.8953L32.8 34.0594C34.0172 34.1578 35.2023 33.6 35.9391 32.5828C36.6758 31.5656 36.8039 30.2531 36.3555 29.0719L35.6188 27.2015C35.3305 26.4469 35.5867 25.5937 36.2594 25.1672L37.925 24.1172C38.982 23.4609 39.5906 22.3125 39.5906 21.0328C39.5906 19.7531 38.982 18.5719 37.957 17.9156Z" fill="url(#paint0_linear)"/>
<path d="M16.3359 14.7656C15.8262 14.7656 15.3374 14.973 14.977 15.3423C14.6165 15.7115 14.4141 16.2122 14.4141 16.7344C14.4141 17.2565 14.6165 17.7573 14.977 18.1265C15.3374 18.4957 15.8262 18.7031 16.3359 18.7031C16.8457 18.7031 17.3345 18.4957 17.6949 18.1265C18.0553 17.7573 18.2578 17.2565 18.2578 16.7344C18.2578 16.2122 18.0553 15.7115 17.6949 15.3423C17.3345 14.973 16.8457 14.7656 16.3359 14.7656Z" fill="url(#paint1_linear)"/>
<path d="M16.3359 19.6875C14.7344 19.6875 13.4531 18.375 13.4531 16.7344C13.4531 15.0938 14.7344 13.7812 16.3359 13.7812C17.9375 13.7812 19.2188 15.0938 19.2188 16.7344C19.2188 18.375 17.9375 19.6875 16.3359 19.6875ZM16.3359 15.75C15.7914 15.75 15.375 16.1766 15.375 16.7344C15.375 17.2922 15.7914 17.7188 16.3359 17.7188C16.8805 17.7188 17.2969 17.2922 17.2969 16.7344C17.2969 16.1766 16.8805 15.75 16.3359 15.75Z" fill="white"/>
<path d="M24.6641 23.2969C24.1543 23.2969 23.6655 23.5043 23.3051 23.8735C22.9447 24.2427 22.7422 24.7435 22.7422 25.2656C22.7422 25.7878 22.9447 26.2885 23.3051 26.6577C23.6655 27.027 24.1543 27.2344 24.6641 27.2344C25.1738 27.2344 25.6626 27.027 26.023 26.6577C26.3835 26.2885 26.5859 25.7878 26.5859 25.2656C26.5859 24.7435 26.3835 24.2427 26.023 23.8735C25.6626 23.5043 25.1738 23.2969 24.6641 23.2969Z" fill="url(#paint2_linear)"/>
<path d="M24.6641 28.2188C23.0625 28.2188 21.7812 26.9063 21.7812 25.2656C21.7812 23.625 23.0625 22.3125 24.6641 22.3125C26.2656 22.3125 27.5469 23.625 27.5469 25.2656C27.5469 26.9063 26.2656 28.2188 24.6641 28.2188ZM24.6641 24.2813C24.1195 24.2813 23.7031 24.7078 23.7031 25.2656C23.7031 25.8235 24.1195 26.25 24.6641 26.25C25.2086 26.25 25.625 25.8235 25.625 25.2656C25.625 24.7078 25.2086 24.2813 24.6641 24.2813ZM18.2578 24.5766C18.0336 24.5766 17.8094 24.511 17.6172 24.3141C17.2328 23.9531 17.1688 23.3297 17.5211 22.936L24.568 14.7656C24.9203 14.3719 25.5289 14.3063 25.9133 14.6672C26.2977 15.0281 26.3617 15.6516 26.0094 16.0453L18.9625 24.2156C18.8023 24.4781 18.5141 24.5766 18.2578 24.5766ZM15.6953 25.5938C15.4405 25.5938 15.196 25.6975 15.0158 25.8821C14.8356 26.0667 14.7344 26.3171 14.7344 26.5781C14.7344 26.8392 14.8356 27.0896 15.0158 27.2742C15.196 27.4588 15.4405 27.5625 15.6953 27.5625C15.9502 27.5625 16.1946 27.4588 16.3748 27.2742C16.555 27.0896 16.6562 26.8392 16.6562 26.5781C16.6562 26.3171 16.555 26.0667 16.3748 25.8821C16.1946 25.6975 15.9502 25.5938 15.6953 25.5938Z" fill="white"/>
<defs>
<linearGradient id="paint0_linear" x1="20.484" y1="2.14973" x2="20.484" y2="39.883" gradientUnits="userSpaceOnUse">
<stop stop-color="#7856FF"/>
<stop offset="0.500162" stop-color="#7552FE"/>
<stop offset="1" stop-color="#552FEC"/>
</linearGradient>
<linearGradient id="paint1_linear" x1="16.3359" y1="14.7656" x2="16.3359" y2="18.7031" gradientUnits="userSpaceOnUse">
<stop stop-color="#7856FF"/>
<stop offset="0.500162" stop-color="#7552FE"/>
<stop offset="1" stop-color="#552FEC"/>
</linearGradient>
<linearGradient id="paint2_linear" x1="24.6641" y1="23.2969" x2="24.6641" y2="27.2344" gradientUnits="userSpaceOnUse">
<stop stop-color="#7856FF"/>
<stop offset="0.500162" stop-color="#7552FE"/>
<stop offset="1" stop-color="#552FEC"/>
</linearGradient>
</defs>
</svg>
