<svg width="36" height="36" viewBox="0 0 36 36" fill="none" xmlns="http://www.w3.org/2000/svg">
<path d="M18 34.875C8.685 34.875 1.125 27.315 1.125 18C1.125 8.685 8.685 1.125 18 1.125C27.315 1.125 34.875 8.685 34.875 18C34.875 27.315 27.315 34.875 18 34.875ZM18 4.275C10.44 4.275 4.275 10.44 4.275 18C4.275 25.56 10.44 31.725 18 31.725C25.56 31.725 31.725 25.56 31.725 18C31.725 10.44 25.56 4.275 18 4.275Z" fill="url(#paint0_linear)"/>
<path d="M18 1.35C27.18 1.35 34.65 8.82 34.65 18C34.65 27.18 27.18 34.65 18 34.65C8.81999 34.65 1.34999 27.18 1.34999 18C1.34999 8.82 8.81999 1.35 18 1.35ZM18 31.95C25.695 31.95 31.95 25.695 31.95 18C31.95 10.305 25.695 4.05 18 4.05C10.305 4.05 4.04999 10.305 4.04999 18C4.04999 25.695 10.305 31.95 18 31.95ZM18 0.900002C8.54999 0.900002 0.899994 8.55 0.899994 18C0.899994 27.45 8.54999 35.1 18 35.1C27.45 35.1 35.1 27.45 35.1 18C35.1 8.55 27.45 0.900002 18 0.900002ZM18 31.5C10.53 31.5 4.49999 25.47 4.49999 18C4.49999 10.53 10.53 4.5 18 4.5C25.47 4.5 31.5 10.53 31.5 18C31.5 25.47 25.47 31.5 18 31.5Z" fill="#AA97F6"/>
<path d="M1.53 13.5C1.98 11.88 2.655 10.395 3.51 9H8.01C10.485 6.255 14.04 4.5 18.045 4.5C25.515 4.5 31.545 10.53 31.545 18C31.545 25.47 25.515 31.5 18.045 31.5C10.575 31.5 4.5 25.47 4.5 18C4.5 16.425 4.77 14.895 5.265 13.5H1.53Z" fill="white"/>
<path d="M23.265 23.715C23.13 23.715 23.04 23.67 22.95 23.58L17.415 18.045L23.94 8.41499C24.075 8.18999 24.345 8.14499 24.57 8.27999C24.795 8.41499 24.84 8.68499 24.705 8.90999L18.63 17.91L23.58 22.95C23.76 23.13 23.76 23.4 23.58 23.58C23.49 23.67 23.355 23.715 23.265 23.715Z" fill="black"/>
<path d="M18 16.65C17.642 16.65 17.2986 16.7922 17.0454 17.0454C16.7922 17.2986 16.65 17.642 16.65 18C16.65 18.358 16.7922 18.7014 17.0454 18.9546C17.2986 19.2078 17.642 19.35 18 19.35C18.358 19.35 18.7014 19.2078 18.9546 18.9546C19.2078 18.7014 19.35 18.358 19.35 18C19.35 17.642 19.2078 17.2986 18.9546 17.0454C18.7014 16.7922 18.358 16.65 18 16.65Z" fill="black"/>
<path d="M18 5.4C17.8806 5.4 17.7662 5.44741 17.6818 5.5318C17.5974 5.61619 17.55 5.73065 17.55 5.85C17.55 5.96935 17.5974 6.08381 17.6818 6.1682C17.7662 6.25259 17.8806 6.3 18 6.3C18.1193 6.3 18.2338 6.25259 18.3182 6.1682C18.4026 6.08381 18.45 5.96935 18.45 5.85C18.45 5.73065 18.4026 5.61619 18.3182 5.5318C18.2338 5.44741 18.1193 5.4 18 5.4ZM18 29.7C17.8806 29.7 17.7662 29.7474 17.6818 29.8318C17.5974 29.9162 17.55 30.0307 17.55 30.15C17.55 30.2694 17.5974 30.3838 17.6818 30.4682C17.7662 30.5526 17.8806 30.6 18 30.6C18.1193 30.6 18.2338 30.5526 18.3182 30.4682C18.4026 30.3838 18.45 30.2694 18.45 30.15C18.45 30.0307 18.4026 29.9162 18.3182 29.8318C18.2338 29.7474 18.1193 29.7 18 29.7ZM5.84999 17.55C5.73065 17.55 5.61619 17.5974 5.5318 17.6818C5.4474 17.7662 5.39999 17.8807 5.39999 18C5.39999 18.1193 5.4474 18.2338 5.5318 18.3182C5.61619 18.4026 5.73065 18.45 5.84999 18.45C5.96934 18.45 6.0838 18.4026 6.16819 18.3182C6.25258 18.2338 6.29999 18.1193 6.29999 18C6.29999 17.8807 6.25258 17.7662 6.16819 17.6818C6.0838 17.5974 5.96934 17.55 5.84999 17.55ZM30.15 17.55C30.0306 17.55 29.9162 17.5974 29.8318 17.6818C29.7474 17.7662 29.7 17.8807 29.7 18C29.7 18.1193 29.7474 18.2338 29.8318 18.3182C29.9162 18.4026 30.0306 18.45 30.15 18.45C30.2693 18.45 30.3838 18.4026 30.4682 18.3182C30.5526 18.2338 30.6 18.1193 30.6 18C30.6 17.8807 30.5526 17.7662 30.4682 17.6818C30.3838 17.5974 30.2693 17.55 30.15 17.55Z" fill="black"/>
<path d="M3.375 11.475V3.68999L11.16 11.475H3.375Z" fill="url(#paint1_linear)"/>
<path d="M3.59999 4.23L10.62 11.25H3.59999V4.23ZM3.14999 3.15V11.7H11.7L3.14999 3.15Z" fill="#AA97F6"/>
<path d="M7.24499 9.13498L5.17499 7.42498C5.93999 6.47998 6.79499 5.66998 7.73999 4.90498L9.40499 7.01998C8.59499 7.64998 7.87499 8.36998 7.24499 9.13498Z" fill="url(#paint2_linear)"/>
<defs>
<linearGradient id="paint0_linear" x1="18" y1="1.125" x2="18" y2="34.875" gradientUnits="userSpaceOnUse">
<stop stop-color="#AA97F6"/>
<stop offset="0.442871" stop-color="#7856FF"/>
<stop offset="1" stop-color="#552FEC"/>
</linearGradient>
<linearGradient id="paint1_linear" x1="7.2675" y1="3.68999" x2="7.2675" y2="11.475" gradientUnits="userSpaceOnUse">
<stop stop-color="#AA97F6"/>
<stop offset="0.442871" stop-color="#7856FF"/>
<stop offset="1" stop-color="#552FEC"/>
</linearGradient>
<linearGradient id="paint2_linear" x1="7.28999" y1="4.90498" x2="7.28999" y2="9.13498" gradientUnits="userSpaceOnUse">
<stop stop-color="#AA97F6"/>
<stop offset="0.442871" stop-color="#7856FF"/>
<stop offset="1" stop-color="#552FEC"/>
</linearGradient>
</defs>
</svg>
