<svg width="42" height="42" viewBox="0 0 42 42" fill="none" xmlns="http://www.w3.org/2000/svg">
<circle cx="21" cy="21" r="21" fill="#ECD58C"/>
<path d="M15.9131 34.5301C16.2386 34.4117 16.9859 30.4607 17.3189 28.5L26.3454 27.6492L26.9373 33.6792L26.8263 35.011L24.6437 35.9728L20.1674 36.8607L16.0611 35.1959C15.8761 35.0233 15.5875 34.6484 15.9131 34.5301Z" fill="#F5F5F5"/>
<path d="M15.9131 34.5301C16.2386 34.4117 16.9859 30.4607 17.3189 28.5L26.3454 27.6492L26.9373 33.6792L26.8263 35.011L24.6437 35.9728L20.1674 36.8607L16.0611 35.1959C15.8761 35.0233 15.5875 34.6484 15.9131 34.5301Z" fill="url(#paint0_radial_153_146)"/>
<path fill-rule="evenodd" clip-rule="evenodd" d="M33.4338 37.9252C29.9529 40.4866 25.6532 42 21.0001 42C16.5972 42 12.5107 40.645 9.13501 38.3293C9.17011 38.3269 9.20606 38.3245 9.24266 38.322C9.8635 38.2803 10.6712 38.226 10.6971 38.0445C10.7341 37.7855 11.474 37.0086 11.844 37.1196C12.2763 37.1196 12.4747 36.8545 12.6215 36.6584C12.7008 36.5525 12.7649 36.4667 12.8428 36.4537C13.0648 36.4167 13.8416 36.2318 14.1376 35.8988C14.1474 35.8878 14.1579 35.8759 14.1692 35.8632C14.4989 35.4915 15.4458 34.424 15.8393 34.567C15.9047 34.5908 16.0073 34.6537 16.149 34.7406C16.8892 35.1945 18.6962 36.3025 21.8323 35.8988C25.5687 35.4179 26.8265 34.3081 26.8635 34.1971C26.8733 34.1676 26.8858 34.2138 26.9098 34.303C26.9763 34.5498 27.1316 35.1265 27.5664 35.3439C27.7103 35.4159 27.898 35.5163 28.106 35.6276C28.7535 35.9739 29.598 36.4257 29.934 36.4537C30.2148 36.4771 30.2828 36.6716 30.2808 36.8252C30.3077 36.6698 30.3708 36.4938 30.4889 36.5647C30.5311 36.59 30.5771 36.6345 30.6353 36.6908C30.8323 36.8815 31.1689 37.2072 31.9687 37.3786C32.7372 37.5433 33.0374 37.708 33.3375 37.8726C33.3694 37.8901 33.4013 37.9076 33.4338 37.9252Z" fill="#DDDDDD"/>
<path d="M13.3975 19.5474L14.8772 18.6226L19.3165 11.0758L21.9431 9.78101L26.7523 10.114L28.9719 11.4827L30.6367 14.5162L31.0066 19.7324C30.9696 20.5093 30.8734 22.0778 30.7846 22.137C30.6959 22.1962 29.9338 24.7513 29.5638 26.0214L26.5303 29.2029C26.3207 29.3262 25.8422 29.6394 25.6055 29.9058C25.3095 30.2387 25.0121 30.5948 24.4957 30.9046C23.9408 31.2375 22.8679 31.6075 22.498 31.7185C22.128 31.8294 21.3142 31.9404 20.6483 31.7185C19.9824 31.4965 18.5026 30.0537 18.2437 29.6838C17.9107 29.2082 16.7762 28.3027 16.6159 28.167C16.0364 27.2299 15.4395 25.8068 15.3211 25.5405C15.2028 25.2741 14.5813 24.5909 14.2853 24.2827L13.6934 22.137L13.3975 19.5474Z" fill="white"/>
<path d="M19.4648 14.7383C18.9345 15.2809 17.7705 16.3883 17.3561 16.477C16.8382 16.588 16.2833 16.995 16.1353 17.1799C15.9874 17.3649 15.5804 17.4759 15.4324 18.3637C15.2845 19.2516 15.1735 19.6585 15.1735 20.0285C15.1735 20.2847 15.2474 20.8738 15.2993 21.2433C15.3082 21.2981 15.3155 21.3498 15.3215 21.3972C15.3148 21.3526 15.3073 21.3006 15.2993 21.2433C15.2161 20.7284 15.0033 19.9482 14.6556 20.0285C14.1746 20.1395 14.3966 21.1383 14.3966 21.2123C14.3966 21.2863 14.8035 22.2481 14.7296 22.4701C14.6556 22.692 14.6556 23.2469 14.6556 23.6169C14.6556 23.9868 14.8035 24.7267 14.9145 24.6897C15.0033 24.6601 15.1242 24.4801 15.1735 24.3938C15.1242 24.6034 15.1297 25.0544 15.1735 25.2076C15.3215 25.7255 16.2067 27.2714 16.6532 27.6492C17.1342 28.0562 17.7261 28.6481 17.5411 30.0538C17.3561 31.4596 17.3931 31.9775 17.3191 32.0515C17.2451 32.1255 17.0972 33.7532 16.5053 34.1972C15.9134 34.6411 15.7654 34.5671 15.8024 34.7151C15.8394 34.8631 15.7654 35.8989 15.9874 36.0469C16.1649 36.1653 14.2856 35.2577 13.3238 34.7891L11.5111 33.9382C10.8698 33.5806 9.46161 32.6286 8.95849 31.6816C8.32959 30.4978 7.44174 28.7221 7.58971 28.5741C7.73769 28.4261 6.84984 28.2411 6.62787 27.9452C6.40591 27.6492 6.73886 27.7232 6.55389 27.5752C6.36892 27.4273 6.33193 27.0573 6.4799 26.8724C6.62787 26.6874 6.5169 25.8735 6.33193 25.8365C6.14696 25.7995 6.88684 23.2839 7.66371 23.025C8.44059 22.766 6.77585 22.1741 6.99782 21.3972C7.21978 20.6204 7.14579 19.8435 8.14463 18.3637C9.14347 16.884 9.40243 16.699 9.51341 16.699C9.62439 16.699 8.81052 15.7372 9.40243 14.5164C9.99433 13.2956 9.29145 14.8863 9.80936 15.2192C10.3273 15.5522 10.3643 15.4782 10.3643 15.4042C10.3643 15.3302 9.5504 15.0343 9.80936 13.9245C10.0683 12.8146 11.918 10.0401 13.4718 8.78229C15.0255 7.52449 17.3561 5.11988 19.7608 5.0089C22.1654 4.89792 23.9781 5.85976 24.163 5.97074C24.348 6.08172 26.0867 5.45283 26.9746 5.97074C27.8624 6.48866 29.1942 7.41351 29.4902 8.11639C29.7861 8.81928 30.711 9.44818 30.8959 9.52217C31.0809 9.59615 32.8936 11.7418 33.7075 14.3684C34.5214 16.995 34.3734 17.2909 34.5954 17.5129C34.8173 17.7348 34.2994 18.4747 34.4104 18.6967C34.5214 18.9186 34.3734 20.5464 35.3352 21.8042C36.2971 23.062 36.1491 24.5047 36.0011 24.6897C35.8531 24.8747 34.6323 25.9105 34.6693 26.5764C34.7063 27.2423 34.3734 27.4273 34.6693 27.7232C34.9653 28.0192 34.6323 28.2411 34.2254 28.2781C33.8185 28.3151 34.0404 28.6111 34.2624 28.7221C34.4844 28.833 34.9653 29.055 34.6693 29.129C34.3734 29.203 33.7075 29.351 33.9295 29.5729C34.1514 29.7949 34.9283 30.0908 33.6705 31.3486C32.4127 32.6064 31.4509 32.6434 31.5248 33.1613C31.5988 33.6793 30.489 35.455 30.9329 35.9729C31.2881 36.3872 28.3927 35.0604 26.9006 34.3452C26.3703 34.1725 25.3394 33.5091 25.4578 32.2365C25.6058 30.6458 25.5502 29.7281 25.8278 29.277C26.1237 28.796 26.0497 28.0932 26.6046 27.7232C27.1279 27.3744 27.7286 26.1183 28.0844 25.7625C28.3064 25.5406 28.0844 24.1877 28.2694 23.9498C28.5283 23.6169 29.3422 23.8758 29.5642 23.4689C29.7861 23.062 30.1561 22.5441 30.1191 21.8042C30.0821 21.0643 30.0081 19.9175 29.7861 19.7325C29.5642 19.5475 29.3792 19.5845 29.3792 19.7325C29.3792 19.8805 29.3792 19.3626 29.3052 19.2516C29.2312 19.1406 28.6023 19.2146 28.5283 19.3996C28.4543 19.5845 28.3064 19.8435 28.0104 19.6585C27.7145 19.4736 27.2335 18.9926 27.4925 16.847C27.7515 14.7013 27.8624 14.2574 27.6035 13.9245C27.3445 13.5915 27.4925 13.7395 26.3827 13.2586C25.2729 12.7776 23.9781 12.0378 23.9411 11.2609C23.7931 11.6678 20.9446 13.3202 19.4648 14.7383Z" fill="#2A2A2A"/>
<defs>
<radialGradient id="paint0_radial_153_146" cx="0" cy="0" r="1" gradientUnits="userSpaceOnUse" gradientTransform="translate(21.3882 28.2041) rotate(94.6045) scale(5.52996 6.70671)">
<stop stop-opacity="0.18"/>
<stop offset="1" stop-opacity="0"/>
</radialGradient>
</defs>
</svg>
