<?xml version="1.0" encoding="UTF-8"?>
<!DOCTYPE svg PUBLIC "-//W3C//DTD SVG 1.1//EN" "http://www.w3.org/Graphics/SVG/1.1/DTD/svg11.dtd">
<!-- Creator: CorelDRAW X8 -->
<svg xmlns="http://www.w3.org/2000/svg" xml:space="preserve" width="16.9332mm" height="16.9332mm" version="1.1" style="shape-rendering:geometricPrecision; text-rendering:geometricPrecision; image-rendering:optimizeQuality; fill-rule:evenodd; clip-rule:evenodd"
viewBox="0 0 1693 1693"
 xmlns:xlink="http://www.w3.org/1999/xlink">
 <defs>
  <style type="text/css">
   <![CDATA[
    .fil5 {fill:#2A2A2A}
    .fil0 {fill:#4F36E3}
    .fil3 {fill:#DDDDDD}
    .fil1 {fill:whitesmoke}
    .fil4 {fill:white}
    .fil2 {fill:url(#id0)}
   ]]>
  </style>
  <radialGradient id="id0" gradientUnits="userSpaceOnUse" gradientTransform="matrix(-0.126126 1.591 -1.89925 -0.155396 3151 -62)" cx="869.46" cy="1143.5" r="91.64" fx="869.46" fy="1143.5">
   <stop offset="0" style="stop-opacity:1; stop-color:black"/>
   <stop offset="-100.859" style="stop-opacity:0.180392; stop-color:black"/>
   <stop offset="1" style="stop-opacity:0; stop-color:black"/>
  </radialGradient>
 </defs>
 <g id="Слой_x0020_1">
  <metadata id="CorelCorpID_0Corel-Layer"/>
  <circle class="fil0" cx="851" cy="851" r="842"/>
  <path class="fil1" d="M647 1394c13,-5 43,-164 56,-242l362 -34 24 242 -4 53 -88 39 -180 35 -164 -67c-8,-7 -19,-22 -6,-26z"/>
  <path class="fil2" d="M647 1394c13,-5 43,-164 56,-242l362 -34 24 242 -4 53 -88 39 -180 35 -164 -67c-8,-7 -19,-22 -6,-26z"/>
  <path class="fil3" d="M1350 1530c-140,103 -312,163 -499,163 -177,0 -341,-54 -476,-147 1,0 3,0 4,0 25,-2 58,-4 59,-11 1,-11 31,-42 46,-37 17,0 25,-11 31,-19 3,-4 6,-8 9,-8 9,-2 40,-9 52,-22 0,-1 0,-1 1,-2 13,-15 51,-58 67,-52 2,1 7,4 12,7 30,18 102,63 228,47 150,-20 201,-64 202,-69 1,-1 1,1 2,5 3,9 9,33 26,41 6,3 14,7 22,12 26,14 60,32 73,33 12,1 14,9 14,15 1,-6 4,-14 9,-11 1,1 3,3 5,5 8,8 22,21 54,28 31,7 43,13 55,20 1,0 2,1 4,2z"/>
  <path class="fil4" d="M546 793l59 -37 178 -303 106 -52 193 13 89 55 66 122 15 209c-1,31 -5,94 -9,96 -3,3 -34,105 -49,156l-121 128c-9,5 -28,17 -37,28 -12,14 -24,28 -45,40 -22,14 -65,28 -80,33 -15,4 -48,9 -74,0 -27,-9 -86,-67 -97,-82 -13,-19 -59,-55 -65,-61 -23,-37 -47,-94 -52,-105 -5,-11 -30,-38 -41,-50l-24 -87 -12 -103z"/>
  <path class="fil5" d="M789 600c-21,21 -68,66 -84,69 -21,5 -43,21 -49,29 -6,7 -23,12 -28,47 -6,36 -11,52 -11,67 0,10 3,34 5,49 1,2 1,4 1,6 0,-2 0,-4 -1,-6 -3,-21 -12,-52 -26,-49 -19,4 -10,44 -10,47 0,3 16,42 13,51 -3,9 -3,31 -3,46 0,15 6,44 11,43 3,-1 8,-8 10,-12 -2,8 -2,27 0,33 6,20 42,82 60,98 19,16 43,40 35,96 -7,56 -6,77 -9,80 -3,3 -9,69 -32,86 -24,18 -30,15 -29,21 2,6 -1,48 8,54 7,4 -68,-32 -107,-51l-73 -34c-26,-14 -82,-53 -102,-91 -25,-47 -61,-118 -55,-124 6,-6 -30,-14 -39,-25 -9,-12 5,-9 -3,-15 -7,-6 -9,-21 -3,-29 6,-7 2,-40 -6,-41 -7,-2 23,-102 54,-113 31,-10 -36,-34 -27,-65 9,-31 6,-63 46,-122 40,-59 51,-67 55,-67 5,0 -28,-38 -4,-87 23,-49 -5,15 16,28 21,13 22,10 22,7 0,-3 -32,-14 -22,-59 10,-44 85,-156 147,-206 62,-51 156,-147 252,-152 97,-4 169,35 177,39 7,4 77,-21 113,0 35,21 89,58 100,86 12,28 49,53 57,56 7,3 80,89 113,195 32,105 26,117 35,126 9,9 -12,39 -7,47 4,9 -2,75 37,125 39,51 33,108 27,116 -6,7 -55,49 -54,76 2,26 -12,34 0,46 12,11 -1,20 -18,22 -16,1 -7,13 2,18 9,4 28,13 16,16 -12,3 -38,9 -29,18 8,9 40,21 -11,71 -50,51 -89,52 -86,73 3,21 -41,92 -24,113 15,16 -102,-37 -161,-66 -22,-7 -63,-33 -58,-84 6,-64 3,-101 15,-119 11,-19 8,-48 31,-62 21,-14 45,-65 59,-79 9,-9 0,-63 8,-73 10,-13 43,-3 51,-19 9,-16 24,-37 23,-67 -2,-30 -5,-76 -14,-83 -9,-7 -16,-6 -16,0 0,6 0,-15 -3,-19 -3,-5 -28,-2 -31,6 -3,7 -9,17 -21,10 -12,-7 -31,-27 -21,-113 11,-86 15,-104 5,-117 -11,-13 -5,-7 -49,-27 -45,-19 -97,-49 -98,-80 -6,17 -120,83 -180,140z"/>
 </g>
</svg>
