<svg width="42" height="42" viewBox="0 0 42 42" fill="none" xmlns="http://www.w3.org/2000/svg">
<circle cx="21" cy="21" r="21" fill="#ECD58C"/>
<path d="M14.4097 33.9998C14.7447 33.3603 14.4731 31.2466 14.2955 30.2696L15.0568 28.8994L27.6937 28.4045C27.7063 29.3307 27.7241 31.3811 27.6937 32.1728C27.6556 33.1624 28.1123 34.0378 28.2646 34.723C28.3864 35.2711 29.0512 35.4335 29.3684 35.4462C29.508 35.4842 29.7795 35.606 29.7491 35.7887C29.711 36.0171 28.8736 37.2351 27.7317 38.4151C26.5898 39.595 23.0119 39.4428 22.4029 39.595C21.7939 39.7473 18.4063 39.2905 17.4547 39.0622C16.6935 38.8794 14.9045 37.3113 14.1052 36.55C13.8261 36.2328 13.3211 35.5908 13.5343 35.5604C13.8007 35.5223 13.991 34.7991 14.4097 33.9998Z" fill="white"/>
<path d="M14.4097 33.9998C14.7447 33.3603 14.4731 31.2466 14.2955 30.2696L15.0568 28.8994L27.6937 28.4045C27.7063 29.3307 27.7241 31.3811 27.6937 32.1728C27.6556 33.1624 28.1123 34.0378 28.2646 34.723C28.3864 35.2711 29.0512 35.4335 29.3684 35.4462C29.508 35.4842 29.7795 35.606 29.7491 35.7887C29.711 36.0171 28.8736 37.2351 27.7317 38.4151C26.5898 39.595 23.0119 39.4428 22.4029 39.595C21.7939 39.7473 18.4063 39.2905 17.4547 39.0622C16.6935 38.8794 14.9045 37.3113 14.1052 36.55C13.8261 36.2328 13.3211 35.5908 13.5343 35.5604C13.8007 35.5223 13.991 34.7991 14.4097 33.9998Z" fill="url(#paint0_radial_153_155)"/>
<path d="M11.3243 19.097C11.8724 19.1579 12.2886 20.6703 12.4281 21.4189L12.3139 19.3635V15.0243C12.3139 14.9025 12.8976 12.7152 13.1894 11.6367L15.2829 10.0761L23.1619 10L27.5391 10.9516L29.1377 12.9689V16.0139L29.2519 18.5261C28.9855 19.9471 29.2139 19.1869 29.0616 20.8099C29.6706 18.8306 30.4699 19.2873 30.6983 19.706C30.9267 20.1247 30.6983 21.1524 30.5841 21.3808C30.4699 21.6092 30.3558 22.0279 30.2796 22.104C30.2035 22.1801 30.4319 23.0556 30.2796 23.322C30.1274 23.5885 30.0893 24.4639 30.0893 24.5781C30.0893 24.6923 29.6326 25.0348 29.5184 24.9587C29.4042 24.8826 29.1377 25.0348 29.0616 25.3013C28.9855 25.5677 28.7952 26.1767 28.5668 26.5574C28.3384 26.938 28.4907 28.0799 28.3004 28.3844C28.11 28.6889 26.7017 30.2875 25.027 31.81C23.3522 33.3326 21.2207 33.599 20.9923 33.599C20.7639 33.599 19.622 33.7893 17.3763 32.7235C15.1306 31.6578 14.2932 30.1733 13.7223 29.4501C13.2655 28.8716 12.7453 27.2044 12.5423 26.4432C12.517 26.0499 12.4586 25.248 12.4281 25.1871C12.3901 25.111 12.352 25.2632 12.2759 25.3774C12.1998 25.4916 11.9714 25.3393 11.743 25.1871C11.5146 25.0348 11.2482 24.1975 11.134 23.7026C11.0198 23.2078 10.6392 22.2943 10.3347 21.6092C10.0302 20.924 10.2586 20.1628 10.3347 19.7822C10.4108 19.4015 10.6392 19.0209 11.3243 19.097Z" fill="#FBFFF9"/>
<path d="M13.2655 14.5297C12.9001 15.7477 12.5804 19.6555 12.4662 21.4571C12.4408 21.4825 12.2683 21.3414 12.2378 20.8238C12.1998 20.1767 11.9333 19.9346 11.2863 18.7546C10.6392 17.5747 10.7914 17.0418 10.8676 16.585C10.9437 16.1283 11.0198 15.4432 10.7914 14.8342C10.5631 14.2251 10.7534 12.7026 11.0579 10.533C11.3624 8.36346 12.5423 7.25964 12.6946 7.25964C12.8468 7.25964 15.2448 5.92744 15.5112 5.43262C15.7777 4.9378 16.2725 4.82361 16.4247 4.86168C16.577 4.89974 17.8711 4.74749 18.1756 4.70943C18.4801 4.67136 18.5943 4.25267 18.7085 4.10042C18.8227 3.94817 19.8123 3.98623 20.3452 4.10042C20.8781 4.21461 23.4664 4.55717 24.2657 4.48105C25.065 4.40492 25.4076 4.89974 26.245 5.47068C27.0824 6.04163 26.6637 6.38419 26.6256 6.53644C26.5875 6.6887 27.0062 6.80289 27.5391 6.80289C28.072 6.80289 29.2139 6.23194 29.0616 6.34613C28.9398 6.43748 29.0616 6.86632 29.1377 7.06933C29.2266 6.91707 29.5641 6.84095 30.2035 7.75446C31.0028 8.89634 31.1931 11.9794 31.1931 12.2459C31.1931 12.5123 31.0409 16.1664 31.0409 17.0418C31.0409 17.9172 30.508 19.1353 30.4319 19.2875C30.3558 19.4398 30.2035 19.4447 30.0513 19.4778C29.3509 19.6301 29.0997 20.5816 29.0616 21.0384V18.7927C29.0616 18.5643 28.9474 18.2218 28.7191 17.3082C28.4907 16.3947 28.4907 14.5297 28.5287 14.2632C28.5668 13.9968 28.2242 12.8168 27.7294 12.2459C27.2346 11.6749 26.245 11.2943 24.7225 11.0279C23.1999 10.7614 21.6394 11.3704 20.9542 11.5988C20.2691 11.8272 20.2691 11.5988 19.2033 11.5988C18.1376 11.5988 16.4247 10.8756 15.4732 11.0279C14.5216 11.1801 13.7223 13.0071 13.2655 14.5297Z" fill="#2A2A2A"/>
<path fill-rule="evenodd" clip-rule="evenodd" d="M34.1131 37.4037C30.5198 40.2799 25.9608 42 21.0001 42C16.1843 42 11.7471 40.379 8.20447 37.6528C8.5322 37.4332 8.83206 37.2445 9.01132 37.1548C9.5442 36.8884 13.3505 35.2898 13.5027 35.3659C13.5201 35.3746 13.5701 35.4312 13.6522 35.5243C14.291 36.2481 16.8747 39.1755 21.1914 38.9057C26.0635 38.6012 27.7383 37.7638 29.2988 35.2136C31.278 35.8922 32.9842 36.8018 34.0117 37.3496C34.0463 37.368 34.0801 37.3861 34.1131 37.4037Z" fill="#2A2A2A"/>
<defs>
<radialGradient id="paint0_radial_153_155" cx="0" cy="0" r="1" gradientUnits="userSpaceOnUse" gradientTransform="translate(21.6036 29.0516) rotate(89.6826) scale(7.05838 10.2333)">
<stop stop-opacity="0.27"/>
<stop offset="1" stop-opacity="0"/>
</radialGradient>
</defs>
</svg>
