<?xml version="1.0" encoding="UTF-8"?>
<!DOCTYPE svg PUBLIC "-//W3C//DTD SVG 1.1//EN" "http://www.w3.org/Graphics/SVG/1.1/DTD/svg11.dtd">
<!-- Creator: CorelDRAW X8 -->
<svg xmlns="http://www.w3.org/2000/svg" xml:space="preserve" width="16.9332mm" height="16.9332mm" version="1.1" style="shape-rendering:geometricPrecision; text-rendering:geometricPrecision; image-rendering:optimizeQuality; fill-rule:evenodd; clip-rule:evenodd"
viewBox="0 0 1693 1693"
 xmlns:xlink="http://www.w3.org/1999/xlink">
 <defs>
  <style type="text/css">
   <![CDATA[
    .fil4 {fill:#2A2A2A}
    .fil0 {fill:#4F36E3}
    .fil3 {fill:#FBFFF9}
    .fil1 {fill:white}
    .fil2 {fill:url(#id0)}
   ]]>
  </style>
  <radialGradient id="id0" gradientUnits="userSpaceOnUse" gradientTransform="matrix(0.00719717 1.30018 -1.8836 0.0104426 3062 22)" cx="871.27" cy="1166.5" r="142.05" fx="871.27" fy="1166.5">
   <stop offset="0" style="stop-opacity:1; stop-color:black"/>
   <stop offset="-100.859" style="stop-opacity:0.270588; stop-color:black"/>
   <stop offset="1" style="stop-opacity:0; stop-color:black"/>
  </radialGradient>
 </defs>
 <g id="Слой_x0020_1">
  <metadata id="CorelCorpID_0Corel-Layer"/>
  <circle class="fil0" cx="851" cy="848" r="842"/>
  <path class="fil1" d="M584 1363c13,-26 2,-110 -5,-149l30 -55 505 -19c0,37 1,118 0,150 -2,40 17,74 23,102 4,22 31,28 44,29 5,1 16,6 15,13 -2,9 -35,58 -81,105 -45,47 -188,41 -212,47 -25,6 -160,-12 -198,-21 -30,-7 -102,-70 -134,-100 -11,-13 -31,-39 -22,-40 10,-1 18,-30 35,-62z"/>
  <path class="fil2" d="M584 1363c13,-26 2,-110 -5,-149l30 -55 505 -19c0,37 1,118 0,150 -2,40 17,74 23,102 4,22 31,28 44,29 5,1 16,6 15,13 -2,9 -35,58 -81,105 -45,47 -188,41 -212,47 -25,6 -160,-12 -198,-21 -30,-7 -102,-70 -134,-100 -11,-13 -31,-39 -22,-40 10,-1 18,-30 35,-62z"/>
  <path class="fil3" d="M460 768c22,3 39,63 44,93l-4 -82 0 -173c0,-5 23,-93 35,-136l83 -62 315 -3 175 38 63 81 0 121 5 100c-11,57 -2,27 -8,92 25,-79 57,-61 66,-45 9,17 0,58 -5,67 -4,9 -9,26 -12,29 -3,3 6,38 0,49 -6,10 -8,45 -8,50 0,4 -18,18 -22,15 -5,-3 -16,3 -19,14 -3,10 -10,35 -19,50 -9,15 -3,61 -11,73 -8,12 -64,76 -131,137 -66,60 -152,71 -161,71 -9,0 -54,8 -144,-35 -90,-43 -123,-102 -146,-131 -18,-23 -39,-89 -47,-120 -1,-15 -3,-47 -5,-50 -1,-3 -3,3 -6,8 -3,4 -12,-2 -21,-8 -9,-6 -20,-39 -24,-59 -5,-20 -20,-56 -32,-84 -12,-27 -3,-57 0,-73 3,-15 12,-30 39,-27z"/>
  <path class="fil4" d="M538 586c-15,48 -27,204 -32,276 -1,1 -8,-4 -9,-25 -2,-26 -12,-35 -38,-83 -26,-47 -20,-68 -17,-86 3,-18 6,-46 -3,-70 -9,-24 -1,-85 11,-172 12,-86 59,-130 65,-130 6,0 102,-54 113,-73 10,-20 30,-25 36,-23 6,1 58,-5 70,-6 12,-2 17,-18 21,-24 5,-7 44,-5 66,0 21,4 124,18 156,15 32,-3 46,16 79,39 33,23 17,37 15,43 -1,6 15,10 37,10 21,0 66,-22 60,-18 -4,4 0,21 3,29 4,-6 17,-9 43,27 32,46 39,169 39,180 0,10 -6,156 -6,191 0,35 -21,84 -24,90 -3,6 -9,6 -15,7 -28,6 -38,44 -40,63l0 -90c0,-9 -4,-23 -13,-59 -9,-37 -9,-111 -8,-122 2,-10 -12,-58 -32,-80 -20,-23 -59,-38 -120,-49 -61,-11 -123,14 -150,23 -28,9 -28,0 -70,0 -43,0 -111,-29 -149,-23 -38,6 -70,79 -88,140z"/>
  <path class="fil4" d="M1370 1499c-143,115 -325,183 -523,183 -193,0 -370,-64 -511,-173 13,-9 25,-17 32,-20 21,-11 173,-75 179,-72 1,1 3,3 6,7 26,29 129,146 301,135 195,-12 262,-46 324,-148 79,27 147,64 188,86 1,0 3,1 4,2z"/>
 </g>
</svg>
