<svg width="320" height="512" viewBox="0 0 320 512" fill="none" xmlns="http://www.w3.org/2000/svg">
<path d="M4.71465 274.795C-8.36268 300.502 6.48532 312.79 40.3627 333.782C69.1627 351.574 108.949 358.08 134.507 360.683C124.032 370.752 172.032 324.587 33.792 457.558C4.47998 485.654 51.6693 530.731 80.96 503.232L160.256 426.752C190.613 455.958 219.712 483.947 239.552 503.339C268.864 530.944 316.032 486.251 287.04 457.664C284.864 455.595 179.584 354.603 186.005 360.79C211.883 358.187 251.072 351.296 279.531 333.888L279.509 333.867C313.387 312.768 328.235 300.502 315.349 274.795C307.563 260.203 286.571 248 258.624 269.099C258.624 269.099 220.885 298.006 160.021 298.006C99.136 298.006 61.4187 269.099 61.4187 269.099C33.4933 247.894 12.416 260.203 4.71465 274.795V274.795Z" fill="white"/>
<path d="M159.979 259.029C234.176 259.029 294.763 201.045 294.763 129.664C294.763 57.984 234.176 0 159.979 0C85.76 0 25.1733 57.984 25.1733 129.664C25.1733 201.045 85.76 259.029 159.979 259.029ZM159.979 65.6853C196.437 65.6853 226.176 94.2933 226.176 129.664C226.176 164.736 196.437 193.344 159.979 193.344C123.52 193.344 93.7813 164.736 93.7813 129.664C93.76 94.272 123.499 65.6853 159.979 65.6853V65.6853Z" fill="white"/>
</svg>
