<?xml version="1.0" encoding="UTF-8"?>
<!DOCTYPE svg PUBLIC "-//W3C//DTD SVG 1.1//EN" "http://www.w3.org/Graphics/SVG/1.1/DTD/svg11.dtd">
<!-- Creator: CorelDRAW 2020 (64-Bit) -->
<svg xmlns="http://www.w3.org/2000/svg" xml:space="preserve" width="100mm" height="100mm" version="1.1" style="shape-rendering:geometricPrecision; text-rendering:geometricPrecision; image-rendering:optimizeQuality; fill-rule:evenodd; clip-rule:evenodd"
viewBox="0 0 10000 10000"
 xmlns:xlink="http://www.w3.org/1999/xlink"
 xmlns:xodm="http://www.corel.com/coreldraw/odm/2003">
 <defs>
  <style type="text/css">
   <![CDATA[
    .fil0 {fill:#0C59CF;fill-rule:nonzero}
   ]]>
  </style>
 </defs>
 <g id="Слой_x0020_1">
  <metadata id="CorelCorpID_0Corel-Layer"/>
  <g id="_913473904">
   <path class="fil0" d="M9423.42 570.03c-364.65,-364.74 -803.99,-547.15 -1317.67,-547.15l-6216.7 0c-513.69,0 -953.03,182.41 -1317.83,547.15 -364.74,364.81 -547.15,804.13 -547.15,1317.84l0 6216.62c0,513.67 182.41,953.04 547.14,1317.84 364.81,364.81 804.15,547.21 1317.84,547.21l6216.63 0c513.69,0 953.03,-182.41 1317.68,-547.21 364.81,-364.81 547.21,-804.14 547.21,-1317.84l0 -6216.62c-0.02,-513.71 -182.43,-953.1 -547.15,-1317.84zm-1110.5 4840.59c0,112.23 -41.08,209.48 -122.95,291.38 -82.14,81.97 -179.3,123.12 -291.56,123.12l-2072.04 0 0 2072.13c0,112.24 -41.21,209.4 -123.21,291.39 -81.87,82.11 -179.11,123.1 -291.38,123.1l-828.85 0c-112.23,0 -209.37,-40.99 -291.38,-123.1 -82.04,-81.97 -123.07,-179.14 -123.07,-291.39l0 -2072.13 -2072.23 0c-112.23,0 -209.32,-41.12 -291.39,-123.12 -81.99,-81.87 -123.02,-179.14 -123.02,-291.38l0 -828.94c0,-112.23 41.03,-209.38 123.02,-291.39 82.04,-82.04 179.14,-123.07 291.39,-123.07l2072.25 0 0 -2072.15c0,-112.25 41.02,-209.42 123.06,-291.39 82.02,-82.07 179.14,-123.12 291.39,-123.12l828.85 0c112.25,0 209.49,41.05 291.39,123.12 81.97,81.97 123.2,179.14 123.2,291.39l0 2072.17 2072.05 0c112.23,0 209.39,41.03 291.55,123.07 81.95,81.99 122.96,179.14 122.96,291.39l-0.01 828.92 -0.02 0z"/>
  </g>
 </g>
</svg>
