<svg width="30" height="30" viewBox="0 0 30 30" fill="none" xmlns="http://www.w3.org/2000/svg">
<g opacity="0.5">
<path d="M15 10C12.2369 10 10 12.2394 10 15C10 17.7631 12.2394 20 15 20C17.7631 20 20 17.7606 20 15C20 12.2369 17.7606 10 15 10ZM15 18.2454C13.2064 18.2454 11.7546 16.7928 11.7546 15C11.7546 13.2072 13.2072 11.7546 15 11.7546C16.7928 11.7546 18.2454 13.2072 18.2454 15C18.2462 16.7928 16.7936 18.2454 15 18.2454Z" fill="#484848"/>
<path d="M19.639 3.82067C17.569 3.72411 12.4418 3.7288 10.3699 3.82067C8.54928 3.90598 6.94334 4.34566 5.64865 5.64033C3.4849 7.80404 3.76146 10.7196 3.76146 14.9955C3.76146 19.3717 3.51771 22.2197 5.64865 24.3506C7.82084 26.5218 10.7787 26.2378 15.004 26.2378C19.339 26.2378 20.8352 26.2406 22.368 25.6472C24.4521 24.8381 26.0252 22.9753 26.179 19.6295C26.2765 17.5586 26.2708 12.4324 26.179 10.3606C25.9933 6.41094 23.8737 4.01567 19.639 3.82067ZM22.9155 22.9191C21.4971 24.3375 19.5293 24.2109 14.9768 24.2109C10.2893 24.2109 8.40959 24.2803 7.03803 22.905C5.45834 21.3329 5.74428 18.8082 5.74428 14.9805C5.74428 9.80088 5.21271 6.07063 10.4112 5.80439C11.6055 5.7622 11.9571 5.74814 14.9637 5.74814L15.0058 5.77626C20.0018 5.77626 23.9215 5.25315 24.1568 10.4506C24.2102 11.6365 24.2224 11.9927 24.2224 14.9945C24.2215 19.6276 24.3096 21.5185 22.9155 22.9191Z" fill="#484848"/>
<path d="M20.625 11.25C21.6605 11.25 22.5 10.4105 22.5 9.375C22.5 8.33947 21.6605 7.5 20.625 7.5C19.5895 7.5 18.75 8.33947 18.75 9.375C18.75 10.4105 19.5895 11.25 20.625 11.25Z" fill="#484848"/>
</g>
</svg>
