<svg width="30" height="30" viewBox="0 0 30 30" fill="none" xmlns="http://www.w3.org/2000/svg">
<g opacity="0.5">
<path d="M22.2076 16.6424C21.8236 16.1575 21.9334 15.9417 22.2076 15.5083C22.2125 15.5034 25.3821 11.1235 25.7087 9.6381L25.7107 9.63711C25.873 9.09581 25.7107 8.698 24.9259 8.698H22.3293C21.6682 8.698 21.3634 9.0394 21.2002 9.42138C21.2002 9.42138 19.8781 12.5861 18.0078 14.6375C17.4041 15.2302 17.1251 15.4202 16.7955 15.4202C16.6332 15.4202 16.3809 15.2302 16.3809 14.6889V9.63711C16.3809 8.98795 16.1958 8.698 15.6486 8.698H11.5656C11.1509 8.698 10.9045 9.00081 10.9045 9.28284C10.9045 9.89836 11.8397 10.0399 11.9367 11.7716V15.5291C11.9367 16.3524 11.7872 16.5038 11.4557 16.5038C10.573 16.5038 8.43057 13.3263 7.16094 9.68956C6.90464 8.98399 6.65427 8.69899 5.98828 8.69899H3.39062C2.64943 8.69899 2.5 9.04039 2.5 9.42237C2.5 10.0973 3.38271 13.4529 6.60479 17.8863C8.75219 20.9124 11.7764 22.5522 14.5274 22.5522C16.181 22.5522 16.3829 22.188 16.3829 21.5616C16.3829 18.67 16.2334 18.3969 17.0617 18.3969C17.4457 18.3969 18.1067 18.5869 19.6505 20.0465C21.4149 21.7773 21.7048 22.5522 22.6924 22.5522H25.2891C26.0293 22.5522 26.4044 22.188 26.1886 21.4696C25.6948 19.9585 22.358 16.8502 22.2076 16.6424Z" fill="#484848"/>
</g>
</svg>
