<svg width="30" height="30" viewBox="0 0 30 30" fill="none" xmlns="http://www.w3.org/2000/svg">
<g opacity="0.5">
<path d="M7.72101 15.7551C7.10792 16.8925 7.80402 17.4361 9.39225 18.3649C10.7424 19.1521 12.6077 19.44 13.8059 19.5551C13.3148 20.0006 15.5651 17.9581 9.0842 23.8412C7.71001 25.0842 9.92232 27.0786 11.2955 25.862L15.013 22.4782C16.4362 23.7704 17.8004 25.0087 18.7306 25.8667C20.1048 27.0881 22.3161 25.1107 20.9569 23.8459C20.8549 23.7543 15.9192 19.2861 16.2202 19.5598C17.4334 19.4447 19.2707 19.1398 20.6048 18.3696L20.6038 18.3687C22.1921 17.4352 22.8882 16.8925 22.2841 15.7551C21.919 15.1095 20.9349 14.5696 19.6247 15.5031C19.6247 15.5031 17.8555 16.782 15.002 16.782C12.1476 16.782 10.3794 15.5031 10.3794 15.5031C9.0702 14.5649 8.08206 15.1095 7.72101 15.7551Z" fill="#484848"/>
<path d="M15.0005 15C18.4408 15 21.25 12.2019 21.25 8.75721C21.25 5.29814 18.4408 2.5 15.0005 2.5C11.5592 2.5 8.75 5.29814 8.75 8.75721C8.75 12.2019 11.5592 15 15.0005 15ZM15.0005 5.66978C16.691 5.66978 18.0699 7.05032 18.0699 8.75721C18.0699 10.4497 16.691 11.8302 15.0005 11.8302C13.31 11.8302 11.9311 10.4497 11.9311 8.75721C11.9301 7.04929 13.309 5.66978 15.0005 5.66978Z" fill="#484848"/>
</g>
</svg>
