<?xml version="1.0" encoding="UTF-8"?>
<!DOCTYPE svg PUBLIC "-//W3C//DTD SVG 1.1//EN" "http://www.w3.org/Graphics/SVG/1.1/DTD/svg11.dtd">
<!-- Creator: CorelDRAW 2020 (64-Bit) -->
<svg xmlns="http://www.w3.org/2000/svg" xml:space="preserve" width="101.6mm" height="101.6mm" version="1.1" style="shape-rendering:geometricPrecision; text-rendering:geometricPrecision; image-rendering:optimizeQuality; fill-rule:evenodd; clip-rule:evenodd"
viewBox="0 0 10160 10160"
 xmlns:xlink="http://www.w3.org/1999/xlink"
 xmlns:xodm="http://www.corel.com/coreldraw/odm/2003">
 <defs>
  <style type="text/css">
   <![CDATA[
    .fil0 {fill:black;fill-rule:nonzero}
   ]]>
  </style>
 </defs>
 <g id="Слой_x0020_1">
  <metadata id="CorelCorpID_0Corel-Layer"/>
  <g id="_1097590496">
   <path class="fil0" d="M8919.81 5486.76l-1388.22 -1567.38 -1286.4 0 0 -620.03 -1534.67 0c-295.05,-630.69 -935.59,-1068.72 -1676.6,-1068.72 -1020,-0.01 -1849.89,829.88 -1849.89,1849.9 0,708.16 400.08,1324.56 986.01,1635.35l0 1460.56 703.64 0c18.85,455.05 394.8,819.5 854.4,819.5 459.6,0 835.54,-364.45 854.39,-819.5l1924.9 0c18.85,455.05 394.81,819.5 854.41,819.5 459.58,0 835.54,-364.45 854.39,-819.5l703.64 0 0 -1689.68zm-7413.45 -1406.23c0,-842.33 685.24,-1527.59 1527.58,-1527.59 842.32,0 1527.58,685.26 1527.58,1527.59 0,842.32 -685.26,1527.58 -1527.58,1527.58 -842.35,0 -1527.58,-685.26 -1527.58,-1527.58zm2221.71 3593.1c-293.91,0 -532.98,-239.07 -532.98,-532.98 0,-293.91 239.07,-532.98 532.98,-532.98 293.92,0 532.99,239.07 532.99,532.98 0,293.92 -239.07,532.98 -532.99,532.98zm2194.8 -819.5l-1389.03 0c-118.08,-331.09 -434.64,-568.77 -805.77,-568.77 -371.12,0 -687.67,237.69 -805.77,568.77l-429.94 0 0 -1004.64c171.37,52.57 353.21,80.95 541.56,80.95 1020.02,0 1849.9,-829.89 1849.9,-1849.89 0,-158.33 -20.04,-312.09 -57.63,-458.86l1096.67 0 0 3232.44 0.01 0zm1438.91 819.5c-293.93,0 -533,-239.07 -533,-532.98 0,-293.91 239.07,-532.98 533,-532.98 293.91,0 532.98,239.07 532.98,532.98 0,293.92 -239.07,532.98 -532.98,532.98zm1235.7 -819.5l-429.93 0c-118.09,-331.09 -434.66,-568.77 -805.77,-568.77 -371.13,0 -687.7,237.69 -805.79,568.77l-310.78 0 0 -2612.42 1141.27 0 1211 1367.35 0 1245.07z"/>
   <polygon class="fil0" points="3756.87,4315.12 3195.1,3987.91 3195.1,2911.8 2872.77,2911.8 2872.77,4173.16 3594.61,4593.68 "/>
  </g>
  <g id="_1097636480">
  </g>
  <g id="_1097622992">
  </g>
  <g id="_1097620544">
  </g>
  <g id="_1097625056">
  </g>
  <g id="_1097626064">
  </g>
  <g id="_1088476176">
  </g>
  <g id="_1088482848">
  </g>
  <g id="_1088486496">
  </g>
  <g id="_1088479200">
  </g>
  <g id="_1088529216">
  </g>
  <g id="_1088516928">
  </g>
  <g id="_1088529696">
  </g>
  <g id="_1088502048">
  </g>
  <g id="_1088520912">
  </g>
  <g id="_1088506464">
  </g>
  <g id="_1097590496_0">
   <path class="fil0" d="M8919.81 5486.76l-1388.22 -1567.38 -1286.4 0 0 -620.03 -1534.67 0c-295.05,-630.69 -935.59,-1068.72 -1676.6,-1068.72 -1020,-0.01 -1849.89,829.88 -1849.89,1849.9 0,708.16 400.08,1324.56 986.01,1635.35l0 1460.56 703.64 0c18.85,455.05 394.8,819.5 854.4,819.5 459.6,0 835.54,-364.45 854.39,-819.5l1924.9 0c18.85,455.05 394.81,819.5 854.41,819.5 459.58,0 835.54,-364.45 854.39,-819.5l703.64 0 0 -1689.68zm-7413.45 -1406.23c0,-842.33 685.24,-1527.59 1527.58,-1527.59 842.32,0 1527.58,685.26 1527.58,1527.59 0,842.32 -685.26,1527.58 -1527.58,1527.58 -842.35,0 -1527.58,-685.26 -1527.58,-1527.58zm2221.71 3593.1c-293.91,0 -532.98,-239.07 -532.98,-532.98 0,-293.91 239.07,-532.98 532.98,-532.98 293.92,0 532.99,239.07 532.99,532.98 0,293.92 -239.07,532.98 -532.99,532.98zm2194.8 -819.5l-1389.03 0c-118.08,-331.09 -434.64,-568.77 -805.77,-568.77 -371.12,0 -687.67,237.69 -805.77,568.77l-429.94 0 0 -1004.64c171.37,52.57 353.21,80.95 541.56,80.95 1020.02,0 1849.9,-829.89 1849.9,-1849.89 0,-158.33 -20.04,-312.09 -57.63,-458.86l1096.67 0 0 3232.44 0.01 0zm1438.91 819.5c-293.93,0 -533,-239.07 -533,-532.98 0,-293.91 239.07,-532.98 533,-532.98 293.91,0 532.98,239.07 532.98,532.98 0,293.92 -239.07,532.98 -532.98,532.98zm1235.7 -819.5l-429.93 0c-118.09,-331.09 -434.66,-568.77 -805.77,-568.77 -371.13,0 -687.7,237.69 -805.79,568.77l-310.78 0 0 -2612.42 1141.27 0 1211 1367.35 0 1245.07z"/>
   <polygon class="fil0" points="3756.87,4315.12 3195.1,3987.91 3195.1,2911.8 2872.77,2911.8 2872.77,4173.16 3594.61,4593.68 "/>
  </g>
  <g id="_1097636480_1">
  </g>
  <g id="_1097622992_2">
  </g>
  <g id="_1097620544_3">
  </g>
  <g id="_1097625056_4">
  </g>
  <g id="_1097626064_5">
  </g>
  <g id="_1088476176_6">
  </g>
  <g id="_1088482848_7">
  </g>
  <g id="_1088486496_8">
  </g>
  <g id="_1088479200_9">
  </g>
  <g id="_1088529216_10">
  </g>
  <g id="_1088516928_11">
  </g>
  <g id="_1088529696_12">
  </g>
  <g id="_1088502048_13">
  </g>
  <g id="_1088520912_14">
  </g>
  <g id="_1088506464_15">
  </g>
 </g>
</svg>
