<svg width="22" height="22" viewBox="0 0 22 22" fill="none" xmlns="http://www.w3.org/2000/svg">
<path fill-rule="evenodd" clip-rule="evenodd" d="M10.9997 20.1667C5.93692 20.1667 1.83301 16.0628 1.83301 11C1.83301 5.93729 5.93692 1.83337 10.9997 1.83337C16.0624 1.83337 20.1663 5.93729 20.1663 11C20.1663 16.0628 16.0624 20.1667 10.9997 20.1667ZM18.333 11C18.333 9.05512 17.5604 7.18986 16.1851 5.81459C14.8099 4.43932 12.9446 3.66671 10.9997 3.66671C9.05475 3.66671 7.18949 4.43932 5.81422 5.81459C4.43896 7.18986 3.66634 9.05512 3.66634 11C3.66634 12.945 4.43896 14.8102 5.81422 16.1855C7.18949 17.5608 9.05475 18.3334 10.9997 18.3334C12.9446 18.3334 14.8099 17.5608 16.1851 16.1855C17.5604 14.8102 18.333 12.945 18.333 11ZM14.6663 10.0834C14.9095 10.0834 15.1426 10.18 15.3145 10.3519C15.4864 10.5238 15.583 10.7569 15.583 11C15.583 11.2432 15.4864 11.4763 15.3145 11.6482C15.1426 11.8201 14.9095 11.9167 14.6663 11.9167H11.9163C10.908 11.9167 10.083 11.0917 10.083 10.0834V6.41671C10.083 6.17359 10.1796 5.94043 10.3515 5.76853C10.5234 5.59662 10.7566 5.50004 10.9997 5.50004C11.2428 5.50004 11.4759 5.59662 11.6479 5.76853C11.8198 5.94043 11.9163 6.17359 11.9163 6.41671V10.0834H14.6663Z" fill="#111111"/>
</svg>
