<svg width="23" height="20" viewBox="0 0 23 20" fill="none" xmlns="http://www.w3.org/2000/svg">
<path d="M21.8681 4.89714C21.6711 4.59874 21.3478 4.4208 21.0024 4.4208H6.60872L5.39337 1.3594C5.06478 0.532707 4.30229 0 3.44923 0H0.992188V2.2104H3.44923L8.44545 14.7931C8.60869 15.2042 8.99204 15.4728 9.41752 15.4728H17.8429C18.282 15.4728 18.6749 15.1866 18.8297 14.7566L21.9892 5.91503C22.1103 5.57463 22.065 5.19444 21.8681 4.89714ZM17.113 13.2624H10.12L7.48707 6.6312H19.4826L17.113 13.2624Z" fill="#AEADB2"/>
<path d="M9.9441 19.8936C10.8166 19.8936 11.5239 19.1514 11.5239 18.2358C11.5239 17.3202 10.8166 16.578 9.9441 16.578C9.07163 16.578 8.36435 17.3202 8.36435 18.2358C8.36435 19.1514 9.07163 19.8936 9.9441 19.8936Z" fill="#AEADB2"/>
<path d="M17.3163 19.8936C18.1887 19.8936 18.896 19.1514 18.896 18.2358C18.896 17.3202 18.1887 16.578 17.3163 16.578C16.4438 16.578 15.7365 17.3202 15.7365 18.2358C15.7365 19.1514 16.4438 19.8936 17.3163 19.8936Z" fill="#AEADB2"/>
</svg>
