<svg width="18" height="18" viewBox="0 0 18 18" fill="none" xmlns="http://www.w3.org/2000/svg">
<path opacity="0.5" d="M9.13846 14.9707C9.9687 14.9707 10.727 14.8838 11.4186 14.7336L9.87655 13.2509C9.63696 13.2686 9.39385 13.283 9.13846 13.283C4.44222 13.283 2.62288 10.0374 2.1823 9.06362C2.36134 8.667 2.77383 7.89823 3.50578 7.12524L2.27885 5.9455C0.929039 7.35224 0.417376 8.76911 0.407722 8.79695C0.347165 8.96995 0.347165 9.15813 0.407722 9.33113C0.426153 9.38682 2.43945 14.9707 9.13846 14.9707ZM9.13846 3.1565C7.52624 3.1565 6.20188 3.49067 5.09782 3.98434L1.86021 0.872131L0.619233 2.06537L16.4167 17.2551L17.6577 16.0619L14.7448 13.261C17.039 11.6146 17.8578 9.36657 17.8701 9.33113C17.9306 9.15813 17.9306 8.96995 17.8701 8.79695C17.8508 8.74041 15.8375 3.1565 9.13846 3.1565ZM13.5021 12.0661L11.5011 10.1421C11.6678 9.81298 11.7714 9.45096 11.7714 9.06362C11.7714 7.67882 10.5787 6.532 9.13846 6.532C8.73562 6.532 8.35912 6.63157 8.01772 6.79275L6.43095 5.26703C7.20415 5.00711 8.09758 4.84425 9.13846 4.84425C13.8347 4.84425 15.654 8.08979 16.0946 9.06362C15.8296 9.64758 15.0713 11.04 13.5021 12.0661Z" fill="black"/>
</svg>
