<svg width="134" height="91" viewBox="0 0 134 91" fill="none" xmlns="http://www.w3.org/2000/svg">
<path fill-rule="evenodd" clip-rule="evenodd" d="M88.6957 22.1714L61.1854 47.4055C59.4213 49.0236 59.0177 51.6499 60.2146 53.7229C61.3781 55.7382 63.7568 56.7122 65.9996 56.0917L102.456 46.005L88.6957 22.1714ZM58.4815 44.4577C55.3358 47.3431 54.6162 52.0262 56.7505 55.7229C58.8253 59.3166 63.067 61.0534 67.0663 59.9468L105.753 49.2432C107.146 48.8577 107.8 47.2607 107.077 46.009L90.9892 18.1438C90.3104 16.9682 88.7177 16.7234 87.7173 17.641L58.4815 44.4577Z" fill="#552FEC"/>
<path fill-rule="evenodd" clip-rule="evenodd" d="M74.6231 68.2526L59.9553 42.8472L63.4194 40.8472L72.8273 57.1422L75.4035 54.5644L88.1085 67.2612C89.4236 68.5755 89.1338 70.7796 87.5236 71.7092C83.0067 74.3171 77.2309 72.7695 74.6231 68.2526ZM73.5135 58.3306L78.0872 66.2526C79.3134 68.3765 81.7547 69.3615 84.0261 68.8365L73.5135 58.3306Z" fill="#552FEC"/>
<path fill-rule="evenodd" clip-rule="evenodd" d="M100.461 31.3732C99.7748 30.1845 98.2549 29.7773 97.0662 30.4636L95.0662 26.9995C98.168 25.2086 102.134 26.2714 103.925 29.3732C105.716 32.4751 104.653 36.4414 101.551 38.2323L99.5515 34.7682C100.74 34.0819 101.147 32.5619 100.461 31.3732Z" fill="#552FEC"/>
<path fill-rule="evenodd" clip-rule="evenodd" d="M111.337 25.0938C110.785 24.1372 111.113 22.914 112.069 22.3618L116.731 19.6706C117.687 19.1183 118.91 19.446 119.463 20.4026C120.015 21.3592 119.687 22.5824 118.731 23.1347L114.069 25.8259C113.113 26.3781 111.89 26.0504 111.337 25.0938Z" fill="#552FEC"/>
<path fill-rule="evenodd" clip-rule="evenodd" d="M106.03 18.9542C105.074 18.4019 104.746 17.1787 105.298 16.2221L107.99 11.5609C108.542 10.6043 109.765 10.2765 110.722 10.8288C111.678 11.3811 112.006 12.6043 111.454 13.5609L108.762 18.2221C108.21 19.1787 106.987 19.5064 106.03 18.9542Z" fill="#552FEC"/>
<path fill-rule="evenodd" clip-rule="evenodd" d="M114.001 32.7596C114.001 31.6551 114.896 30.7596 116.001 30.7596H121.383C122.488 30.7596 123.383 31.6551 123.383 32.7596C123.383 33.8642 122.488 34.7596 121.383 34.7596H116.001C114.896 34.7596 114.001 33.8642 114.001 32.7596Z" fill="#552FEC"/>
<path fill-rule="evenodd" clip-rule="evenodd" d="M98.092 16.2992C96.9875 16.2992 96.092 15.4038 96.092 14.2992L96.092 8.91685C96.092 7.81228 96.9875 6.91685 98.092 6.91685C99.1966 6.91685 100.092 7.81228 100.092 8.91685L100.092 14.2992C100.092 15.4038 99.1966 16.2992 98.092 16.2992Z" fill="#552FEC"/>
<path fill-rule="evenodd" clip-rule="evenodd" d="M111.97 40.3375C112.523 39.3809 113.746 39.0531 114.703 39.6054L119.364 42.2966C120.32 42.8489 120.648 44.072 120.096 45.0286C119.544 45.9852 118.32 46.313 117.364 45.7607L112.703 43.0695C111.746 42.5172 111.418 41.294 111.97 40.3375Z" fill="#552FEC"/>
<path fill-rule="evenodd" clip-rule="evenodd" d="M35.3416 11.6584C36.4331 7.76466 41.9531 7.76466 43.0447 11.6584L46.9907 25.7347L58.4569 16.6661C61.6286 14.1576 66.0944 17.4022 64.6888 21.1939L58.5634 37.7174L54.8128 36.327L60.9382 19.8035L49.472 28.872C47.2318 30.6438 43.9101 29.5645 43.1391 26.8144L39.1931 12.7381L35.2471 26.8144C34.4762 29.5645 31.1545 30.6438 28.9143 28.872L17.4481 19.8035L22.5295 33.5108C23.5223 36.1889 21.4693 39.0145 18.6156 38.8979L4.00889 38.3009L16.1768 46.4036C18.5541 47.9867 18.5541 51.4793 16.1768 53.0624L4.00889 61.1651L18.6156 60.5681C21.4693 60.4515 23.5223 63.2771 22.5295 65.9552L17.4481 79.6625L28.9143 70.594C31.1545 68.8222 34.4762 69.9015 35.2471 72.6516L39.1931 86.7279L43.1391 72.6516C43.9101 69.9015 47.2318 68.8222 49.472 70.594L60.9382 79.6625L54.8128 63.139L58.5634 61.7486L64.6888 78.2721C66.0944 82.0638 61.6286 85.3084 58.4569 82.7999L46.9907 73.7313L43.0447 87.8076C41.9531 91.7013 36.4331 91.7013 35.3416 87.8076L31.3956 73.7313L19.9294 82.7999C16.7576 85.3084 12.2919 82.0638 13.6975 78.2721L18.7789 64.5648L4.17222 65.1617C0.131762 65.3268 -1.57401 60.077 1.79185 57.8357L13.9598 49.733L1.79185 41.6303C-1.57401 39.389 0.131753 34.1392 4.17222 34.3043L18.7789 34.9012L13.6975 21.1939C12.2919 17.4022 16.7576 14.1576 19.9294 16.6661L31.3956 25.7347L35.3416 11.6584Z" fill="#7856FF" fill-opacity="0.7"/>
<path fill-rule="evenodd" clip-rule="evenodd" d="M46.1335 38.6498C47.0526 39.2625 47.3009 40.5043 46.6882 41.4233L34.1294 60.2615C33.5167 61.1806 32.275 61.429 31.3559 60.8162C30.4368 60.2035 30.1885 58.9618 30.8012 58.0427L43.36 39.2045C43.9727 38.2855 45.2145 38.0371 46.1335 38.6498Z" fill="#7856FF" fill-opacity="0.7"/>
<path fill-rule="evenodd" clip-rule="evenodd" d="M46.8181 56.9463C47.5816 56.9463 48.2005 56.3274 48.2005 55.5639C48.2005 54.8005 47.5816 54.1816 46.8181 54.1816C46.0547 54.1816 45.4358 54.8005 45.4358 55.5639C45.4358 56.3274 46.0547 56.9463 46.8181 56.9463ZM46.8181 60.9463C49.7907 60.9463 52.2005 58.5365 52.2005 55.5639C52.2005 52.5913 49.7907 50.1816 46.8181 50.1816C43.8456 50.1816 41.4358 52.5913 41.4358 55.5639C41.4358 58.5365 43.8456 60.9463 46.8181 60.9463Z" fill="#7856FF" fill-opacity="0.7"/>
<path fill-rule="evenodd" clip-rule="evenodd" d="M30.6712 45.2845C31.4346 45.2845 32.0535 44.6656 32.0535 43.9021C32.0535 43.1387 31.4346 42.5198 30.6712 42.5198C29.9077 42.5198 29.2888 43.1387 29.2888 43.9021C29.2888 44.6656 29.9077 45.2845 30.6712 45.2845ZM30.6712 49.2845C33.6438 49.2845 36.0535 46.8747 36.0535 43.9021C36.0535 40.9295 33.6438 38.5198 30.6712 38.5198C27.6986 38.5198 25.2888 40.9295 25.2888 43.9021C25.2888 46.8747 27.6986 49.2845 30.6712 49.2845Z" fill="#7856FF" fill-opacity="0.7"/>
</svg>
