<?xml version="1.0" encoding="UTF-8"?>
<!DOCTYPE svg PUBLIC "-//W3C//DTD SVG 1.1//EN" "http://www.w3.org/Graphics/SVG/1.1/DTD/svg11.dtd">
<!-- Creator: CorelDRAW 2020 (64-Bit) -->
<svg xmlns="http://www.w3.org/2000/svg" xml:space="preserve" width="8.4666mm" height="8.4666mm" version="1.1" style="shape-rendering:geometricPrecision; text-rendering:geometricPrecision; image-rendering:optimizeQuality; fill-rule:evenodd; clip-rule:evenodd"
viewBox="0 0 846.66 846.66"
 xmlns:xlink="http://www.w3.org/1999/xlink"
 xmlns:xodm="http://www.corel.com/coreldraw/odm/2003">
 <defs>
  <style type="text/css">
   <![CDATA[
    .fil0 {fill:black;fill-rule:nonzero}
   ]]>
  </style>
 </defs>
 <g id="Слой_x0020_1">
  <metadata id="CorelCorpID_0Corel-Layer"/>
  <g id="_764145376">
   <g>
    <path class="fil0" d="M377.5 431.81l-359.53 -359.53c-12.66,-12.66 -12.66,-33.18 0,-45.84 12.65,-12.66 33.18,-12.66 45.83,0l359.54 359.53 359.53 -359.53c12.66,-12.66 33.18,-12.66 45.83,0 12.66,12.66 12.66,33.18 0,45.84l-359.53 359.53 359.53 359.53c12.66,12.66 12.66,33.18 0,45.84 -6.32,6.33 -14.62,9.49 -22.91,9.49 -8.3,0 -16.59,-3.16 -22.92,-9.49l-359.53 -359.53 -359.54 359.53c-6.32,6.33 -14.62,9.49 -22.91,9.49 -8.3,0 -16.59,-3.16 -22.92,-9.49 -12.66,-12.66 -12.66,-33.18 0,-45.84l359.53 -359.53z"/>
   </g>
  </g>
  <g id="_764140960">
  </g>
  <g id="_764143120">
  </g>
  <g id="_764142880">
  </g>
  <g id="_764133520">
  </g>
  <g id="_764119600">
  </g>
  <g id="_764143984">
  </g>
  <g id="_764096032">
  </g>
  <g id="_764095600">
  </g>
  <g id="_764137792">
  </g>
  <g id="_764139952">
  </g>
  <g id="_764137744">
  </g>
  <g id="_764132800">
  </g>
  <g id="_764127328">
  </g>
  <g id="_764132512">
  </g>
  <g id="_764121808">
  </g>
 </g>
</svg>
