<?xml version="1.0" encoding="UTF-8"?>
<!DOCTYPE svg PUBLIC "-//W3C//DTD SVG 1.1//EN" "http://www.w3.org/Graphics/SVG/1.1/DTD/svg11.dtd">
<!-- Creator: CorelDRAW 2019 (64-Bit) -->
<svg xmlns="http://www.w3.org/2000/svg" xml:space="preserve" width="100mm" height="100mm" version="1.1" style="shape-rendering:geometricPrecision; text-rendering:geometricPrecision; image-rendering:optimizeQuality; fill-rule:evenodd; clip-rule:evenodd"
viewBox="0 0 10000 10000"
 xmlns:xlink="http://www.w3.org/1999/xlink"
 xmlns:xodm="http://www.corel.com/coreldraw/odm/2003">
 <defs>
  <style type="text/css">
   <![CDATA[
    .fil0 {fill:white;fill-rule:nonzero}
   ]]>
  </style>
 </defs>
 <g id="Слой_x0020_1">
  <metadata id="CorelCorpID_0Corel-Layer"/>
  <g id="_857103584">
   <g>
    <path class="fil0" d="M2935.8 1222.7l4247.77 0 0 1061.98 530.92 0.01 0 -1061.99c0.01,-292.97 -237.47,-531.01 -530.92,-531.01l-4247.77 0c-293.25,0 -531.01,238.04 -531.01,531.01l0 1061.98 531.01 0.01 0 -1061.99z"/>
    <path class="fil0" d="M8776.52 2815.68l-7433.71 0c-293.25,0 -531.02,237.98 -531.02,530.97l0 2654.98c0,293.53 237.77,531.01 531.02,531.01l1061.98 0.01 0 2123.96c0,293.54 237.76,531.01 531.01,531.01l4247.77 -0.01c293.45,0 530.91,-237.47 530.91,-531l0.01 -2123.96 1062.01 0c293.46,0 530.93,-237.48 530.93,-531.02l0 -2654.98c0.02,-292.99 -237.45,-530.97 -530.91,-530.97zm-1592.95 5840.93l-4247.77 0 0 -3716.97 4247.77 0.01 0 3716.96zm1061.86 -4247.92c-293.46,0 -530.93,-237.51 -530.93,-531.02 0,-292.95 237.47,-531.02 530.93,-531.02 293.55,0 531.09,238.05 531.09,531.02 0,293.49 -237.55,531.02 -531.09,531.02z"/>
    <polygon class="fil0" points="5855.97,6532.65 5059.77,7594.66 4263.25,7063.58 3466.77,8125.59 6652.47,8125.59 "/>
    <path class="fil0" d="M4263.25 6665.44c219.9,0 398.26,-178.39 398.26,-398.4 0,-219.82 -178.36,-398.11 -398.26,-398.11 -219.82,0 -398.22,178.31 -398.22,398.11 0,220.01 178.4,398.4 398.22,398.4z"/>
   </g>
  </g>
  <g id="_857103392">
  </g>
  <g id="_857103488">
  </g>
  <g id="_857106048">
  </g>
  <g id="_857104096">
  </g>
  <g id="_857101280">
  </g>
  <g id="_857101376">
  </g>
  <g id="_857101792">
  </g>
  <g id="_857080640">
  </g>
  <g id="_857100928">
  </g>
  <g id="_857079712">
  </g>
  <g id="_857078240">
  </g>
  <g id="_857079488">
  </g>
  <g id="_857078784">
  </g>
  <g id="_857101856">
  </g>
  <g id="_857079616">
  </g>
 </g>
</svg>
