<svg width="88" height="26" viewBox="0 0 88 26" fill="none" xmlns="http://www.w3.org/2000/svg">
<path d="M15.9472 14.3904L16.4406 13.6388H16.5463V19.258H19.0485V9.71973H16.5463L13.7269 14.0683L13.2511 14.802L12.793 15.5358H12.6873V9.71973H10.1851V19.258H12.6873C13.163 18.5959 13.6212 17.9159 14.0793 17.2179L15.4362 15.16C15.6227 14.915 15.7934 14.6579 15.9472 14.3904Z" fill="#F0F0F0"/>
<path d="M23.9473 15.3031H27.683V19.258H30.1852V9.71973H27.683V13.3525H23.9473V9.71973H21.4275V19.258H23.9473V15.3031Z" fill="#F0F0F0"/>
<path d="M40.5285 16.1979C40.55 15.7654 40.4701 15.3339 40.2955 14.9388C40.1209 14.5437 39.8565 14.1963 39.5241 13.9252C38.7475 13.3551 37.8027 13.071 36.8457 13.1199H35.0835V9.71973H32.5637V19.258H37.0043C37.9243 19.3157 38.8367 19.0573 39.5946 18.5243C39.9253 18.2433 40.1833 17.8844 40.3461 17.4789C40.5088 17.0734 40.5715 16.6336 40.5285 16.1979ZM37.6386 17.0748C37.3449 17.2675 37.0014 17.3672 36.6518 17.3611H35.0659V15.0168H36.6694C37.0265 14.9945 37.3804 15.0954 37.6739 15.3031C37.8001 15.4086 37.8996 15.5432 37.964 15.6958C38.0283 15.8484 38.0558 16.0144 38.0439 16.18C38.0587 16.3485 38.0327 16.5181 37.9682 16.674C37.9037 16.83 37.8027 16.9675 37.6739 17.0748" fill="#F0F0F0"/>
<path d="M72.8811 18.0052C73.3671 17.5644 73.7521 17.0207 74.0089 16.4125C74.2722 15.766 74.4041 15.072 74.3966 14.3724C74.4004 13.7194 74.2682 13.073 74.0089 12.4755C73.7449 11.9225 73.3662 11.4342 72.8988 11.0439C72.4394 10.6082 71.9007 10.2677 71.3129 10.0417C70.6803 9.80037 70.0143 9.66147 69.3393 9.63012V6.05103L66.9604 6.89211V9.55854C66.2893 9.58899 65.628 9.73419 65.0045 9.98803C64.4223 10.2391 63.8906 10.597 63.4362 11.0439C62.9873 11.4672 62.6276 11.9786 62.3789 12.5471C62.1207 13.1513 61.9886 13.8033 61.9913 14.4619C61.9884 15.1287 62.108 15.7902 62.3437 16.4125C62.5598 17.0012 62.903 17.5332 63.3481 17.9694C63.8068 18.4104 64.3453 18.7569 64.934 18.9895C65.5905 19.2325 66.2799 19.3713 66.978 19.4011V23.5707L69.3569 22.658V19.4547C70.0283 19.4264 70.6899 19.2811 71.3129 19.0253C71.894 18.7883 72.4261 18.4422 72.8811 18.0052ZM66.9604 17.5936C66.6136 17.5592 66.2745 17.4686 65.956 17.3252C65.6687 17.1792 65.4115 16.9787 65.1983 16.7346C64.9538 16.4569 64.7625 16.1353 64.6344 15.7862C64.4846 15.3679 64.4129 14.9248 64.423 14.4798C64.4021 13.7215 64.6455 12.98 65.1102 12.386C65.3411 12.111 65.6236 11.8855 65.9413 11.7227C66.259 11.5598 66.6054 11.4629 66.9604 11.4376V17.5936ZM70.2908 17.361C69.9811 17.4908 69.6548 17.5752 69.3217 17.6115V11.4376C69.6866 11.4515 70.0445 11.5432 70.3724 11.7066C70.7002 11.8699 70.9906 12.1014 71.2247 12.386C71.6766 12.9859 71.9129 13.7247 71.8943 14.4798C71.9045 14.9248 71.8328 15.3679 71.6829 15.7862C71.5461 16.1403 71.3493 16.4674 71.1014 16.7525C70.875 17.0095 70.5991 17.2165 70.2908 17.361Z" fill="#F0F0F0"/>
<path d="M87.5596 16.4125C87.8313 15.7686 87.9636 15.0728 87.9473 14.3724C87.9487 13.7215 87.8229 13.0767 87.5772 12.4755C87.3324 11.9301 86.9783 11.4425 86.5376 11.0439C86.0818 10.6122 85.5497 10.2722 84.9693 10.0417C84.3301 9.80218 83.6586 9.66337 82.9781 9.63012V6.05103L80.6345 6.98159V9.55854C79.9576 9.58869 79.2905 9.73386 78.6609 9.98803C78.0723 10.2206 77.5337 10.5671 77.075 11.0081C76.6154 11.4217 76.254 11.9356 76.0177 12.5113C75.7511 13.1127 75.6187 13.7666 75.6301 14.4261C75.6228 15.1049 75.7424 15.779 75.9825 16.4125C76.2053 17.002 76.5544 17.5338 77.0045 17.9694C77.4548 18.4125 77.9881 18.7594 78.5728 18.9895C79.2349 19.2343 79.9304 19.3731 80.6345 19.4011V23.5707L82.9957 22.658V19.4547C83.6671 19.4264 84.3287 19.2811 84.9517 19.0253C85.5329 18.7883 86.0649 18.4422 86.5199 18.0052C86.9799 17.5603 87.3352 17.016 87.5596 16.4125ZM80.6345 17.5399C80.2816 17.5078 79.9364 17.4171 79.6125 17.2715C79.3024 17.1291 79.0214 16.9288 78.7843 16.6809C78.5457 16.3988 78.3551 16.0783 78.2204 15.7325C78.0705 15.3142 77.9988 14.8711 78.0089 14.4261C77.9881 13.6678 78.2314 12.9263 78.6962 12.3323C78.9378 12.0476 79.2346 11.8164 79.5681 11.6532C79.9016 11.4901 80.2646 11.3984 80.6345 11.3839V17.5399ZM85.3393 15.7504C85.2085 16.1036 85.0177 16.4306 84.7754 16.7167C84.539 16.97 84.2581 17.1764 83.9473 17.3252C83.6402 17.4629 83.3126 17.5476 82.9781 17.5757V11.4376C83.343 11.4515 83.701 11.5432 84.0288 11.7066C84.3566 11.8699 84.647 12.1014 84.8812 12.386C85.333 12.9859 85.5693 13.7247 85.5508 14.4798C85.5609 14.9248 85.4892 15.3679 85.3393 15.7862" fill="#F0F0F0"/>
<path d="M0 7.89433H3.6652V19.2759H6.27313V7.89433H9.79736V5.67529H0V7.89433Z" fill="#F0F0F0"/>
<path d="M51.0132 9.77341H48.141L44.7754 13.8357V9.71973H42.2908V19.2759H44.7754V14.6231L48.0705 19.2759H51.0309L47.3304 14.1578L51.0132 9.77341Z" fill="#F0F0F0"/>
<path d="M59.3831 10.8829C58.9766 10.4533 58.4838 10.1176 57.9382 9.89863C57.3464 9.67392 56.7198 9.55876 56.088 9.55862C55.4502 9.55661 54.8174 9.67181 54.2201 9.89863C53.6716 10.122 53.1739 10.457 52.7576 10.8829C52.3365 11.3252 52.0175 11.857 51.8236 12.4398C51.5761 13.1392 51.4625 13.8803 51.4888 14.623C51.4797 15.3164 51.5869 16.0063 51.806 16.6631C52.0005 17.247 52.3125 17.7833 52.7223 18.2379C53.1258 18.6629 53.6118 18.9981 54.1496 19.2222C54.7494 19.4643 55.3897 19.5858 56.0351 19.5801C56.6728 19.5821 57.3056 19.4669 57.9029 19.2401C58.4514 19.0167 58.9491 18.6817 59.3655 18.2558C59.7828 17.8005 60.1063 17.2651 60.317 16.681C60.5522 16.0093 60.6656 15.3 60.6518 14.5873C60.6643 13.8921 60.5508 13.2006 60.317 12.5472C60.1234 11.959 59.8045 11.4213 59.3831 10.9724V10.8829ZM58.0087 15.7505C57.9279 16.0822 57.7908 16.3972 57.6034 16.681C57.4478 16.9412 57.2295 17.1568 56.969 17.3074C56.6971 17.4513 56.3945 17.5251 56.088 17.5221C55.7928 17.5148 55.5043 17.4323 55.2487 17.2822C54.9931 17.1322 54.7788 16.9193 54.6254 16.6631C54.2204 16.0191 54.0289 15.2603 54.0791 14.4978C54.0547 13.7709 54.2318 13.0516 54.5902 12.4219C54.7546 12.168 54.9801 11.9609 55.2452 11.82C55.5103 11.6791 55.8064 11.6091 56.1056 11.6166C56.4164 11.5965 56.7269 11.6605 57.0055 11.8019C57.2841 11.9434 57.5208 12.1573 57.6915 12.4219C58.0732 13.0865 58.2339 13.8584 58.1496 14.623C58.1506 15.0034 58.1032 15.3824 58.0087 15.7505Z" fill="#F0F0F0"/>
</svg>
