<svg width="16" height="16" viewBox="0 0 16 16" fill="none" xmlns="http://www.w3.org/2000/svg">
<path fill-rule="evenodd" clip-rule="evenodd" d="M8 14.8129C11.7627 14.8129 14.8129 11.7627 14.8129 8C14.8129 4.23734 11.7627 1.1871 8 1.1871C4.23734 1.1871 1.1871 4.23734 1.1871 8C1.1871 11.7627 4.23734 14.8129 8 14.8129ZM8 16C12.4183 16 16 12.4183 16 8C16 3.58172 12.4183 0 8 0C3.58172 0 0 3.58172 0 8C0 12.4183 3.58172 16 8 16Z" fill="#6DC12A"/>
<path d="M6.64673 9.64861L4.52427 7.66183L3.6129 8.51495L6.64673 11.3548L12.9032 5.49828L11.9919 4.64516L6.64673 9.64861Z" fill="#6DC12A"/>
</svg>
