<svg width="14" height="15" viewBox="0 0 14 15" fill="none" xmlns="http://www.w3.org/2000/svg">
<path d="M14 4.75909V12.2727H2.8L0 15V1.36364H8.47C8.36645 1.85897 8.37725 2.37054 8.50161 2.86131C8.62597 3.35208 8.86078 3.80979 9.18905 4.20132C9.51733 4.59285 9.93085 4.9084 10.3997 5.12514C10.8686 5.34189 11.381 5.4544 11.9 5.45455C12.691 5.45455 13.412 5.18864 14 4.75909ZM9.8 2.04545C9.8 3.17727 10.738 4.09091 11.9 4.09091C13.062 4.09091 14 3.17727 14 2.04545C14 0.913636 13.062 0 11.9 0C10.738 0 9.8 0.913636 9.8 2.04545Z" fill="white"/>
</svg>
